<svg xmlns="http://www.w3.org/2000/svg" width="443.247" height="357.049" viewBox="0 0 443.247 357.049">
  <g id="Grupo_103" data-name="Grupo 103" transform="translate(-476.414 -4324.23)">
    <ellipse id="Elipse_15" data-name="Elipse 15" cx="49.502" cy="49.491" rx="49.502" ry="49.491" transform="translate(820.657 4457.28)" fill="#fff"/>
    <ellipse id="Elipse_16" data-name="Elipse 16" cx="29.489" cy="29.482" rx="29.489" ry="29.482" transform="translate(840.67 4477.289)" fill="#d8efdd"/>
    <rect id="Rectángulo_30" data-name="Rectángulo 30" width="316.601" height="345.758" transform="translate(540.186 4324.23)" fill="#d8efdd"/>
    <ellipse id="Elipse_17" data-name="Elipse 17" cx="49.502" cy="49.491" rx="49.502" ry="49.491" transform="translate(476.414 4457.28)" fill="#fff"/>
    <text id="La_cooperación" data-name="La cooperación" transform="translate(593.927 4455.977)" fill="#003830" font-size="24" font-family="Montserrat-Bold, Montserrat" font-weight="700"><tspan x="0" y="0">La cooperación</tspan></text>
    <text id="Es_otro_elemento_importante_dado_que_cada_sector_tiene_sus_intereses_específicos_se_debe_buscar_que_todos_los_actores_trabajen_por_un_objetivo_común_para_mejorar_los_resultados._" data-name="Es otro elemento importante, dado que cada sector tiene sus intereses específicos, se debe buscar que todos los actores trabajen por un objetivo común para mejorar los resultados.









" transform="translate(593.927 4473.037)" fill="#444242" font-size="16" font-family="OpenSans, Open Sans"><tspan x="0" y="17">Es otro elemento importante, </tspan><tspan x="0" y="39">dado que cada sector tiene sus </tspan><tspan x="0" y="61">intereses específicos, se debe </tspan><tspan x="0" y="83">buscar que todos los actores </tspan><tspan x="0" y="105">trabajen por un objetivo común </tspan><tspan x="0" y="127">para mejorar los resultados.</tspan><tspan x="0" y="149"></tspan><tspan x="0" y="171"></tspan><tspan x="0" y="193"></tspan></text>
    <rect id="Rectángulo_33" data-name="Rectángulo 33" width="316.601" height="12.2" transform="translate(540.186 4324.23)" fill="#db9600"/>
    <rect id="Rectángulo_36" data-name="Rectángulo 36" width="316.601" height="12.2" transform="translate(540.186 4669.079)" fill="#db9600"/>
    <g id="Grupo_57" data-name="Grupo 57" transform="translate(-23 2)" opacity="0.8">
      <g id="Grupo_54" data-name="Grupo 54">
        <g id="Grupo_52" data-name="Grupo 52">
          <g id="Layer1_2_MEMBER_0_FILL" data-name="Layer1 2 MEMBER 0 FILL">
            <path id="Trazado_110" data-name="Trazado 110" d="M753.768,4391.331q-.8.049-1.6.05l1.6,1.15Z" fill="#003830"/>
          </g>
        </g>
        <g id="Grupo_53" data-name="Grupo 53">
          <path id="Trazado_111" data-name="Trazado 111" d="M740.2,4417.43c-3.513-.149-5.562-1.309-6.157-3.448a7.124,7.124,0,0,1,1.147-6.315,2.823,2.823,0,0,0,.717-2.054,1.235,1.235,0,0,0-.675-.712l-6.28.725-4.283.3a.757.757,0,0,1-.777-.555,53.2,53.2,0,0,1-1.876-14.809c.116-.884.723-1.834,3-1.834a.734.734,0,0,1,.227.035,25.4,25.4,0,0,1,3.775,1.526,2.589,2.589,0,0,1,.961.332c1.782.85,3.262.324,4.618-1.665a7.3,7.3,0,0,0,.819-4.065,7.579,7.579,0,0,0-.88-4.056c-1.343-1.971-2.82-2.48-4.639-1.585a6.567,6.567,0,0,0-.784.414.79.79,0,0,1-.111.057c-1.143.47-2.438.948-3.849,1.419a.762.762,0,0,1-.237.038c-2.328,0-2.862-.989-2.9-1.817a52.58,52.58,0,0,1,1.672-14.819.745.745,0,0,1,.8-.561l4.3.451,6.266.433a1.3,1.3,0,0,0,.7-.755,2.829,2.829,0,0,0-.71-2.058,7.388,7.388,0,0,1-1.2-2.5,4.916,4.916,0,0,1-.332-1.774,6.006,6.006,0,0,1,.342-2A3.421,3.421,0,0,1,736,4353.63a14.459,14.459,0,0,1,3.84-.5,19.077,19.077,0,0,1,3.927.425,3.486,3.486,0,0,1,1.915,1.623,4.245,4.245,0,0,1,.215.62,7.3,7.3,0,0,1,.308,1.083,7.456,7.456,0,0,1-1.47,5.176c-.686,1.092-.839,1.908-.438,2.394a.692.692,0,0,1,.093.143.934.934,0,0,0,.4.271l8.812-.784a.766.766,0,0,1,.572.193.75.75,0,0,1,.244.554v7.916l11.34-7.393a.751.751,0,0,1,.615-.094c4.456,1.264,8.875,2.621,13.131,4.035,6.119,2.031,12.109,4.247,17.809,6.585l4.747-.049a.773.773,0,0,1,.758.742.75.75,0,0,1-.742.758l-4.9.051a.659.659,0,0,1-.293-.057c-5.71-2.346-11.716-4.569-17.851-6.606-4.132-1.372-8.416-2.692-12.741-3.923l-11.871,7.74.043,7.137c.374-.041.765-.071,1.168-.091a8.973,8.973,0,0,1,.927-.051,4.419,4.419,0,0,1,.605-.049,13.476,13.476,0,0,1,2.785-.1l.662-.083a5.523,5.523,0,0,1-1.774-3,.75.75,0,1,1,1.464-.328,4.384,4.384,0,0,0,2.608,3.051l4.511-.339a8.231,8.231,0,0,1-1.241-5.667.75.75,0,0,1,1.48.238,6.94,6.94,0,0,0,1.37,5.159l3.052-1.271a.75.75,0,1,1,.577,1.385l-3.595,1.5-.051.019a.728.728,0,0,1-.2.039l-5.964.447-2.781.349a1.1,1.1,0,0,1-.15,0,11.877,11.877,0,0,0-2.587.094c-.19.027-.389.015-.584.048-.344.057-.68.02-.991.054a16.641,16.641,0,0,0-1.909.2l-.021,0a41.705,41.705,0,0,0-6.076,1.5,4.569,4.569,0,0,0-.942,3.339,3.98,3.98,0,0,0,1.921,2.4c.537.052,1.324.077,2.345.077.441.035.786.051,1.1.051q.772,0,1.546-.049a.517.517,0,0,1,.055,0h.006q.88,0,1.908-.049a8.543,8.543,0,0,1,.935-.05c1.217-.1,2.549-.229,3.9-.4,1.17-.162,2.377-.377,3.588-.639a.764.764,0,0,1,.514.073,35.547,35.547,0,0,0,5.383,2.349l.019.006h0l.013,0a42.946,42.946,0,0,0,5.4,1.67c.659.164,1.258.294,1.809.391a35.426,35.426,0,0,0,6.319.588,39.03,39.03,0,0,0,13.344-3.234.77.77,0,0,1,.469-.048l4.5,1a.75.75,0,1,1-.326,1.465l-4.259-.946a40.671,40.671,0,0,1-13.678,3.261h-.027a36.95,36.95,0,0,1-6.607-.609c-.587-.1-1.227-.243-1.9-.411-1.237-.292-2.488-.65-3.736-1.066a12.5,12.5,0,0,1,.532,1.359c.078.336.137.561.2.742a.769.769,0,0,1,.035.173,3.236,3.236,0,0,1-.553,2.321.744.744,0,0,1-.68.288l-8.25-.949a.751.751,0,0,1-.349-.134l-3.11-2.216c-.233.23-.509.474-.832.737a.752.752,0,0,1-.93.012l-2.893-2.222v10.828a.752.752,0,0,1-.242.552.742.742,0,0,1-.57.195l-8.744-.732a1.306,1.306,0,0,0-.708.742,2.865,2.865,0,0,0,.646,2.09,6.584,6.584,0,0,1,1.179,6.244C745.5,4416.1,743.517,4417.28,740.2,4417.43Zm-4.834-14.049a.745.745,0,0,1,.313.068,2.8,2.8,0,0,1,1.673,1.763,4.008,4.008,0,0,1-.917,3.292,5.632,5.632,0,0,0-.956,5.043c.416,1.5,1.957,2.266,4.719,2.385,2.561-.119,4.037-.9,4.445-2.4a5.159,5.159,0,0,0-.982-4.959,4.121,4.121,0,0,1-.847-3.36,2.859,2.859,0,0,1,1.689-1.765.744.744,0,0,1,.375-.065l8.138.682v-11.151l-1.1-.787c-.285-.006-.591-.022-.919-.051a25.143,25.143,0,0,1-2.623-.1.762.762,0,0,1-.31-.109,5.5,5.5,0,0,1-2.737-3.452,6.161,6.161,0,0,1,1.315-4.708.752.752,0,0,1,.4-.292,48.8,48.8,0,0,1,5.92-1.523l-.046-7.756v-8.487l-8.184.729a.74.74,0,0,1-.345-.051,2.479,2.479,0,0,1-1.3-.979c-.806-1.034-.674-2.418.392-4.116a5.952,5.952,0,0,0,1.24-4.121,7.141,7.141,0,0,0-.26-.874,3.629,3.629,0,0,0-.141-.427,1.956,1.956,0,0,0-1.032-.833,18.977,18.977,0,0,0-3.451-.347,12.806,12.806,0,0,0-3.323.408,1.931,1.931,0,0,0-1.237,1.23,4.517,4.517,0,0,0-.261,1.512,3.422,3.422,0,0,0,.246,1.272.651.651,0,0,1,.035.111,5.863,5.863,0,0,0,.981,2.035,4.057,4.057,0,0,1,.928,3.3,2.857,2.857,0,0,1-1.666,1.806.792.792,0,0,1-.376.071l-6.5-.45-3.678-.385a50.821,50.821,0,0,0-1.47,13.76c.011.26.672.364,1.281.376,1.31-.44,2.513-.883,3.577-1.321a7.958,7.958,0,0,1,.886-.463c1.726-.85,4.281-1.184,6.526,2.113a8.84,8.84,0,0,1,1.13,4.872,8.533,8.533,0,0,1-1.076,4.916c-2.245,3.3-4.8,2.993-6.547,2.16a1.115,1.115,0,0,0-.477-.177.743.743,0,0,1-.343-.083,23.9,23.9,0,0,0-3.57-1.465c-.424.008-1.342.07-1.394.45a51.457,51.457,0,0,0,1.676,13.707l3.628-.256,6.467-.747A.726.726,0,0,1,735.368,4403.381ZM763,4396.408l7.554.869a2.313,2.313,0,0,0,.077-.85q-.1-.305-.191-.734a12.9,12.9,0,0,0-1.169-2.492,37.1,37.1,0,0,1-5.11-2.229c-.962.2-1.92.376-2.859.517a6.829,6.829,0,0,1-1.156,2.885Zm-8.478-4.247,3.326,2.556a5.575,5.575,0,0,0,.634-.651l.019-.022.009-.01a5.375,5.375,0,0,0,1.227-2.345c-1.042.117-2.067.213-3.058.29a8.265,8.265,0,0,0-.874.046c-.46.024-.885.039-1.283.047Z" fill="#003830"/>
        </g>
      </g>
      <g id="Grupo_56" data-name="Grupo 56">
        <g id="Grupo_55" data-name="Grupo 55">
          <path id="Trazado_112" data-name="Trazado 112" d="M712.418,4406.881a.748.748,0,0,1-.647-.371c-.5-.856-.814-2.265.541-4.122a5.456,5.456,0,0,0,.893-4.924c-.467-1.484-1.975-2.245-4.612-2.333-2.651.118-4.194.894-4.659,2.375a5.478,5.478,0,0,0,1.094,4.889c1,1.519,1.237,2.827.716,3.911a.756.756,0,0,1-.739.422l-11.4-.951a.749.749,0,0,1-.687-.747v-11.909l-3.285,3.1a.75.75,0,0,1-.988.037c-.325-.264-.6-.509-.835-.739l-3.161,2.22a.756.756,0,0,1-.344.132l-8.2.949a.755.755,0,0,1-.658-.259,2.947,2.947,0,0,1-.572-2.382.832.832,0,0,1,.032-.14,6.748,6.748,0,0,0,.179-.676,11.159,11.159,0,0,1,.521-1.432c-1.249.417-2.512.778-3.766,1.074-.623.165-1.249.305-1.841.409a37.571,37.571,0,0,1-6.581.611,40.827,40.827,0,0,1-13.778-3.263l-4.259.946a.75.75,0,1,1-.325-1.465l4.5-1a.769.769,0,0,1,.469.048,39.16,39.16,0,0,0,13.443,3.236,36.2,36.2,0,0,0,6.268-.59c.553-.1,1.138-.228,1.741-.387a42.835,42.835,0,0,0,5.416-1.673l.067-.023a34.821,34.821,0,0,0,5.4-2.339.777.777,0,0,1,.514-.073c1.207.262,2.412.476,3.58.638l.021,0c1.344.164,2.659.3,3.9.4a8.137,8.137,0,0,1,.935.053c.662.028,1.317.044,1.907.044l.476.05q1.479-.051,2.224-.05c1.019,0,1.806-.025,2.344-.077a3.986,3.986,0,0,0,1.9-2.391,4.609,4.609,0,0,0-.919-3.344,48.1,48.1,0,0,0-5.641-1.439,2.4,2.4,0,0,1-.511-.071,16.944,16.944,0,0,0-1.854-.179q-.451-.056-7.1-.55l-.03,0-5.925-.448a.754.754,0,0,1-.255-.061l-3.635-1.494a.75.75,0,1,1,.57-1.387l3.1,1.272a7.2,7.2,0,0,0,1.375-5.171.748.748,0,0,1,.634-.849.756.756,0,0,1,.85.635,8.5,8.5,0,0,1-1.257,5.655l4.476.339a4.524,4.524,0,0,0,2.66-3.066.75.75,0,1,1,1.457.358,5.663,5.663,0,0,1-1.705,2.887c4.024.3,4.779.369,4.933.391.519.021,1.045.066,1.539.132l-.042-6.883-12.228-8.041a294.168,294.168,0,0,0-30.591,10.529.812.812,0,0,1-.292.056l-4.85-.051a.75.75,0,0,1,.016-1.5l4.7.049a296.159,296.159,0,0,1,30.939-10.62.756.756,0,0,1,.617.1l11.68,7.681-.042-7.65a.75.75,0,0,1,.671-.75l11.3-1.2a.742.742,0,0,1,.679.3c.706.94.531,2.239-.521,3.858a5.53,5.53,0,0,0-1.064,4.966c.469,1.514,2.011,2.306,4.718,2.427,2.6-.149,4.108-.954,4.547-2.461a5.388,5.388,0,0,0-1-4.964c-1.34-1.837-1.032-3.27-.535-4.147a.754.754,0,0,1,.716-.377l11.7,1a.75.75,0,1,1-.128,1.494l-11.162-.954a2.461,2.461,0,0,0,.632,2.116,6.875,6.875,0,0,1,1.206,6.279c-.621,2.135-2.632,3.326-5.971,3.512-3.443-.149-5.49-1.319-6.157-3.478a7,7,0,0,1,1.248-6.247,3.569,3.569,0,0,0,.69-1.77l-10.068,1.07.046,8.372v0l.046,7.525a54.7,54.7,0,0,1,5.527,1.46.741.741,0,0,1,.4.3,6.2,6.2,0,0,1,1.286,4.709,5.513,5.513,0,0,1-2.708,3.444.763.763,0,0,1-.313.111,25.144,25.144,0,0,1-2.687.1q-.548,0-1.5.028v12.232l10.092.842a3.437,3.437,0,0,0-.719-1.94,6.956,6.956,0,0,1-1.293-6.172c.673-2.139,2.72-3.291,6.087-3.438,3.363.11,5.379,1.246,6.048,3.373a6.97,6.97,0,0,1-1.091,6.241,2.473,2.473,0,0,0-.654,2.092l11.216-.954a.75.75,0,1,1,.127,1.494l-11.75,1Zm-36.064-10.439a1.923,1.923,0,0,0,.061.837l7.528-.871,2.9-2.038a6.828,6.828,0,0,1-1.154-2.881c-.943-.142-1.9-.316-2.859-.517a36.082,36.082,0,0,1-5.16,2.23,11.078,11.078,0,0,0-1.13,2.534C676.484,4395.99,676.419,4396.236,676.354,4396.442Zm12.125-2.41c.008.01.017.02.025.031a5.538,5.538,0,0,0,.589.609l2.768-2.616c-.217-.007-.444-.016-.677-.027a7.449,7.449,0,0,0-.866-.048c-1.008-.078-2.027-.175-3.065-.291A5.383,5.383,0,0,0,688.479,4394.032Z" fill="#003830"/>
        </g>
      </g>
    </g>
  </g>
</svg>
