<svg xmlns="http://www.w3.org/2000/svg" width="1137.045" height="357.049" viewBox="0 0 1137.045 357.049">
  <g id="Grupo_102" data-name="Grupo 102" transform="translate(-154.171 -4322.23)">
    <rect id="Rectángulo_29" data-name="Rectángulo 29" width="316.601" height="345.758" transform="translate(908.146 4322.23)" fill="#d8efdd"/>
    <ellipse id="Elipse_13" data-name="Elipse 13" cx="49.502" cy="49.491" rx="49.502" ry="49.491" transform="translate(1192.212 4455.28)" fill="#fff"/>
    <ellipse id="Elipse_14" data-name="Elipse 14" cx="29.489" cy="29.482" rx="29.489" ry="29.482" transform="translate(1212.225 4475.289)" fill="#d8efdd"/>
    <ellipse id="Elipse_15" data-name="Elipse 15" cx="49.502" cy="49.491" rx="49.502" ry="49.491" transform="translate(843.657 4455.28)" fill="#fff"/>
    <ellipse id="Elipse_16" data-name="Elipse 16" cx="29.489" cy="29.482" rx="29.489" ry="29.482" transform="translate(863.67 4475.289)" fill="#d8efdd"/>
    <rect id="Rectángulo_30" data-name="Rectángulo 30" width="316.601" height="345.758" transform="translate(563.186 4322.23)" fill="#d8efdd"/>
    <ellipse id="Elipse_17" data-name="Elipse 17" cx="49.502" cy="49.491" rx="49.502" ry="49.491" transform="translate(499.414 4455.28)" fill="#fff"/>
    <rect id="Rectángulo_31" data-name="Rectángulo 31" width="316.601" height="342.959" transform="translate(219.841 4325.03)" fill="#d8efdd"/>
    <ellipse id="Elipse_18" data-name="Elipse 18" cx="29.489" cy="29.482" rx="29.489" ry="29.482" transform="translate(519.427 4475.289)" fill="#d8efdd"/>
    <ellipse id="Elipse_19" data-name="Elipse 19" cx="49.502" cy="49.491" rx="49.502" ry="49.491" transform="translate(154.171 4455.28)" fill="#fff"/>
    <ellipse id="Elipse_20" data-name="Elipse 20" cx="29.489" cy="29.482" rx="29.489" ry="29.482" transform="translate(174.184 4475.289)" fill="#d8efdd"/>
    <text id="La_coordinación" data-name="La coordinación" transform="translate(272.927 4453.977)" fill="#003830" font-size="24" font-family="Montserrat-Bold, Montserrat" font-weight="700"><tspan x="0" y="0">La coordinación</tspan></text>
    <text id="La_cooperación" data-name="La cooperación" transform="translate(616.927 4453.977)" fill="#003830" font-size="24" font-family="Montserrat-Bold, Montserrat" font-weight="700"><tspan x="0" y="0">La cooperación</tspan></text>
    <text id="La_confianza" data-name="La confianza" transform="translate(950.927 4433.977)" fill="#003830" font-size="24" font-family="Montserrat-Bold, Montserrat" font-weight="700"><tspan x="0" y="0">La confianza</tspan></text>
    <text id="Garantiza_acuerdos_entre_los_actores_cómo_cuándo_y_quién_va_a_hacer_las_cosas_es_el_elemento_más_importante_de_la_Gobernanza._Al_identificarlos_se_puede_comprender_y_analizar_un_sistema._" data-name="Garantiza acuerdos entre los actores, cómo, cuándo y quién va a hacer las cosas, es el elemento más importante de la Gobernanza. Al identificarlos se puede comprender y analizar un sistema.










" transform="translate(272.927 4471.037)" fill="#444242" font-size="16" font-family="OpenSans, Open Sans"><tspan x="0" y="17">Garantiza acuerdos entre los </tspan><tspan x="0" y="39">actores, cómo, cuándo y quién </tspan><tspan x="0" y="61">va a hacer las cosas, es el </tspan><tspan x="0" y="83">elemento más importante de la </tspan><tspan x="0" y="105">Gobernanza. Al identificarlos se </tspan><tspan x="0" y="127">puede comprender y analizar </tspan><tspan x="0" y="149">un sistema.</tspan><tspan x="0" y="171"></tspan><tspan x="0" y="193"></tspan></text>
    <text id="Es_otro_elemento_importante_dado_que_cada_sector_tiene_sus_intereses_específicos_se_debe_buscar_que_todos_los_actores_trabajen_por_un_objetivo_común_para_mejorar_los_resultados._" data-name="Es otro elemento importante, dado que cada sector tiene sus intereses específicos, se debe buscar que todos los actores trabajen por un objetivo común para mejorar los resultados.









" transform="translate(616.927 4471.037)" fill="#444242" font-size="16" font-family="OpenSans, Open Sans"><tspan x="0" y="17">Es otro elemento importante, </tspan><tspan x="0" y="39">dado que cada sector tiene sus </tspan><tspan x="0" y="61">intereses específicos, se debe </tspan><tspan x="0" y="83">buscar que todos los actores </tspan><tspan x="0" y="105">trabajen por un objetivo común </tspan><tspan x="0" y="127">para mejorar los resultados.</tspan><tspan x="0" y="149"></tspan><tspan x="0" y="171"></tspan><tspan x="0" y="193"></tspan></text>
    <text id="Es_la_credibilidad_que_vamos_a_dar_al_otro_y_también_juega_un_rol_importante_en_este_proceso._Finalmente_está_el_control_el_cual_hace_referencia_a_los_mecanismos_de_control_que_deben_existir_para_regular_la_Gobernanza._" data-name="Es la credibilidad que vamos a dar al otro y también juega un rol importante en este proceso.
Finalmente, está el control el cual hace referencia a los mecanismos de control que deben existir para regular la Gobernanza.








" transform="translate(950.927 4451.037)" fill="#444242" font-size="16" font-family="OpenSans, Open Sans"><tspan x="0" y="17">Es la credibilidad que vamos a </tspan><tspan x="0" y="39">dar al otro y también juega un </tspan><tspan x="0" y="61">rol importante en este proceso.</tspan><tspan x="0" y="83">Finalmente, está el control el </tspan><tspan x="0" y="105">cual hace referencia a los </tspan><tspan x="0" y="127">mecanismos de control que </tspan><tspan x="0" y="149">deben existir para regular la </tspan><tspan x="0" y="171">Gobernanza.</tspan><tspan x="0" y="193"></tspan><tspan x="0" y="215"></tspan></text>
    <rect id="Rectángulo_32" data-name="Rectángulo 32" width="316.601" height="12.2" transform="translate(219.841 4322.23)" fill="#003830"/>
    <rect id="Rectángulo_33" data-name="Rectángulo 33" width="316.601" height="12.2" transform="translate(563.186 4322.23)" fill="#db9600"/>
    <rect id="Rectángulo_34" data-name="Rectángulo 34" width="316.601" height="12.2" transform="translate(908.146 4322.23)" fill="#003830"/>
    <rect id="Rectángulo_35" data-name="Rectángulo 35" width="316.601" height="12.2" transform="translate(219.841 4667.079)" fill="#003830"/>
    <rect id="Rectángulo_36" data-name="Rectángulo 36" width="316.601" height="12.2" transform="translate(563.186 4667.079)" fill="#db9600"/>
    <rect id="Rectángulo_37" data-name="Rectángulo 37" width="316.601" height="12.2" transform="translate(908.146 4667.079)" fill="#003830"/>
    <g id="Grupo_57" data-name="Grupo 57" opacity="0.8">
      <g id="Grupo_54" data-name="Grupo 54">
        <g id="Grupo_52" data-name="Grupo 52">
          <g id="Layer1_2_MEMBER_0_FILL" data-name="Layer1 2 MEMBER 0 FILL">
            <path id="Trazado_110" data-name="Trazado 110" d="M753.768,4391.331q-.8.049-1.6.05l1.6,1.15Z" fill="#003830"/>
          </g>
        </g>
        <g id="Grupo_53" data-name="Grupo 53">
          <path id="Trazado_111" data-name="Trazado 111" d="M740.2,4417.43c-3.513-.149-5.562-1.309-6.157-3.448a7.124,7.124,0,0,1,1.147-6.315,2.823,2.823,0,0,0,.717-2.054,1.235,1.235,0,0,0-.675-.712l-6.28.725-4.283.3a.757.757,0,0,1-.777-.555,53.2,53.2,0,0,1-1.876-14.809c.116-.884.723-1.834,3-1.834a.734.734,0,0,1,.227.035,25.4,25.4,0,0,1,3.775,1.526,2.589,2.589,0,0,1,.961.332c1.782.85,3.262.324,4.618-1.665a7.3,7.3,0,0,0,.819-4.065,7.579,7.579,0,0,0-.88-4.056c-1.343-1.971-2.82-2.48-4.639-1.585a6.567,6.567,0,0,0-.784.414.79.79,0,0,1-.111.057c-1.143.47-2.438.948-3.849,1.419a.762.762,0,0,1-.237.038c-2.328,0-2.862-.989-2.9-1.817a52.58,52.58,0,0,1,1.672-14.819.745.745,0,0,1,.8-.561l4.3.451,6.266.433a1.3,1.3,0,0,0,.7-.755,2.829,2.829,0,0,0-.71-2.058,7.388,7.388,0,0,1-1.2-2.5,4.916,4.916,0,0,1-.332-1.774,6.006,6.006,0,0,1,.342-2A3.421,3.421,0,0,1,736,4353.63a14.459,14.459,0,0,1,3.84-.5,19.077,19.077,0,0,1,3.927.425,3.486,3.486,0,0,1,1.915,1.623,4.245,4.245,0,0,1,.215.62,7.3,7.3,0,0,1,.308,1.083,7.456,7.456,0,0,1-1.47,5.176c-.686,1.092-.839,1.908-.438,2.394a.692.692,0,0,1,.093.143.934.934,0,0,0,.4.271l8.812-.784a.766.766,0,0,1,.572.193.75.75,0,0,1,.244.554v7.916l11.34-7.393a.751.751,0,0,1,.615-.094c4.456,1.264,8.875,2.621,13.131,4.035,6.119,2.031,12.109,4.247,17.809,6.585l4.747-.049a.773.773,0,0,1,.758.742.75.75,0,0,1-.742.758l-4.9.051a.659.659,0,0,1-.293-.057c-5.71-2.346-11.716-4.569-17.851-6.606-4.132-1.372-8.416-2.692-12.741-3.923l-11.871,7.74.043,7.137c.374-.041.765-.071,1.168-.091a8.973,8.973,0,0,1,.927-.051,4.419,4.419,0,0,1,.605-.049,13.476,13.476,0,0,1,2.785-.1l.662-.083a5.523,5.523,0,0,1-1.774-3,.75.75,0,1,1,1.464-.328,4.384,4.384,0,0,0,2.608,3.051l4.511-.339a8.231,8.231,0,0,1-1.241-5.667.75.75,0,0,1,1.48.238,6.94,6.94,0,0,0,1.37,5.159l3.052-1.271a.75.75,0,1,1,.577,1.385l-3.595,1.5-.051.019a.728.728,0,0,1-.2.039l-5.964.447-2.781.349a1.1,1.1,0,0,1-.15,0,11.877,11.877,0,0,0-2.587.094c-.19.027-.389.015-.584.048-.344.057-.68.02-.991.054a16.641,16.641,0,0,0-1.909.2l-.021,0a41.705,41.705,0,0,0-6.076,1.5,4.569,4.569,0,0,0-.942,3.339,3.98,3.98,0,0,0,1.921,2.4c.537.052,1.324.077,2.345.077.441.035.786.051,1.1.051q.772,0,1.546-.049a.517.517,0,0,1,.055,0h.006q.88,0,1.908-.049a8.543,8.543,0,0,1,.935-.05c1.217-.1,2.549-.229,3.9-.4,1.17-.162,2.377-.377,3.588-.639a.764.764,0,0,1,.514.073,35.547,35.547,0,0,0,5.383,2.349l.019.006h0l.013,0a42.946,42.946,0,0,0,5.4,1.67c.659.164,1.258.294,1.809.391a35.426,35.426,0,0,0,6.319.588,39.03,39.03,0,0,0,13.344-3.234.77.77,0,0,1,.469-.048l4.5,1a.75.75,0,1,1-.326,1.465l-4.259-.946a40.671,40.671,0,0,1-13.678,3.261h-.027a36.95,36.95,0,0,1-6.607-.609c-.587-.1-1.227-.243-1.9-.411-1.237-.292-2.488-.65-3.736-1.066a12.5,12.5,0,0,1,.532,1.359c.078.336.137.561.2.742a.769.769,0,0,1,.035.173,3.236,3.236,0,0,1-.553,2.321.744.744,0,0,1-.68.288l-8.25-.949a.751.751,0,0,1-.349-.134l-3.11-2.216c-.233.23-.509.474-.832.737a.752.752,0,0,1-.93.012l-2.893-2.222v10.828a.752.752,0,0,1-.242.552.742.742,0,0,1-.57.195l-8.744-.732a1.306,1.306,0,0,0-.708.742,2.865,2.865,0,0,0,.646,2.09,6.584,6.584,0,0,1,1.179,6.244C745.5,4416.1,743.517,4417.28,740.2,4417.43Zm-4.834-14.049a.745.745,0,0,1,.313.068,2.8,2.8,0,0,1,1.673,1.763,4.008,4.008,0,0,1-.917,3.292,5.632,5.632,0,0,0-.956,5.043c.416,1.5,1.957,2.266,4.719,2.385,2.561-.119,4.037-.9,4.445-2.4a5.159,5.159,0,0,0-.982-4.959,4.121,4.121,0,0,1-.847-3.36,2.859,2.859,0,0,1,1.689-1.765.744.744,0,0,1,.375-.065l8.138.682v-11.151l-1.1-.787c-.285-.006-.591-.022-.919-.051a25.143,25.143,0,0,1-2.623-.1.762.762,0,0,1-.31-.109,5.5,5.5,0,0,1-2.737-3.452,6.161,6.161,0,0,1,1.315-4.708.752.752,0,0,1,.4-.292,48.8,48.8,0,0,1,5.92-1.523l-.046-7.756v-8.487l-8.184.729a.74.74,0,0,1-.345-.051,2.479,2.479,0,0,1-1.3-.979c-.806-1.034-.674-2.418.392-4.116a5.952,5.952,0,0,0,1.24-4.121,7.141,7.141,0,0,0-.26-.874,3.629,3.629,0,0,0-.141-.427,1.956,1.956,0,0,0-1.032-.833,18.977,18.977,0,0,0-3.451-.347,12.806,12.806,0,0,0-3.323.408,1.931,1.931,0,0,0-1.237,1.23,4.517,4.517,0,0,0-.261,1.512,3.422,3.422,0,0,0,.246,1.272.651.651,0,0,1,.035.111,5.863,5.863,0,0,0,.981,2.035,4.057,4.057,0,0,1,.928,3.3,2.857,2.857,0,0,1-1.666,1.806.792.792,0,0,1-.376.071l-6.5-.45-3.678-.385a50.821,50.821,0,0,0-1.47,13.76c.011.26.672.364,1.281.376,1.31-.44,2.513-.883,3.577-1.321a7.958,7.958,0,0,1,.886-.463c1.726-.85,4.281-1.184,6.526,2.113a8.84,8.84,0,0,1,1.13,4.872,8.533,8.533,0,0,1-1.076,4.916c-2.245,3.3-4.8,2.993-6.547,2.16a1.115,1.115,0,0,0-.477-.177.743.743,0,0,1-.343-.083,23.9,23.9,0,0,0-3.57-1.465c-.424.008-1.342.07-1.394.45a51.457,51.457,0,0,0,1.676,13.707l3.628-.256,6.467-.747A.726.726,0,0,1,735.368,4403.381ZM763,4396.408l7.554.869a2.313,2.313,0,0,0,.077-.85q-.1-.305-.191-.734a12.9,12.9,0,0,0-1.169-2.492,37.1,37.1,0,0,1-5.11-2.229c-.962.2-1.92.376-2.859.517a6.829,6.829,0,0,1-1.156,2.885Zm-8.478-4.247,3.326,2.556a5.575,5.575,0,0,0,.634-.651l.019-.022.009-.01a5.375,5.375,0,0,0,1.227-2.345c-1.042.117-2.067.213-3.058.29a8.265,8.265,0,0,0-.874.046c-.46.024-.885.039-1.283.047Z" fill="#003830"/>
        </g>
      </g>
      <g id="Grupo_56" data-name="Grupo 56">
        <g id="Grupo_55" data-name="Grupo 55">
          <path id="Trazado_112" data-name="Trazado 112" d="M712.418,4406.881a.748.748,0,0,1-.647-.371c-.5-.856-.814-2.265.541-4.122a5.456,5.456,0,0,0,.893-4.924c-.467-1.484-1.975-2.245-4.612-2.333-2.651.118-4.194.894-4.659,2.375a5.478,5.478,0,0,0,1.094,4.889c1,1.519,1.237,2.827.716,3.911a.756.756,0,0,1-.739.422l-11.4-.951a.749.749,0,0,1-.687-.747v-11.909l-3.285,3.1a.75.75,0,0,1-.988.037c-.325-.264-.6-.509-.835-.739l-3.161,2.22a.756.756,0,0,1-.344.132l-8.2.949a.755.755,0,0,1-.658-.259,2.947,2.947,0,0,1-.572-2.382.832.832,0,0,1,.032-.14,6.748,6.748,0,0,0,.179-.676,11.159,11.159,0,0,1,.521-1.432c-1.249.417-2.512.778-3.766,1.074-.623.165-1.249.305-1.841.409a37.571,37.571,0,0,1-6.581.611,40.827,40.827,0,0,1-13.778-3.263l-4.259.946a.75.75,0,1,1-.325-1.465l4.5-1a.769.769,0,0,1,.469.048,39.16,39.16,0,0,0,13.443,3.236,36.2,36.2,0,0,0,6.268-.59c.553-.1,1.138-.228,1.741-.387a42.835,42.835,0,0,0,5.416-1.673l.067-.023a34.821,34.821,0,0,0,5.4-2.339.777.777,0,0,1,.514-.073c1.207.262,2.412.476,3.58.638l.021,0c1.344.164,2.659.3,3.9.4a8.137,8.137,0,0,1,.935.053c.662.028,1.317.044,1.907.044l.476.05q1.479-.051,2.224-.05c1.019,0,1.806-.025,2.344-.077a3.986,3.986,0,0,0,1.9-2.391,4.609,4.609,0,0,0-.919-3.344,48.1,48.1,0,0,0-5.641-1.439,2.4,2.4,0,0,1-.511-.071,16.944,16.944,0,0,0-1.854-.179q-.451-.056-7.1-.55l-.03,0-5.925-.448a.754.754,0,0,1-.255-.061l-3.635-1.494a.75.75,0,1,1,.57-1.387l3.1,1.272a7.2,7.2,0,0,0,1.375-5.171.748.748,0,0,1,.634-.849.756.756,0,0,1,.85.635,8.5,8.5,0,0,1-1.257,5.655l4.476.339a4.524,4.524,0,0,0,2.66-3.066.75.75,0,1,1,1.457.358,5.663,5.663,0,0,1-1.705,2.887c4.024.3,4.779.369,4.933.391.519.021,1.045.066,1.539.132l-.042-6.883-12.228-8.041a294.168,294.168,0,0,0-30.591,10.529.812.812,0,0,1-.292.056l-4.85-.051a.75.75,0,0,1,.016-1.5l4.7.049a296.159,296.159,0,0,1,30.939-10.62.756.756,0,0,1,.617.1l11.68,7.681-.042-7.65a.75.75,0,0,1,.671-.75l11.3-1.2a.742.742,0,0,1,.679.3c.706.94.531,2.239-.521,3.858a5.53,5.53,0,0,0-1.064,4.966c.469,1.514,2.011,2.306,4.718,2.427,2.6-.149,4.108-.954,4.547-2.461a5.388,5.388,0,0,0-1-4.964c-1.34-1.837-1.032-3.27-.535-4.147a.754.754,0,0,1,.716-.377l11.7,1a.75.75,0,1,1-.128,1.494l-11.162-.954a2.461,2.461,0,0,0,.632,2.116,6.875,6.875,0,0,1,1.206,6.279c-.621,2.135-2.632,3.326-5.971,3.512-3.443-.149-5.49-1.319-6.157-3.478a7,7,0,0,1,1.248-6.247,3.569,3.569,0,0,0,.69-1.77l-10.068,1.07.046,8.372v0l.046,7.525a54.7,54.7,0,0,1,5.527,1.46.741.741,0,0,1,.4.3,6.2,6.2,0,0,1,1.286,4.709,5.513,5.513,0,0,1-2.708,3.444.763.763,0,0,1-.313.111,25.144,25.144,0,0,1-2.687.1q-.548,0-1.5.028v12.232l10.092.842a3.437,3.437,0,0,0-.719-1.94,6.956,6.956,0,0,1-1.293-6.172c.673-2.139,2.72-3.291,6.087-3.438,3.363.11,5.379,1.246,6.048,3.373a6.97,6.97,0,0,1-1.091,6.241,2.473,2.473,0,0,0-.654,2.092l11.216-.954a.75.75,0,1,1,.127,1.494l-11.75,1Zm-36.064-10.439a1.923,1.923,0,0,0,.061.837l7.528-.871,2.9-2.038a6.828,6.828,0,0,1-1.154-2.881c-.943-.142-1.9-.316-2.859-.517a36.082,36.082,0,0,1-5.16,2.23,11.078,11.078,0,0,0-1.13,2.534C676.484,4395.99,676.419,4396.236,676.354,4396.442Zm12.125-2.41c.008.01.017.02.025.031a5.538,5.538,0,0,0,.589.609l2.768-2.616c-.217-.007-.444-.016-.677-.027a7.449,7.449,0,0,0-.866-.048c-1.008-.078-2.027-.175-3.065-.291A5.383,5.383,0,0,0,688.479,4394.032Z" fill="#003830"/>
        </g>
      </g>
    </g>
    <g id="handshake" opacity="0.8">
      <g id="Grupo_58" data-name="Grupo 58">
        <path id="Trazado_113" data-name="Trazado 113" d="M1047.8,4364.967c-2.614,2.156-1.348,8.267,4.746,4.583,0,0,7.448-3.733,11.8-6.2.949-.538,1.583-.359,2.375.541.87.628,20.582,22.644,20.582,22.644s6.076-4.615,8.451-9.468c0,0-5.461-10.267-10.666-20.456-1.509.856-2.8,1.665-4.529,1.173-1.792-.509-3.276-1.911-4.9-2.852a14.912,14.912,0,0,0-5.467-2.338c-3.046-.435-5.445.928-8.069,2.435-2.984,1.712-5.882,3.636-8.716,5.647Q1050.534,4362.708,1047.8,4364.967Z" fill="#003830"/>
        <path id="Trazado_114" data-name="Trazado 114" d="M1051.622,4399.253a3.66,3.66,0,0,1,.437-4.7l6.255-5.694a2.706,2.706,0,0,1,4.145.4h0a3.661,3.661,0,0,1-.436,4.7l-6.251,5.694a2.713,2.713,0,0,1-4.15-.4Z" fill="#003830"/>
        <path id="Trazado_115" data-name="Trazado 115" d="M1045.851,4394.009a3.656,3.656,0,0,1,.437-4.7l4.934-4.491a2.71,2.71,0,0,1,4.146.4h0a3.661,3.661,0,0,1-.436,4.7l-4.931,4.492a2.714,2.714,0,0,1-4.15-.4Z" fill="#003830"/>
        <path id="Trazado_116" data-name="Trazado 116" d="M1038.867,4389.724a3.647,3.647,0,0,1,.666-4.664l1.1-.861a2.722,2.722,0,0,1,4.122.657l.066.083a3.545,3.545,0,0,1-.73,4.582l-1.1.859a2.721,2.721,0,0,1-4.124-.656Z" fill="#003830"/>
        <path id="Trazado_117" data-name="Trazado 117" d="M1066.505,4396.059a2.709,2.709,0,0,0-4.16-.166l-2.7,2.8a3.667,3.667,0,0,0-.233,4.716,2.708,2.708,0,0,0,4.161.167l2.7-2.8A3.665,3.665,0,0,0,1066.505,4396.059Z" fill="#003830"/>
        <path id="Trazado_118" data-name="Trazado 118" d="M1105.053,4372.442a1.639,1.639,0,0,1-.54,2.244l-4.535,2.391a1.639,1.639,0,0,1-2.143-.853l-10.779-20.82a1.639,1.639,0,0,1,.542-2.244l4.535-2.389a1.64,1.64,0,0,1,2.146.852Z" fill="#003830"/>
      </g>
      <g id="Grupo_59" data-name="Grupo 59">
        <path id="Trazado_119" data-name="Trazado 119" d="M1028.228,4376.024a1.6,1.6,0,0,1-1.934,1.134l-4.577-1.589a1.606,1.606,0,0,1-.706-2.13l8.258-21.94a1.6,1.6,0,0,1,1.937-1.134l4.576,1.591a1.6,1.6,0,0,1,.706,2.13Z" fill="#003830"/>
        <path id="Trazado_120" data-name="Trazado 120" d="M1087.052,4389.228l-.013-.014a2.549,2.549,0,0,1-.612,1.347,2.94,2.94,0,0,1-2.2,1.019,3.079,3.079,0,0,1-2.322-1.108l-7.786-8.83a.662.662,0,0,0-.514-.249c-.745,0-1.566,1.222-.9,1.925l6.392,7.063a3.763,3.763,0,0,1,.037,4.9,2.586,2.586,0,0,1-1.949.919,3.077,3.077,0,0,1-2.288-1.145l-7.324-8.161a.683.683,0,0,0-.584-.37,1.2,1.2,0,0,0-.687,1.972l5.633,6.458a3.662,3.662,0,0,1-.081,4.761,2.464,2.464,0,0,1-1.857.877,2.628,2.628,0,0,1-1.164-.283,5.522,5.522,0,0,1-1.026,1.722,4.544,4.544,0,0,0,2.19.592,4.368,4.368,0,0,0,3.268-1.516,5.767,5.767,0,0,0,1.443-3.612,4.7,4.7,0,0,0,2.477.736,4.488,4.488,0,0,0,3.364-1.562,5.657,5.657,0,0,0,1.406-3.633,4.753,4.753,0,0,0,5.888-1.081,5.02,5.02,0,0,0,1.186-2.869,2.11,2.11,0,0,0-.194-1.216c-.221.176-.363.285-.4.313Z" fill="#003830"/>
        <path id="Trazado_121" data-name="Trazado 121" d="M1038.322,4383.473l.028-.023.028-.022.464-.362c-3.82-3.879-6.157-6.731-6.157-6.731,3.669-9.344,7.818-20.731,7.818-20.731-.034.645,2.138,1.8,2.575,1.973a6.121,6.121,0,0,0,2.289.43,6.558,6.558,0,0,0,.659-.033c2.289-.231,4.44-1.552,6.463-2.691a10.125,10.125,0,0,1,4.644-1.554,3.879,3.879,0,0,1,2.166.636c.612-.373,1.216-.729,1.807-1.071a2,2,0,0,0-.344-.356,5.683,5.683,0,0,0-3.629-1.24,11.936,11.936,0,0,0-5.562,1.795l-.528.3a14.465,14.465,0,0,1-5.2,2.161c-.155.015-.316.023-.473.023a4.285,4.285,0,0,1-1.595-.295,8.748,8.748,0,0,1-1.494-.894,1.963,1.963,0,0,0-1.37-1.169,1.854,1.854,0,0,0-.406-.045,1.942,1.942,0,0,0-1.809,1.307c-.041.113-4.183,11.47-7.8,20.681a2.106,2.106,0,0,0,.322,2.1c.1.122,2.412,2.936,6.209,6.8A5.311,5.311,0,0,1,1038.322,4383.473Z" fill="#003830"/>
      </g>
    </g>
    <g id="Grupo_81" data-name="Grupo 81" opacity="0.8">
      <g id="Grupo_62" data-name="Grupo 62">
        <g id="Grupo_60" data-name="Grupo 60">
          <path id="Trazado_122" data-name="Trazado 122" d="M360.107,4413.984a1.148,1.148,0,0,0,.567.91c.791.457,2.636,1.159,6.537,1.191a16.975,16.975,0,0,0,7.156-1.168,1.28,1.28,0,0,0,.738-1.167v-2.062a6.534,6.534,0,0,0-.186-1.575c-.461-1.855-2-5.622-6.872-5.385-2.112.1-2.817.192-2.817.192h0a5.026,5.026,0,0,0-2.731,1.459A9.568,9.568,0,0,0,360.107,4413.984Z" fill="#003830"/>
          <path id="Trazado_123" data-name="Trazado 123" d="M367.454,4416.364h-.245c-3.813-.03-5.734-.684-6.675-1.228a1.419,1.419,0,0,1-.7-1.131h0a9.832,9.832,0,0,1,2.468-7.817,5.266,5.266,0,0,1,2.883-1.541c.045-.006.755-.094,2.853-.2,5.15-.252,6.718,3.83,7.157,5.6a6.852,6.852,0,0,1,.193,1.641v2.062a1.562,1.562,0,0,1-.9,1.42A17,17,0,0,1,367.454,4416.364ZM368.483,4405c-.138,0-.278,0-.423.01-2.069.1-2.788.189-2.795.19a4.717,4.717,0,0,0-2.565,1.376,9.289,9.289,0,0,0-2.315,7.392h0a.875.875,0,0,0,.428.688c.722.417,2.514,1.122,6.4,1.153a16.779,16.779,0,0,0,7.038-1.142,1,1,0,0,0,.575-.914v-2.062a6.258,6.258,0,0,0-.177-1.508C374.161,4408.217,372.715,4405,368.483,4405Z" fill="#003830"/>
        </g>
        <g id="Grupo_61" data-name="Grupo 61">
          <circle id="Elipse_21" data-name="Elipse 21" cx="4.527" cy="4.527" r="4.527" transform="matrix(0.171, -0.985, 0.985, 0.171, 362.353, 4405.723)" fill="#003830"/>
          <path id="Trazado_124" data-name="Trazado 124" d="M367.589,4406.844a4.806,4.806,0,1,1,4.806-4.806A4.812,4.812,0,0,1,367.589,4406.844Zm0-9.055a4.249,4.249,0,1,0,4.249,4.249A4.254,4.254,0,0,0,367.589,4397.789Z" fill="#003830"/>
        </g>
      </g>
      <g id="Grupo_65" data-name="Grupo 65">
        <g id="Grupo_63" data-name="Grupo 63">
          <path id="Trazado_125" data-name="Trazado 125" d="M360.107,4366.532a1.144,1.144,0,0,0,.567.909c.791.458,2.636,1.16,6.537,1.191a16.959,16.959,0,0,0,7.156-1.168,1.28,1.28,0,0,0,.738-1.167v-2.061a6.521,6.521,0,0,0-.186-1.575c-.461-1.855-2-5.622-6.872-5.385-2.112.1-2.817.191-2.817.191h0a5.024,5.024,0,0,0-2.731,1.46A9.568,9.568,0,0,0,360.107,4366.532Z" fill="#003830"/>
          <path id="Trazado_126" data-name="Trazado 126" d="M367.454,4368.912h-.245c-3.813-.031-5.734-.685-6.675-1.229a1.42,1.42,0,0,1-.7-1.131h0a9.834,9.834,0,0,1,2.468-7.817,5.275,5.275,0,0,1,2.883-1.541c.045-.006.755-.094,2.853-.195,5.15-.252,6.718,3.83,7.157,5.6a6.848,6.848,0,0,1,.193,1.642v2.061a1.56,1.56,0,0,1-.9,1.42A17,17,0,0,1,367.454,4368.912Zm1.029-11.368c-.138,0-.278,0-.423.01-2.069.1-2.788.189-2.795.19a4.7,4.7,0,0,0-2.565,1.376,9.288,9.288,0,0,0-2.315,7.392h0a.875.875,0,0,0,.428.688c.722.418,2.514,1.122,6.4,1.153a16.779,16.779,0,0,0,7.038-1.142,1,1,0,0,0,.575-.914v-2.061a6.249,6.249,0,0,0-.177-1.508C374.161,4360.765,372.715,4357.544,368.483,4357.544Z" fill="#003830"/>
        </g>
        <g id="Grupo_64" data-name="Grupo 64">
          <circle id="Elipse_22" data-name="Elipse 22" cx="4.527" cy="4.527" r="4.527" transform="translate(363.061 4350.058)" fill="#003830"/>
          <path id="Trazado_127" data-name="Trazado 127" d="M367.589,4359.392a4.806,4.806,0,1,1,4.806-4.806A4.812,4.812,0,0,1,367.589,4359.392Zm0-9.055a4.249,4.249,0,1,0,4.249,4.249A4.254,4.254,0,0,0,367.589,4350.337Z" fill="#003830"/>
        </g>
      </g>
      <g id="Grupo_68" data-name="Grupo 68">
        <g id="Grupo_66" data-name="Grupo 66">
          <path id="Trazado_128" data-name="Trazado 128" d="M335.712,4393.89a1.149,1.149,0,0,0,.566.91c.791.457,2.637,1.159,6.538,1.19a16.984,16.984,0,0,0,7.156-1.167,1.284,1.284,0,0,0,.738-1.168v-2.061a6.524,6.524,0,0,0-.186-1.575c-.461-1.855-2-5.622-6.873-5.385-2.111.1-2.816.192-2.816.192h0a5.017,5.017,0,0,0-2.732,1.459A9.566,9.566,0,0,0,335.712,4393.89Z" fill="#003830"/>
          <path id="Trazado_129" data-name="Trazado 129" d="M343.058,4396.27h-.244c-3.813-.031-5.735-.685-6.675-1.228a1.417,1.417,0,0,1-.705-1.132h0a9.837,9.837,0,0,1,2.468-7.817,5.278,5.278,0,0,1,2.883-1.541c.044-.006.755-.094,2.853-.195,5.15-.252,6.718,3.83,7.156,5.6a6.807,6.807,0,0,1,.194,1.642v2.061a1.56,1.56,0,0,1-.9,1.42A17,17,0,0,1,343.058,4396.27Zm1.03-11.368c-.138,0-.279,0-.423.01-2.069.1-2.788.189-2.8.19a4.7,4.7,0,0,0-2.565,1.376,9.288,9.288,0,0,0-2.315,7.392h0a.875.875,0,0,0,.428.688c.722.417,2.514,1.122,6.4,1.153a16.767,16.767,0,0,0,7.037-1.143,1,1,0,0,0,.576-.914v-2.061a6.313,6.313,0,0,0-.177-1.508C349.766,4388.123,348.32,4384.9,344.088,4384.9Z" fill="#003830"/>
        </g>
        <g id="Grupo_67" data-name="Grupo 67">
          <circle id="Elipse_23" data-name="Elipse 23" cx="4.527" cy="4.527" r="4.527" transform="matrix(0.098, -0.995, 0.995, 0.098, 338.246, 4386.007)" fill="#003830"/>
          <path id="Trazado_130" data-name="Trazado 130" d="M343.194,4386.75a4.806,4.806,0,1,1,4.806-4.806A4.811,4.811,0,0,1,343.194,4386.75Zm0-9.055a4.249,4.249,0,1,0,4.248,4.249A4.254,4.254,0,0,0,343.194,4377.695Z" fill="#003830"/>
        </g>
      </g>
      <g id="Grupo_71" data-name="Grupo 71">
        <g id="Grupo_69" data-name="Grupo 69">
          <path id="Trazado_131" data-name="Trazado 131" d="M384.243,4393.89a1.149,1.149,0,0,0,.566.91c.791.457,2.637,1.159,6.538,1.19a16.984,16.984,0,0,0,7.156-1.167,1.284,1.284,0,0,0,.738-1.168v-2.061a6.524,6.524,0,0,0-.186-1.575c-.461-1.855-2-5.622-6.873-5.385-2.111.1-2.816.192-2.816.192h0a5.017,5.017,0,0,0-2.732,1.459A9.566,9.566,0,0,0,384.243,4393.89Z" fill="#003830"/>
          <path id="Trazado_132" data-name="Trazado 132" d="M391.589,4396.27h-.244c-3.813-.031-5.735-.685-6.675-1.228a1.417,1.417,0,0,1-.705-1.132h0a9.837,9.837,0,0,1,2.468-7.817,5.278,5.278,0,0,1,2.883-1.541c.044-.006.755-.094,2.853-.195,5.15-.252,6.718,3.83,7.156,5.6a6.807,6.807,0,0,1,.194,1.642v2.061a1.56,1.56,0,0,1-.9,1.42A17,17,0,0,1,391.589,4396.27Zm1.03-11.368c-.138,0-.279,0-.423.01-2.069.1-2.788.189-2.8.19a4.7,4.7,0,0,0-2.565,1.376,9.288,9.288,0,0,0-2.315,7.392h0a.875.875,0,0,0,.428.688c.722.417,2.514,1.122,6.4,1.153a16.767,16.767,0,0,0,7.037-1.143,1,1,0,0,0,.576-.914v-2.061a6.313,6.313,0,0,0-.177-1.508C398.3,4388.123,396.851,4384.9,392.619,4384.9Z" fill="#003830"/>
        </g>
        <g id="Grupo_70" data-name="Grupo 70">
          <circle id="Elipse_24" data-name="Elipse 24" cx="4.527" cy="4.527" r="4.527" transform="translate(386.538 4385.699) rotate(-80.904)" fill="#003830"/>
          <path id="Trazado_133" data-name="Trazado 133" d="M391.725,4386.75a4.806,4.806,0,1,1,4.806-4.806A4.811,4.811,0,0,1,391.725,4386.75Zm0-9.055a4.249,4.249,0,1,0,4.248,4.249A4.254,4.254,0,0,0,391.725,4377.695Z" fill="#003830"/>
        </g>
      </g>
      <g id="Grupo_73" data-name="Grupo 73">
        <g id="Grupo_72" data-name="Grupo 72">
          <path id="Trazado_134" data-name="Trazado 134" d="M348.411,4375.974l-3.339-2.1c2.94-4.888,5.42-7.045,10.613-9.233l1.494,3.7C352.732,4370.219,350.929,4371.788,348.411,4375.974Z" fill="#003830"/>
        </g>
      </g>
      <g id="Grupo_75" data-name="Grupo 75">
        <g id="Grupo_74" data-name="Grupo 74">
          <path id="Trazado_135" data-name="Trazado 135" d="M386.645,4375.974l3.339-2.1c-2.94-4.888-5.42-7.045-10.613-9.233l-1.495,3.7C382.324,4370.219,384.126,4371.788,386.645,4375.974Z" fill="#003830"/>
        </g>
      </g>
      <g id="Grupo_77" data-name="Grupo 77">
        <g id="Grupo_76" data-name="Grupo 76">
          <path id="Trazado_136" data-name="Trazado 136" d="M387.2,4399.333l3.339,2.094c-2.94,4.888-5.42,7.045-10.613,9.233l-1.494-3.7C382.881,4405.087,384.684,4403.518,387.2,4399.333Z" fill="#003830"/>
        </g>
      </g>
      <g id="Grupo_79" data-name="Grupo 79">
        <g id="Grupo_78" data-name="Grupo 78">
          <path id="Trazado_137" data-name="Trazado 137" d="M347.716,4399.333l-3.339,2.094c2.94,4.888,5.42,7.045,10.613,9.233l1.495-3.7C352.037,4405.087,350.234,4403.518,347.716,4399.333Z" fill="#003830"/>
        </g>
      </g>
      <g id="Grupo_80" data-name="Grupo 80">
        <path id="Trazado_138" data-name="Trazado 138" d="M360.724,4385.728a2.127,2.127,0,1,0,2.645,1.433A2.127,2.127,0,0,0,360.724,4385.728Z" fill="#003830"/>
        <circle id="Elipse_25" data-name="Elipse 25" cx="2.847" cy="2.847" r="2.847" transform="translate(368.328 4379.678) rotate(-15.765)" fill="#003830"/>
        <path id="Trazado_139" data-name="Trazado 139" d="M377.583,4381.107a2.458,2.458,0,0,1,1.24-2.3,7.461,7.461,0,0,0-1.119-1.9,2.457,2.457,0,0,1-3.712-2.48,7.469,7.469,0,0,0-2.182-.312,2.456,2.456,0,0,1-4.255,1.345,7.484,7.484,0,0,0-1.656,1.579,2.455,2.455,0,0,1-1.56,4.177,7.518,7.518,0,0,0,.2,2.2,2.456,2.456,0,0,1,2.286,3.828,7.554,7.554,0,0,0,1.839,1.215,2.456,2.456,0,0,1,4.418.608,7.5,7.5,0,0,0,.911-.205,7.576,7.576,0,0,0,1.187-.473,2.456,2.456,0,0,1,3.235-3.071,7.527,7.527,0,0,0,.786-2.06A2.462,2.462,0,0,1,377.583,4381.107Zm-4.93,3.266a2.847,2.847,0,1,1,1.917-3.54A2.848,2.848,0,0,1,372.653,4384.373Z" fill="#003830"/>
        <path id="Trazado_140" data-name="Trazado 140" d="M365.62,4387.366a1.838,1.838,0,0,1,.927-1.719,5.578,5.578,0,0,0-.836-1.419,1.836,1.836,0,0,1-2.774-1.853,5.607,5.607,0,0,0-1.63-.233,1.836,1.836,0,0,1-3.18,1,5.61,5.61,0,0,0-1.237,1.179,1.835,1.835,0,0,1-1.166,3.122,5.637,5.637,0,0,0,.151,1.641,1.835,1.835,0,0,1,1.708,2.86,5.637,5.637,0,0,0,1.374.908,1.835,1.835,0,0,1,3.3.454,5.781,5.781,0,0,0,.681-.153,5.645,5.645,0,0,0,.886-.354,1.836,1.836,0,0,1,2.418-2.294,5.678,5.678,0,0,0,.587-1.539A1.841,1.841,0,0,1,365.62,4387.366Zm-3.684,2.44a2.127,2.127,0,1,1,1.433-2.645A2.127,2.127,0,0,1,361.936,4389.806Z" fill="#003830"/>
      </g>
    </g>
  </g>
</svg>
