<svg xmlns="http://www.w3.org/2000/svg" width="727.394" height="498.679" viewBox="0 0 727.394 498.679">
  <g id="Grupo_105" data-name="Grupo 105" transform="translate(-367.606 -1584.399)">
    <rect id="Rectángulo_10" data-name="Rectángulo 10" width="690" height="102.39" rx="12" transform="translate(405 1584.399)" fill="#d8efdd"/>
    <path id="Trazado_28" data-name="Trazado 28" d="M405,1599.318q1.838,0,3.665.18t3.63.538q1.8.359,3.56.892t3.455,1.236q1.7.7,3.317,1.569t3.148,1.887q1.527,1.02,2.948,2.186t2.719,2.464q1.3,1.3,2.464,2.719t2.186,2.948q1.02,1.527,1.887,3.147t1.569,3.318q.7,1.7,1.236,3.455t.892,3.559q.357,1.8.538,3.63t.18,3.666q0,1.836-.18,3.665t-.538,3.63q-.358,1.8-.892,3.56t-1.236,3.455q-.7,1.7-1.569,3.317t-1.887,3.148q-1.02,1.527-2.186,2.947t-2.464,2.719q-1.3,1.3-2.719,2.465t-2.948,2.186q-1.527,1.02-3.148,1.886t-3.317,1.569q-1.7.7-3.455,1.237t-3.56.891q-1.8.359-3.63.539t-3.665.18q-1.838,0-3.665-.18t-3.63-.539q-1.8-.359-3.56-.891t-3.455-1.237q-1.7-.7-3.317-1.569t-3.148-1.886q-1.527-1.021-2.948-2.186t-2.719-2.465q-1.3-1.3-2.464-2.719t-2.186-2.947q-1.02-1.529-1.887-3.148t-1.569-3.317q-.7-1.7-1.236-3.455t-.892-3.56q-.357-1.8-.538-3.63t-.18-3.665q0-1.837.18-3.666t.538-3.63q.358-1.8.892-3.559t1.236-3.455q.7-1.7,1.569-3.318t1.887-3.147q1.02-1.529,2.186-2.948t2.464-2.719q1.3-1.3,2.719-2.464t2.948-2.186q1.527-1.022,3.148-1.887t3.317-1.569q1.7-.7,3.455-1.236t3.56-.892q1.8-.359,3.63-.538T405,1599.318Z" fill="#017c65"/>
    <circle id="Elipse_2" data-name="Elipse 2" cx="33.372" cy="33.372" r="33.372" transform="translate(370.455 1668.842) rotate(-87.403)" fill="#fff"/>
    <text id="Capacidad_de_evaluar_las_prácticas_usadas_hasta_ahora_y_abandonarlas_incluso_si_estas_han_sido_aparentemente_útiles._" data-name="Capacidad de evaluar las prácticas usadas hasta ahora y abandonarlas incluso si estas han sido aparentemente útiles.








" transform="translate(481.26 1613.142)" fill="#444242" font-size="16" font-family="OpenSans, Open Sans"><tspan x="0" y="17">Capacidad de evaluar las prácticas usadas hasta ahora y abandonarlas incluso </tspan><tspan x="0" y="39">si estas han sido aparentemente útiles.</tspan></text>
    <text id="_1." data-name="1." transform="translate(390.346 1655.659)" fill="#db9600" font-size="53.024" font-family="Montserrat-Bold, Montserrat" font-weight="700"><tspan x="0" y="0">1.</tspan></text>
    <rect id="Rectángulo_19" data-name="Rectángulo 19" width="690" height="102.39" rx="12" transform="translate(405 1716.495)" fill="#d8efdd"/>
    <path id="Trazado_29" data-name="Trazado 29" d="M405,1731.414q1.838,0,3.665.18t3.63.538q1.8.359,3.56.892t3.455,1.236q1.7.7,3.317,1.569t3.148,1.887q1.527,1.02,2.948,2.186t2.719,2.464q1.3,1.3,2.464,2.719t2.186,2.948q1.02,1.527,1.887,3.148t1.569,3.317q.7,1.7,1.236,3.455t.892,3.56q.357,1.8.538,3.63t.18,3.665q0,1.837-.18,3.665t-.538,3.63q-.358,1.8-.892,3.56t-1.236,3.455q-.7,1.7-1.569,3.317t-1.887,3.148q-1.02,1.527-2.186,2.948t-2.464,2.719q-1.3,1.3-2.719,2.464t-2.948,2.186q-1.527,1.02-3.148,1.887t-3.317,1.569q-1.7.7-3.455,1.236t-3.56.891q-1.8.359-3.63.539t-3.665.18q-1.838,0-3.665-.18t-3.63-.539q-1.8-.357-3.56-.891t-3.455-1.236q-1.7-.7-3.317-1.569t-3.148-1.887q-1.527-1.02-2.948-2.186t-2.719-2.464q-1.3-1.3-2.464-2.719t-2.186-2.948q-1.02-1.527-1.887-3.148t-1.569-3.317q-.7-1.7-1.236-3.455t-.892-3.56q-.357-1.8-.538-3.63t-.18-3.665q0-1.837.18-3.665t.538-3.63q.358-1.8.892-3.56t1.236-3.455q.7-1.7,1.569-3.317t1.887-3.148q1.02-1.527,2.186-2.948t2.464-2.719q1.3-1.3,2.719-2.464t2.948-2.186q1.527-1.02,3.148-1.887t3.317-1.569q1.7-.7,3.455-1.236t3.56-.892q1.8-.359,3.63-.538T405,1731.414Z" fill="#017c65"/>
    <circle id="Elipse_3" data-name="Elipse 3" cx="33.372" cy="33.372" r="33.372" transform="translate(370.455 1800.938) rotate(-87.403)" fill="#fff"/>
    <text id="Adopción_de_nuevas_prácticas_del_manejo_de_los_recursos._" data-name="Adopción de nuevas prácticas del manejo de los recursos.








" transform="translate(481.26 1753.193)" fill="#444242" font-size="16" font-family="OpenSans, Open Sans"><tspan x="0" y="17">Adopción de nuevas prácticas del manejo de los recursos.</tspan></text>
    <text id="_2." data-name="2." transform="translate(387.346 1787.755)" fill="#db9600" font-size="53.024" font-family="Montserrat-Bold, Montserrat" font-weight="700"><tspan x="0" y="0">2.</tspan></text>
    <rect id="Rectángulo_20" data-name="Rectángulo 20" width="690" height="102.39" rx="12" transform="translate(405 1848.591)" fill="#d8efdd"/>
    <path id="Trazado_30" data-name="Trazado 30" d="M405,1863.51q1.838,0,3.665.18t3.63.539q1.8.359,3.56.891t3.455,1.237q1.7.7,3.317,1.569t3.148,1.886q1.527,1.022,2.948,2.186t2.719,2.465q1.3,1.3,2.464,2.719t2.186,2.947q1.02,1.527,1.887,3.148t1.569,3.317q.7,1.7,1.236,3.455t.892,3.56q.357,1.8.538,3.63t.18,3.665q0,1.837-.18,3.665t-.538,3.63q-.358,1.8-.892,3.56t-1.236,3.455q-.7,1.7-1.569,3.318t-1.887,3.147q-1.02,1.529-2.186,2.948t-2.464,2.719q-1.3,1.3-2.719,2.464T425.775,1932q-1.527,1.022-3.148,1.887t-3.317,1.569q-1.7.7-3.455,1.236t-3.56.892q-1.8.359-3.63.538t-3.665.18q-1.838,0-3.665-.18t-3.63-.538q-1.8-.359-3.56-.892t-3.455-1.236q-1.7-.7-3.317-1.569T384.225,1932q-1.527-1.02-2.948-2.186t-2.719-2.464q-1.3-1.3-2.464-2.719t-2.186-2.948q-1.02-1.527-1.887-3.147t-1.569-3.318q-.7-1.7-1.236-3.455t-.892-3.56q-.357-1.8-.538-3.63t-.18-3.665q0-1.836.18-3.665t.538-3.63q.358-1.8.892-3.56t1.236-3.455q.7-1.7,1.569-3.317t1.887-3.148q1.02-1.527,2.186-2.947t2.464-2.719q1.3-1.3,2.719-2.465t2.948-2.186q1.527-1.02,3.148-1.886t3.317-1.569q1.7-.7,3.455-1.237t3.56-.891q1.8-.359,3.63-.539T405,1863.51Z" fill="#017c65"/>
    <circle id="Elipse_4" data-name="Elipse 4" cx="33.372" cy="33.372" r="33.372" transform="translate(370.455 1933.034) rotate(-87.403)" fill="#fff"/>
    <text id="Una_nueva_visión_del_planeta_la_sociedad_y_conceptos_de_sostenibilidad_equidad_y_sociedad._" data-name="Una nueva visión del planeta, la sociedad y conceptos de sostenibilidad, equidad y sociedad.







" transform="translate(481.26 1877.334)" fill="#444242" font-size="16" font-family="OpenSans, Open Sans"><tspan x="0" y="17">Una nueva visión del planeta, la sociedad y conceptos de sostenibilidad, </tspan><tspan x="0" y="39">equidad y sociedad.</tspan></text>
    <text id="_3." data-name="3." transform="translate(387.346 1919.851)" fill="#db9600" font-size="53.024" font-family="Montserrat-Bold, Montserrat" font-weight="700"><tspan x="0" y="0">3.</tspan></text>
    <rect id="Rectángulo_21" data-name="Rectángulo 21" width="690" height="102.39" rx="12" transform="translate(405 1980.688)" fill="#d8efdd"/>
    <path id="Trazado_31" data-name="Trazado 31" d="M405,1995.607q1.838,0,3.665.18t3.63.538q1.8.359,3.56.892t3.455,1.236q1.7.7,3.317,1.569t3.148,1.887q1.527,1.02,2.948,2.186t2.719,2.464q1.3,1.3,2.464,2.719t2.186,2.948q1.02,1.527,1.887,3.147t1.569,3.317q.7,1.7,1.236,3.456t.892,3.559q.357,1.8.538,3.63t.18,3.666q0,1.836-.18,3.665t-.538,3.63q-.358,1.8-.892,3.559t-1.236,3.456q-.7,1.7-1.569,3.317t-1.887,3.148q-1.02,1.527-2.186,2.947t-2.464,2.719q-1.3,1.3-2.719,2.465t-2.948,2.186q-1.527,1.02-3.148,1.886t-3.317,1.569q-1.7.7-3.455,1.236t-3.56.892q-1.8.359-3.63.539t-3.665.18q-1.838,0-3.665-.18t-3.63-.539q-1.8-.359-3.56-.892t-3.455-1.236q-1.7-.7-3.317-1.569t-3.148-1.886q-1.527-1.021-2.948-2.186t-2.719-2.465q-1.3-1.3-2.464-2.719t-2.186-2.947q-1.02-1.528-1.887-3.148t-1.569-3.317q-.7-1.7-1.236-3.456t-.892-3.559q-.357-1.8-.538-3.63t-.18-3.665q0-1.837.18-3.666t.538-3.63q.358-1.8.892-3.559t1.236-3.456q.7-1.7,1.569-3.317t1.887-3.147q1.02-1.528,2.186-2.948t2.464-2.719q1.3-1.3,2.719-2.464t2.948-2.186q1.527-1.022,3.148-1.887t3.317-1.569q1.7-.7,3.455-1.236t3.56-.892q1.8-.358,3.63-.538T405,1995.607Z" fill="#017c65"/>
    <circle id="Elipse_5" data-name="Elipse 5" cx="33.372" cy="33.372" r="33.372" transform="matrix(0.045, -0.999, 0.999, 0.045, 370.454, 2065.131)" fill="#fff"/>
    <text id="Debe_ser_dinámica_y_hay_que_establecer_y_evaluar_constantemente_la_ruta_para_alcanzar_los_objetivos_planteados._" data-name="Debe ser dinámica y hay que establecer y evaluar constantemente la ruta para alcanzar los objetivos planteados.








" transform="translate(481.26 2009.43)" fill="#444242" font-size="16" font-family="OpenSans, Open Sans"><tspan x="0" y="17">Debe ser dinámica y hay que establecer y evaluar constantemente la ruta para </tspan><tspan x="0" y="39">alcanzar los objetivos planteados.</tspan></text>
    <text id="_4." data-name="4." transform="translate(381.346 2051.948)" fill="#db9600" font-size="53.024" font-family="Montserrat-Bold, Montserrat" font-weight="700"><tspan x="0" y="0">4.</tspan></text>
  </g>
</svg>
