<svg xmlns="http://www.w3.org/2000/svg" width="346.297" height="628.66" viewBox="0 0 346.297 628.66">
  <g id="Grupo_103" data-name="Grupo 103" transform="translate(-177.929 -2550.243)">
    <path id="Trazado_39" data-name="Trazado 39" d="M177.929,3146.205V2647.548a35.415,35.415,0,0,1,.184-3.625,32.649,32.649,0,0,1,.542-3.487,27.49,27.49,0,0,1,.881-3.213,21.179,21.179,0,0,1,1.185-2.816,15.158,15.158,0,0,1,1.444-2.31,10.081,10.081,0,0,1,1.648-1.718,6.745,6.745,0,0,1,1.788-1.058,5.13,5.13,0,0,1,1.86-.357H514.7a5.121,5.121,0,0,1,1.859.357,6.745,6.745,0,0,1,1.788,1.058,10.043,10.043,0,0,1,1.648,1.718,15.078,15.078,0,0,1,1.444,2.31,21.316,21.316,0,0,1,1.186,2.816,27.692,27.692,0,0,1,.88,3.213,32.656,32.656,0,0,1,.543,3.487,35.718,35.718,0,0,1,.183,3.625v498.657a35.759,35.759,0,0,1-.183,3.626,32.672,32.672,0,0,1-.543,3.486,27.609,27.609,0,0,1-.88,3.212,21.275,21.275,0,0,1-1.186,2.817,15.137,15.137,0,0,1-1.444,2.311,10.071,10.071,0,0,1-1.648,1.717,6.7,6.7,0,0,1-1.788,1.057,5.1,5.1,0,0,1-1.859.358H187.461a5.111,5.111,0,0,1-1.86-.358,6.7,6.7,0,0,1-1.788-1.057,10.109,10.109,0,0,1-1.648-1.717,15.217,15.217,0,0,1-1.444-2.311,21.139,21.139,0,0,1-1.185-2.817,27.407,27.407,0,0,1-.881-3.212,32.664,32.664,0,0,1-.542-3.486A35.455,35.455,0,0,1,177.929,3146.205Z" fill="#f2f2f2"/>
    <path id="Trazado_40" data-name="Trazado 40" d="M354.185,2550.243q3.746,0,7.471.367t7.4,1.1q3.674.731,7.256,1.817t7.043,2.52q3.459,1.433,6.762,3.2t6.416,3.845q3.112,2.081,6.008,4.456t5.542,5.024q2.647,2.647,5.023,5.542t4.456,6.008q2.08,3.114,3.846,6.416t3.2,6.762q1.432,3.459,2.52,7.042t1.817,7.256q.73,3.673,1.1,7.4t.367,7.471q0,3.745-.367,7.471t-1.1,7.4q-.73,3.672-1.817,7.255t-2.52,7.043q-1.433,3.459-3.2,6.762t-3.846,6.416q-2.08,3.112-4.456,6.008t-5.023,5.542q-2.648,2.649-5.542,5.023t-6.008,4.456q-3.114,2.08-6.416,3.846t-6.762,3.2q-3.459,1.433-7.043,2.52t-7.256,1.817q-3.672.732-7.4,1.1t-7.471.367q-3.744,0-7.471-.367t-7.4-1.1q-3.672-.731-7.256-1.817t-7.042-2.52q-3.461-1.434-6.762-3.2t-6.416-3.846q-3.114-2.079-6.008-4.456t-5.542-5.023q-2.649-2.648-5.024-5.542t-4.456-6.008q-2.079-3.114-3.845-6.416t-3.2-6.762q-1.432-3.459-2.52-7.043t-1.818-7.255q-.73-3.673-1.1-7.4t-.367-7.471q0-3.744.367-7.471t1.1-7.4q.73-3.672,1.818-7.256t2.52-7.042q1.433-3.46,3.2-6.762t3.845-6.416q2.081-3.114,4.456-6.008t5.024-5.542q2.647-2.649,5.542-5.024t6.008-4.456q3.114-2.079,6.416-3.845t6.762-3.2q3.459-1.434,7.042-2.52t7.256-1.817q3.674-.732,7.4-1.1T354.185,2550.243Z" fill="#035e4f"/>
    <circle id="Elipse_6" data-name="Elipse 6" cx="71.597" cy="71.597" r="71.597" transform="translate(283.209 2555.489)" fill="#fff"/>
    <line id="Línea_16" data-name="Línea 16" x2="310.319" transform="translate(196.953 2759.334)" fill="none" stroke="#707070" stroke-width="2"/>
    <text id="Rige_las_naciones_y_las_regiones_ella_tiene_dos_subniveles_uno_amplio_que_es_el_internacional_ya_que_vivimos_en_un_mundo_global_y_las_decisiones_que_se_toman_en_un_país_obedecen_a_una_regulación_y_lógica_internacional_en_la_que_intervienen_organismos_tal" data-name="Rige las naciones y las regiones, ella tiene dos subniveles; uno amplio que es el internacional ya que vivimos en un mundo global y las decisiones que se toman en un país obedecen a una regulación y lógica internacional en la que intervienen organismos tal" transform="translate(196 2776.903)" fill="#444242" font-size="16" font-family="OpenSans, Open Sans"><tspan x="0" y="17">Rige las naciones y las regiones, ella tiene </tspan><tspan x="0" y="39">dos subniveles; uno amplio que es el </tspan><tspan x="0" y="61">internacional ya que vivimos en un </tspan><tspan x="0" y="83">mundo global y las decisiones que se </tspan><tspan x="0" y="105">toman en un país obedecen a una </tspan><tspan x="0" y="127">regulación y lógica internacional en la que </tspan><tspan x="0" y="149">intervienen organismos tales que el </tspan><tspan x="0" y="171">Banco Internacional, Fondo Monetario </tspan><tspan x="0" y="193">Internacional y la Organización para la </tspan><tspan x="0" y="215">Cooperación y el Desarrollo económico. </tspan><tspan x="0" y="237">El segundo nivel sería el nacional y en el </tspan><tspan x="0" y="259">caso particular de Colombia es muy </tspan><tspan x="0" y="281">importante, ya que somos un país </tspan><tspan x="0" y="303">centralizado y los organismos como </tspan><tspan x="0" y="325">Colciencias determinan la ciencia y la </tspan><tspan x="0" y="347">tecnología a nivel nacional.</tspan><tspan x="0" y="369"></tspan><tspan x="0" y="391"></tspan></text>
    <circle id="Elipse_7" data-name="Elipse 7" cx="65.13" cy="65.13" r="65.13" transform="translate(289.676 2561.955)" fill="#be1c25"/>
    <g id="Grupo_29" data-name="Grupo 29">
      <path id="Trazado_41" data-name="Trazado 41" d="M399.006,2620.387a3.752,3.752,0,1,0-3.753-3.752,3.749,3.749,0,0,0,3.753,3.752" fill="#fff"/>
      <path id="Trazado_42" data-name="Trazado 42" d="M403.385,2621.834a2.212,2.212,0,0,0-.285-.023h-8.2a2.037,2.037,0,0,0-.275.023,5,5,0,0,0-4.547,4.982v10.4a1.455,1.455,0,0,0,2.909,0v-8.93c0-.335.093-.789.709-.789.42,0,.511.449.524.735V2655a2.089,2.089,0,0,0,4.178,0v-15.426a.576.576,0,0,1,.605-.613h0a.567.567,0,0,1,.594.613V2655a2.091,2.091,0,0,0,4.182,0V2628.23c.016-.286.1-.735.526-.735.613,0,.71.454.71.789v8.93a1.454,1.454,0,0,0,2.907,0v-10.4a5,5,0,0,0-4.539-4.982" fill="#fff"/>
      <path id="Trazado_43" data-name="Trazado 43" d="M369.4,2622.159a3.555,3.555,0,1,0-3.553-3.552,3.549,3.549,0,0,0,3.553,3.552" fill="#fff"/>
      <path id="Trazado_44" data-name="Trazado 44" d="M373.623,2628.681c.464-.135.6.484.6.484l2.379,8.022s.454,1.72,1.938,1.28.969-2.2.969-2.2l-2.952-9.613s-1.057-2.779-3.392-2.779h-7.526c-2.339,0-3.4,2.779-3.4,2.779l-2.952,9.613s-.525,1.762.967,2.2,1.94-1.28,1.94-1.28l2.381-8.022s.13-.619.594-.484.289.794.289.794l-4.144,15.033h3.855v10.769a1.849,1.849,0,0,0,3.7,0v-10.769h1.055v10.769a1.851,1.851,0,0,0,3.7,0v-10.769h3.852l-4.14-15.033s-.175-.661.288-.794" fill="#fff"/>
      <path id="Trazado_45" data-name="Trazado 45" d="M348.12,2622.159a3.555,3.555,0,1,0-3.552-3.552,3.55,3.55,0,0,0,3.552,3.552" fill="#fff"/>
      <path id="Trazado_46" data-name="Trazado 46" d="M355.273,2626.652s-1.051-2.779-3.389-2.779h-7.528c-2.336,0-3.394,2.779-3.394,2.779l-2.951,9.614a2.677,2.677,0,0,0-.088.593,1.056,1.056,0,0,0-.837-.427,1.072,1.072,0,0,0-.913.505l-.011-.005c-.088.074-1.467,2.531-1.924,2.987a1.19,1.19,0,0,1-.911.431h-3.583a1.192,1.192,0,0,1-.913-.431c-.461-.456-1.836-2.913-1.924-2.987l-.009.005a1.084,1.084,0,0,0-.914-.505,1.062,1.062,0,0,0-.867.473v-10.089a5,5,0,0,0-4.545-4.983,2.073,2.073,0,0,0-.275-.022h-8.2a2.209,2.209,0,0,0-.287.022,5,5,0,0,0-4.541,4.983v10.4a1.451,1.451,0,0,0,.782,1.281.559.559,0,0,0-.052.129l-3.331,17.657a.549.549,0,0,0,.437.641.48.48,0,0,0,.1.01.55.55,0,0,0,.54-.448l3.332-17.656a.592.592,0,0,0,0-.21,1.451,1.451,0,0,0,1.1-1.4v-8.93c0-.335.1-.79.709-.79.423,0,.511.449.53.735V2655a2.087,2.087,0,1,0,4.175,0v-15.426a.572.572,0,0,1,.6-.613h0a.572.572,0,0,1,.6.613V2655a2.089,2.089,0,0,0,4.179,0v-26.769c.011-.286.108-.735.526-.735.615,0,.708.455.708.79v8.93a1.451,1.451,0,0,0,2.763.624c.021.08.042.141.042.141l2.981,5.4a1.907,1.907,0,0,1,.183.711v1.061l-1.573,5.776h1.573v4.747h.005a1.456,1.456,0,1,0,2.912,0V2651.1a1.051,1.051,0,0,1,0-.175h.877a.843.843,0,0,1,0,.175v4.572a1.46,1.46,0,0,0,2.919,0v-4.747h1.578l-1.578-5.809v-1.028a1.916,1.916,0,0,1,.182-.711l2.755-4.98s.176-.375.272-.647a1.342,1.342,0,0,0,.879.72c1.487.44,1.939-1.28,1.939-1.28l2.381-8.023s.13-.617.593-.483.29.792.29.792l-4.145,15.035h3.855v10.769a1.851,1.851,0,0,0,3.7,0v-10.769h1.052v10.769a1.85,1.85,0,0,0,3.7,0v-10.769H356.2l-4.14-15.035s-.175-.659.285-.792.6.483.6.483l2.379,8.023s.453,1.72,1.939,1.28.968-2.2.968-2.2Z" fill="#fff"/>
      <path id="Trazado_47" data-name="Trazado 47" d="M384.876,2638.487a2.957,2.957,0,1,0-2.957-2.96,2.956,2.956,0,0,0,2.957,2.96" fill="#fff"/>
      <path id="Trazado_48" data-name="Trazado 48" d="M391.884,2646.894c-.035-.114-1.883-4.642-2.1-5.278-.666-1.946-1.88-1.93-3.048-1.962s-1.869,0-1.869,0-.746-.031-2.29.016-2.027.838-3.726,5.21c-.241.63-1.064,2.667-1.075,2.789l.011,0a1.026,1.026,0,0,0,.43,1.4.989.989,0,0,0,1.269-.413l1.607-5.125s.278-.344.278.01v12.068h.009a1.516,1.516,0,1,0,3.032,0v-4.763s-.087-.673.455-.673.46.673.46.673v4.763a1.519,1.519,0,0,0,3.038,0v-12.068c0-.354.188-.1.188-.1l1.261,3.509a8.576,8.576,0,0,0,.714,1.639,1.124,1.124,0,0,0,1.466-.607,1.1,1.1,0,0,0-.12-1.079Z" fill="#fff"/>
      <path id="Trazado_49" data-name="Trazado 49" d="M316.192,2620.387a3.752,3.752,0,1,0-3.747-3.752,3.755,3.755,0,0,0,3.747,3.752" fill="#fff"/>
      <path id="Trazado_50" data-name="Trazado 50" d="M331.533,2638.487a2.957,2.957,0,1,0-2.955-2.96,2.955,2.955,0,0,0,2.955,2.96" fill="#fff"/>
    </g>
    <path id="Trazado_51" data-name="Trazado 51" d="M350.985,2578.961h.042v20.915h4.592v-27.322h-3.668l-4.23,4.956v4.794h.041Z" fill="#fff"/>
    <text id="La_macro_" data-name="La macro " transform="translate(354.609 2740.572)" fill="#444242" font-size="18" font-family="Montserrat-Bold, Montserrat" font-weight="700"><tspan x="-46.197" y="0">La macro </tspan></text>
    <g id="Grupo_39" data-name="Grupo 39">
      <ellipse id="Elipse_10" data-name="Elipse 10" cx="65.13" cy="65.352" rx="65.13" ry="65.352" transform="translate(289.676 2561.512)" fill="#d8efdd"/>
      <path id="Trazado_56" data-name="Trazado 56" d="M389.745,2605.336a5.032,5.032,0,0,0-6.222-.953,5.1,5.1,0,0,0-1.589,1.459l-.25-.146.057-.1-.375-.217.057-.1-.379-.217.058-.1-.375-.217.061-.1-.379-.217.057-.1-1.728-1-.29.5-.227-.129.058-.1-.376-.217.058-.1-.375-.217.057-.1-.375-.217.057-.1-.375-.218.057-.1-1.731-1-.291.509-.226-.132.061-.1-.379-.217.057-.1-.375-.217.061-.1-.379-.217.058-.1-.376-.221.058-.1-1.728-1-.294.5-.227-.129.061-.1-.375-.217.057-.1-.378-.217.061-.1-.379-.217.061-.1-.379-.217.061-.1-1.3-.749c-.034-.034-.071-.072-.108-.106-.1-.112-10.063-10.107-10.175-10.209a5.047,5.047,0,1,0-7.087,7.176c.1.116.21.221.318.322s.206.218.315.316.209.22.321.322.209.217.318.319a4,4,0,0,0,.318.316c.1.115.209.22.317.322s.21.217.318.319a3.8,3.8,0,0,0,.318.315,4.411,4.411,0,0,0,.318.323c.1.112.209.217.317.319.041.044.085.085.129.129h-.974v1.272l-.169-.3-.1.062-.217-.377-.1.058-.216-.377-.1.058-.216-.38-.1.061-.216-.38-.1.061-.216-.377-.1.058-.22-.38-.1.061-.22-.38-.1.061-.22-.38-.1.061-.22-.38-.1.061-.22-.38-.1.061-.219-.38-.1.061-.216-.38-.1.061-.22-.38-.1.062-.216-.381-.1.062-.217-.38-.1.061-.217-.38-.1.061-.217-.38-1.731,1,1.052,1.825.1-.061.216.38.1-.057.216.376.1-.057.216.376.1-.061.216.38.1-.058.216.377.1-.058.217.377.1-.058.217.377.1-.058.217.377.1-.058.216.377.1-.058.216.377.1-.058.216.377.1-.058.216.377.1-.058.217.376.1-.057.217.376.1-.057.217.376.1-.057.216.376.1-.057.216.376.1-.058.216.377.1-.058.216.377.1-.058.115.2v1.431h.318v.319h.318v.319h.318v.319h.318v.319h.318v.319h.317v.319h.318v.318h.318v.319h.318v.323h.321v.315h.315v.319h.321v.323h.317v.315h.318v.319h.318v.322h.318v.319h.318v.316h.318v.322h.318v.319h.317v.16c-.044-.014-.084-.028-.125-.038v-.03h-.118c-.067-.021-.135-.034-.2-.055v-.264h-.318v-.319h-.318v-.319h-.318v-.319H358.4v-.322h-.318v-.316h-.318v-.319h-.317v-.322h-.318v-.316h-.318v-.319h-.318v-.322h-.318v-.319h-.318v-.319h-.818l-.149-.254-.1.061-.22-.38-.1.061-.219-.38-.1.061-.216-.38-.1.058-.216-.377-.1.058-.216-.377-.1.058-.217-.377-.1.058-.217-.377-.1.058-.216-.377-.1.058-.216-.376-.1.057-.217-.376-.1.057-.217-.376-.1.057-.217-.376-.1.057-.216-.376-.1.057-.216-.376-.1.058-.216-.377-.1.058-.216-.377-.1.058-.217-.377-.1.058-.217-.377-.1.058-.216-.377-.1.058-.216-.377-.1.058-.216-.377-.1.058-.216-.377-.1.055-.217-.374-.1.058-.217-.376-.1.058-.217-.377-.1.054-.216-.373-.1.058-.216-.38-.1.061-.216-.38-.1.057-.216-.373-.1.054-.22-.376-.1.057-.217-.376-.1.058-.22-.377-1.728,1,1.049,1.826.1-.058.217.376.1-.057.216.376.1-.057.217.376.1-.058.217.377.1-.058.217.377.1-.058.216.377.1-.058.216.377.1-.058.22.377.1-.058.216.377.1-.058.22.377.1-.058.22.377.1-.058.22.377.1-.058.22.376.1-.057.22.376.1-.057.22.38.1-.061.216.38.1-.061.216.38.1-.061.216.376.1-.058.216.377.1-.058.217.38.1-.061.217.38.1-.061.216.38.1-.061.216.38.1-.061.216.38.1-.061.216.38.1-.061.217.38.1-.061.216.38.1-.061.216.38.1-.061.216.379.1-.06.216.379.1-.06.217.379.1-.057.217.376.1-.061.217.38.1-.057.216.376.1-.058.149.262c-.1,0-.193-.017-.291-.017-.575,0-1.143.03-1.7.084l-.081-.135-.1.058-.216-.38-.1.057-.216-.373-.1.054-.216-.376-.1.057-.217-.376-.1.057-.217-.376-.1.058-.216-.377-.1.058-.216-.377-.1.058-.216-.377-.1.058-.216-.377-.1.058-.217-.377-.1.058-.217-.377-.1.058-.217-.377-.1.058-.22-.377-.1.058-.216-.376-.1.057-.216-.376-.1.058-.219-.377-.1.058-.22-.377-.1.058-.217-.377-.1.058-.22-.377-.1.058-.22-.377-.1.058-.216-.377-.1.058-.216-.377-.1.058-.216-.38-.1.061-.216-.377-.1.058-.217-.38-.1.061-.217-.38-.1.061-.216-.38-.1.061-.216-.38-.1.061-.216-.38-.1.062-.216-.381-.1.062-.217-.38-.1.061-.217-.38-.1.061-.217-.38-.1.061-.216-.38-.1.061-.216-.38-.1.061-.216-.38-.1.058-.216-.377-1.731,1,1.051,1.826.1-.058.216.377.1-.058.22.377.1-.058.22.376.1-.057.22.376.1-.057.22.376.1-.057.216.376.1-.057.22.376.1-.058.216.377.1-.058.216.377.1-.058.217.377.1-.058.217.377.1-.058.217.377.1-.058.216.377.1-.058.216.377.1-.058.216.377.1-.058.216.377.1-.058.217.38.1-.062.217.377.1-.058.217.377.1-.054.216.376.1-.061.216.377.1-.054.216.373.1-.054.216.376.1-.057.22.376.1-.058.217.377.1-.058.216.377.1-.058.219.377.1-.058.22.377.1-.058.22.377.1-.058.216.377.1-.058.071.122c-.548.146-1.082.319-1.609.512l-.071-.125-.1.061-.216-.38-.1.061-.216-.38-.1.061-.22-.38-.1.061-.217-.38-.1.061-.217-.38-.1.062-.216-.381-.1.062-.216-.381-.1.062-.216-.38-.1.061-.216-.38-.1.057-.217-.376-.1.061-.217-.38-.1.061-.217-.38-.1.058-.216-.377-.1.058-.216-.377-.1.058-.216-.377-.1.058-.216-.377-.1.058-.217-.377-.1.058-.217-.377-.1.058-.217-.377-.1.058-.216-.377-.1.058-.22-.377-.1.058-.22-.376-.1.057-.22-.376-.1.057-.22-.376-.1.057-.22-.376-.1.057-.22-.376-.1.057-.219-.376-.1.058-.216-.377-.1.058-.216-.377-.1.058-.216-.377-.1.055-.217-.374-.1.058-.217-.376-.1.057-.217-.376-.1.054-.216-.373-1.732,1,1.052,1.825.1-.058.217.377.1-.058.217.376.1-.057.216.376.1-.057.216.376.1-.057.216.376.1-.057.216.376.1-.057.217.376.1-.058.217.377.1-.058.22.377.1-.058.216.38.1-.061.22.377.1-.058.22.38.1-.061.219.38.1-.061.22.38.1-.061.22.38.1-.061.22.38.1-.061.217.38.1-.061.217.38.1-.061.216.38.1-.061.216.38.1-.061.216.38.1-.062.217.381.1-.062.217.381.1-.062.216.38.1-.061.216.38.1-.061.216.38.1-.061.216.38.1-.058.217.377.1-.058.193.336q-.675.372-1.308.8l-.176-.3-.1.054-.216-.373-.1.054-.217-.373-.1.057-.217-.38-.1.058-.217-.377-.1.058-.22-.377-.1.058-.216-.377-.1.058-.22-.376-.1.057-.216-.376-.1.057-.217-.376-.1.057-.22-.376-.1.058-.22-.377-.1.058-.22-.377-.1.058-.22-.377-.1.058-.22-.377-.1.058-.216-.377-.1.058-.216-.377-.1.058-.216-.376-.1.057-.216-.376-.1.057-.216-.376-.1.057-.216-.376-.1.057-.216-.376-.1.058-.216-.381-.1.062-.217-.377-.1.058-.217-.377-.1.058-.217-.38-.1.061-.216-.377-.1.058-.216-.377-.1.058-.216-.38-.1.061-.216-.38-.1.061-.217-.38-.1.061-.217-.38-.1.061-.217-.38-.1.061-.216-.38-1.732,1,1.048,1.825.1-.058.22.377.1-.058.216.377.1-.058.22.377.1-.058.216.377.1-.058.22.377.1-.058.22.377.1-.058.216.376.1-.057.22.376.1-.057.217.376.1-.057.216.376.1-.057.216.376.1-.058.216.377.1-.058.216.377.1-.058.217.377.1-.058.217.377.1-.058.217.376.1-.057.216.38.1-.061.216.376.1-.054.217.373.1-.054.217.377.1-.061.216.38.1-.058.216.377.1-.058.216.376.1-.057.216.376.1-.057.217.373.1-.054.217.376.1-.057.217.376.1-.057.216.376.1-.058.216.377.1-.058.159.275q-.549.484-1.055,1.008l-.078-.133-.1.058-.217-.38-.1.061-.217-.38-.1.061-.216-.38-.1.061-.216-.38-.1.062-.216-.38-.1.061-.216-.38-.1.061-.217-.38-.1.061-.217-.38-.1.061-.217-.38-.1.061-.216-.38-.1.061-.216-.38-.1.061-.216-.38-.1.058-.216-.377-.1.058-.217-.377-.1.058-.217-.377-.1.058-.22-.377-.1.058-.216-.377-.1.058-.22-.377-.1.058-.22-.376-.1.057-.219-.376-.1.057-.22-.376-.1.057-.22-.376-.1.057-.22-.376-.1.057-.219-.376-.1.058-.219-.377-.1.058-.219-.377-.1.058-.216-.377-.1.058-.217-.377-.1.058-.217-.376-.1.057-.217-.376-.1.057-.216-.376-.1.054-.216-.373-.1.057-.216-.376-.1.057-.216-.376-.1.054-.217-.373-1.731,1,1.052,1.825.1-.058.216.377.1-.058.216.377.1-.058.216.38.1-.061.216.377.1-.058.217.377.1-.058.217.38.1-.061.216.38.1-.061.216.376.1-.057.216.38.1-.061.216.38.1-.061.217.38.1-.062.217.381.1-.062.217.38.1-.061.216.38.1-.061.216.38.1-.061.216.38.1-.061.216.38.1-.061.217.38.1-.058.216.377.1-.061.22.38.1-.061.22.38.1-.058.217.377.1-.061.22.38.1-.061.22.379.1-.057.22.376.1-.057.217.376.1-.057.217.376.1-.058.219.377.1-.058.216.377.1-.058.216.377.1-.058.216.377.1-.058.217.377.1-.058.088.153c-.254.346-.49.7-.72,1.069l-.1-.058.058-.1-.376-.217.058-.1-.375-.217.057-.1-.375-.217.057-.1-1.3-.749c-.037-.034-.071-.072-.108-.106-.1-.108-.206-.217-.318-.319s-.206-.217-.318-.318-.206-.218-.317-.316-.207-.221-.318-.322-.21-.217-.318-.319-.21-.217-.318-.319-.21-.217-.318-.319-.21-.217-.318-.319-.206-.217-.318-.319-.209-.217-.317-.319-.21-.217-.318-.319-.21-.217-.322-.319-.206-.217-.314-.319-.209-.217-.318-.319-.209-.217-.318-.319-.209-.217-.317-.318-.21-.217-.318-.319-.21-.217-.318-.319-.21-.217-.321-.319-.206-.221-.315-.319-.209-.217-.318-.319-.209-.22-.321-.322-.206-.214-.314-.316-.21-.22-.321-.322-.207-.214-.315-.316a4.393,4.393,0,0,0-.321-.318c-.1-.112-.206-.221-.315-.319s-.209-.221-.321-.323-.206-.213-.315-.315-.209-.221-.32-.323-.207-.217-.315-.315-.21-.221-.321-.323a5.048,5.048,0,1,0-7.091,7.176c.1.116.213.224.325.326s.2.214.311.312c.105.116.21.221.321.322a4.132,4.132,0,0,0,.318.316,3.163,3.163,0,0,0,.321.322c.1.112.2.217.315.319s.206.217.314.316c.1.115.21.22.321.322s.21.221.322.322.206.218.314.316c.041.044.085.088.129.132h-.974v2h.317v.322h.322v.319h.318v.316h.317v.322h.318v.319h.318v.319h.318v.319h.318v.319h.318v.319h.318v.319h.317v.318h.318v.319h.318v.319h.318v.319h.318v.319h.318v.319h.317v.319h.318v.319h.318v.322h.318v.316h.318v.319h.317v.322h.318v.319h.318v.316h.318v.322h.318v.319h.318v.315h.317v.322h.318v.319h.318v.319h.318v.319h.318v.319h.318v.319h.318v.319h.317v.319h.318v.319h.318v.319h.318v.319h.321v.319h.318v.319h.318v.318h.318v.319h.318v.319h.317v.319h.318v.319h.318v.319h.318v.319h.318v.319h.317v.319h.318v.319h.149c.014.034.031.061.044.091h-.318v-.319h-.318v-.319h-.317v-.319h-.318v-.318h-.318v-.319H336.7v-.319h-.318v-.319h-.318v-.319h-.317v-.319h-.318v-.322h-.318v-.316h-.318v-.322h-.318v-.319h-.318v-.319h-.318v-.319h-.317v-.319H333.2v-.319h-.318v-.319h-.318v-.319h-.321v-.319h-.318v-.318h-.318v-.319h-.317v-.319h-.318v-.319h-.318v-.319h-.318v-.319h-.318v-.319H329.7v-.319h-.318v-.319h-.317v-.319h-.318v-.319h-.318v-.319h-.318v-.319H327.8v-.318h-.318v-.319h-.318v-.319h-.317v-.319h-.318v-.319h-.318v-.319h-.318v-.319h-.318v-.319h-.318v-.319h-.317v-.319h-.318v-.319h-2.1v2h.317v.319h.322v.322h.318v.316h.317v.322h.318v.319h.318v.316h.318v.322h.318v.319h.318v.319h.318v.319h.317v.319h.318v.319h.318V2626h.318v.318h.318v.319h.318v.319h.317v.319h.318v.319h.318v.319h.318v.319h.318v.319h.317v.319h.318v.319h.318v.319h.318v.319h.318v.322h.318v.319h.317v.319h.318v.319h.318v.319h.318v.318h.318v.319h.318v.319h.318v.319h.317v.319h.318v.319h.318v.319h.318v.319h.321v.319h.318v.319h.318v.319h.318v.319h.318v.319h.317v.319h.318v.176l-.125.071v-.159h-.318v-.316h-.318v-.319h-.317v-.322h-.318v-.316h-.318v-.318h-.318v-.323h-.318v-.319h-.318v-.319h-.318v-.319h-.317v-.319H333.2v-.318h-.318v-.319h-.318v-.319h-.321v-.319h-.318v-.319h-.318v-.319h-.317v-.319h-.318v-.319h-.318v-.319h-.318v-.319h-.318v-.319H329.7v-.319h-.318v-.319h-.317v-.319h-.318V2628h-.318v-.319h-.318v-.319H327.8v-.319h-.318v-.319h-.318v-.319h-.317v-.319h-.318v-.319h-.318v-.319h-.318v-.319h-.318v-.318h-.318v-.319h-.317v-.319h-.318v-.319h-2.1v2h.317v.322h.322v.319h.318v.315h.317v.322h.318v.319h.318v.319h.318v.319h.318v.319h.318v.319h.318v.319h.317v.319h.318v.319h.318v.319h.318v.319h.318v.319h.318v.319h.317v.319h.318v.318h.318v.319h.318v.319h.318v.319h.317v.319h.318v.319h.318v.322h.318v.319h.318v.316h.318v.322h.317v.319h.318v.319h.318v.319h.318v.319h.318v.319h.318v.319h.318v.319h.317v.318h.318v.319h.318v.19l-.122.075v-.176h-.318v-.319h-.317v-.319H333.2v-.319h-.318v-.319h-.318v-.319h-.321v-.319h-.318v-.319h-.318v-.319h-.317v-.319h-.318v-.319h-.318v-.319h-.318v-.319h-.318v-.318H329.7v-.319h-.318v-.319h-.317v-.319h-.318v-.319h-.318v-.319h-.318v-.319H327.8v-.319h-.318v-.319h-.318v-.319h-.317v-.318h-.318v-.319h-.318v-.319h-.318v-.319h-.318v-.319h-.318v-.319h-.317v-.319h-.318v-.319h-2.1v2h.317v.318h.322v.319h.318v.323h.317v.315h.318v.319h.318v.323h.318v.315h.318v.322h.318v.319h.318v.319h.317v.319h.318v.319h.318v.319h.318v.319h.318v.319h.318v.319h.317v.319h.318v.319h.318v.319h.318v.319h.318v.319h.317v.318h.318v.319h.318v.322h.318v.316h.318v.319h.318v.322h.317v.319h.318v.316h.318v.322h.318v.319h.318v.319h.318v.319h.318v.319h.317v.319h.318v.319h.318v.319h.318V2642h.321v.319h.318v.319h.318v.319h.318v.319h.318v.319h.317v.319h.318v.319h.318v.319h.318v.319h.318v.319h.317v.318h.318v.319h.318v.319h.318v.319h.318v.319h.318v.319H340v.319h.317v.319h.318v.319h.318v.319h.318v.319h.318v.319h.318v.156l-.125-.065h-.318v-.319h-.318v-.319h-.318v-.318h-.318v-.319H340.2v-.319h-.317v-.319h-.318v-.319h-.318v-.319h-.318v-.319h-.318v-.319h-.318v-.319h-.318v-.319h-.317v-.319h-.318v-.319h-.318v-.319H336.7V2644h-.318v-.318h-.318v-.319h-.317v-.319h-.318v-.322h-.318v-.319h-.318v-.319h-.318v-.319h-.318v-.319h-.318v-.319h-.317v-.319H333.2v-.319h-.318v-.319h-.318v-.319h-.321v-.319h-.318v-.319h-.318v-.319h-.317v-.319h-.318v-.318h-.318v-.319h-.318v-.319h-.318v-.319H329.7v-.319h-.318v-.319h-.317v-.319h-.318v-.319h-.318v-.319h-.318v-.319H327.8v-.319h-.318v-.319h-.318v-.319h-.317v-.318h-.318v-.319h-.318v-.319h-.318v-.319h-.318v-.319h-.318v-.319h-.317v-.319h-.318v-.319h-2.1v2.005h.317v.316h.322v.319h.318v.322h.317v.315h.318v.319h.318v.323h.318v.319h.318v.319h.318v.319h.318v.319h.317v.318h.318v.319h.318v.319h.318v.319h.318v.319h.318v.319h.317v.319h.318v.319h.318v.319h.318v.319h.318v.224l-.051.027.091.159h-.165v-.319h-.318v-.319h-.318v-.319h-.318v-.319H327.8v-.318h-.318v-.319h-.318v-.319h-.317v-.319h-.318v-.319h-.318v-.319h-.318v-.319h-.318v-.319h-.318v-.319h-.317v-.319h-.318v-.318h-2.1v2h.317v.319h.322v.319h.318v.319h.317v.319h.318v.319h.318v.322h.318v.241a4.991,4.991,0,0,0-3.7.536,5.063,5.063,0,0,0-1.843,6.908,4.953,4.953,0,0,0,.981,1.218c.1.112.209.22.321.322s.206.217.314.319c.061.061,23.013,23.094,42.185,42.331a65.252,65.252,0,0,0,56.4-56.594C409.8,2625.452,389.832,2605.415,389.745,2605.336Zm-55.149,32.52-.044.027-.125-.217h.169Zm.321.319-.047.027-.125-.217h.172Zm.318.319-.047.027-.125-.217h.172Zm.318.319-.047.027-.125-.217h.172Zm.318.319-.048.027-.125-.217h.173Zm.318.319-.048.027-.125-.217h.173Zm.317.319-.047.027-.125-.217h.172Zm.318.319-.047.027-.125-.217h.172Zm.318.319-.047.027-.126-.217h.173Zm.318.318-.047.028-.126-.217h.173Zm.318.319-.047.028-.126-.217h.173Zm.317.319-.047.028-.125-.217h.172Zm.318.323-.047.024-.125-.218h.172Zm.318.315-.047.027-.125-.217h.172Zm-.125-7.8v-.315c.048.108.105.21.152.315Zm.443,8.119-.047.027-.125-.217h.172Zm.318.322-.048.024-.125-.217h.173Zm.318.319-.048.024-.125-.217h.173Zm.318.316-.048.027-.125-.217H340Zm.317.322-.044.027-.128-.22h.172Zm.318.319-.044.027-.128-.22h.172Zm.318.319-.047.027-.125-.22h.172Zm.318.319-.044.027-.128-.22h.172Zm.318.319-.044.027-.129-.221h.173Zm-16.531-4.74a.145.145,0,0,1-.038-.013h.038Zm4.324.855v-.054l.031.054Zm12.481,4.231-.129-.221h.173v.194Zm.362.292-.044.027-.129-.221h.173Zm.317.319-.044.027-.128-.221h.172Zm.318.319-.044.027-.128-.221h.172Zm.318.319-.044.027-.128-.221h.172Zm.321.319-.047.027-.125-.218h.172Zm.318.318-.047.028-.126-.218h.173Zm.315.319-.044.027-.129-.22h.173Zm.321.319-.047.027-.126-.217h.173Zm.317.319-.047.027-.125-.217h.172Zm.318.319-.047.027-.125-.217h.172Zm.318.319-.047.027-.125-.217h.172Zm.318.319-.047.027-.125-.217h.172Zm.318.322-.173-.193h.173Z" fill="#a3c6a8"/>
      <g id="Grupo_38" data-name="Grupo 38">
        <g id="Grupo_35" data-name="Grupo 35">
          <g id="Grupo_30" data-name="Grupo 30">
            <rect id="Rectángulo_23" data-name="Rectángulo 23" width="2.103" height="1.052" transform="translate(353.754 2625.812)" fill="#fff"/>
            <path id="Trazado_57" data-name="Trazado 57" d="M355.857,2623.8h-2.1v-2h2.1Zm0-4.011h-2.1v-2h2.1Zm0-4.01h-2.1v-2h2.1Zm0-4.01h-2.1v-2h2.1Zm0-4.01h-2.1v-2.006h2.1Zm0-4.011h-2.1v-2h2.1Zm0-4.01h-2.1v-2h2.1Z" fill="#fff"/>
          </g>
          <g id="Grupo_31" data-name="Grupo 31">
            <rect id="Rectángulo_24" data-name="Rectángulo 24" width="2.103" height="1.055" transform="translate(353.754 2626.864)" fill="#fff"/>
            <path id="Trazado_58" data-name="Trazado 58" d="M355.857,2655.991h-2.1v-2h2.1Zm0-4.011h-2.1v-2h2.1Zm0-4.01h-2.1v-2h2.1Zm0-4.01h-2.1v-2h2.1Zm0-4.01h-2.1v-2h2.1Zm0-4.011h-2.1v-2h2.1Zm0-4.01h-2.1v-2h2.1Z" fill="#fff"/>
          </g>
          <g id="Grupo_32" data-name="Grupo 32">
            <path id="Trazado_59" data-name="Trazado 59" d="M330.194,2642.342l-1.052-1.829,1.731-1,1.052,1.825Zm3.462-2.009-1.052-1.825,1.732-1,1.048,1.825Zm3.459-2.005-1.052-1.822,1.732-1,1.051,1.825Zm3.462-2-1.051-1.826,1.731-1,1.048,1.825Zm3.46-2-1.049-1.825,1.731-1.005,1.049,1.826Zm3.462-2.008-1.052-1.826,1.731-1,1.052,1.826Zm3.463-2-1.052-1.826,1.731-1,1.052,1.825Z" fill="#fff"/>
            <path id="Trazado_60" data-name="Trazado 60" d="M354.42,2628.3l-.382-.665-.666-.387.22-.387-.22-.386.666-.384.382-.668,2.485,1.438Z" fill="#fff"/>
            <path id="Trazado_61" data-name="Trazado 61" d="M351.641,2626.246l-1.731-1,1.052-1.825,1.731,1Zm-3.463-2-1.727-1,1.048-1.825,1.731,1Zm-3.459-2.008-1.731-1,1.049-1.829,1.731,1Zm-3.462-2.005-1.731-1,1.051-1.825,1.732,1Zm-3.462-2-1.732-1,1.052-1.826,1.731,1Zm-3.459-2.006-1.732-1,1.052-1.825,1.731,1Zm-3.463-2-1.731-1,1.052-1.826,1.731,1Z" fill="#fff"/>
          </g>
          <g id="Grupo_33" data-name="Grupo 33">
            <path id="Trazado_62" data-name="Trazado 62" d="M357.971,2626.246l-1.049-1.825,1.729-1,1.051,1.825Zm3.462-2-1.051-1.828,1.731-1,1.051,1.825Zm3.459-2.008-1.048-1.825,1.731-1,1.048,1.829Zm3.463-2.005-1.052-1.826,1.731-1,1.052,1.825Zm3.462-2-1.051-1.826,1.731-1,1.051,1.826Zm3.459-2.006-1.051-1.821,1.731-1,1.051,1.825Zm3.462-2-1.051-1.825,1.731-1,1.052,1.826Z" fill="#fff"/>
            <path id="Trazado_63" data-name="Trazado 63" d="M355.191,2628.3l-2.485-1.439,2.485-1.438.382.668.669.384-.223.386.223.387-.669.387Z" fill="#fff"/>
            <path id="Trazado_64" data-name="Trazado 64" d="M379.418,2642.342l-1.731-1.005,1.051-1.825,1.728,1Zm-3.462-2.009-1.731-1,1.051-1.825,1.731,1Zm-3.459-2-1.731-1,1.051-1.825,1.728,1Zm-3.463-2.008-1.731-1,1.052-1.825,1.731,1Zm-3.459-2-1.731-1,1.048-1.826,1.731,1.005Zm-3.462-2.008-1.731-1,1.051-1.826,1.731,1Zm-3.462-2-1.729-1.005,1.049-1.825,1.731,1Z" fill="#fff"/>
          </g>
          <g id="Grupo_34" data-name="Grupo 34">
            <path id="Trazado_65" data-name="Trazado 65" d="M348.178,2660.439l-1.731-1,1.052-1.825,1.731,1Zm-3.459-2.009-1.731-1,1.049-1.825,1.731,1Zm-3.462-2-1.731-1,1.051-1.825,1.728,1Zm-3.462-2.008-1.732-1,1.052-1.825,1.731,1Zm-3.459-2-1.732-1,1.052-1.826,1.728,1.005Zm-3.463-2.008-1.731-1,1.052-1.826,1.731,1Z" fill="#fff"/>
            <path id="Trazado_66" data-name="Trazado 66" d="M324.618,2637.89h-2.1v-2h2.1Zm0-4.007h-2.1v-2.005h2.1Zm0-4.013h-2.1v-2h2.1Zm0-4.01h-2.1v-2h2.1Zm0-4.011h-2.1v-2h2.1Zm0-4.01h-2.1v-2h2.1Z" fill="#fff"/>
            <path id="Trazado_67" data-name="Trazado 67" d="M330.194,2606.144l-1.052-1.825,1.731-1,1.052,1.825Zm3.458-2.005-1.048-1.825,1.732-1,1.048,1.826Zm3.463-2-1.052-1.825,1.732-1,1.051,1.825Zm3.462-2.005-1.051-1.826,1.731-1,1.048,1.825Zm3.46-2-1.049-1.826,1.728-1,1.052,1.825Zm3.462-2.006-1.052-1.825,1.731-1,1.052,1.825Z" fill="#fff"/>
            <path id="Trazado_68" data-name="Trazado 68" d="M379.418,2606.144l-1.731-1,1.051-1.825,1.728,1Zm-3.462-2.005-1.731-1,1.051-1.826,1.731,1Zm-3.459-2-1.731-1,1.051-1.822,1.728,1Zm-3.463-2.005-1.731-1,1.052-1.825,1.731,1Zm-3.459-2-1.731-1.005,1.048-1.825,1.731,1Zm-3.462-2.006-1.731-1,1.051-1.825,1.731,1Z" fill="#fff"/>
            <path id="Trazado_69" data-name="Trazado 69" d="M387.094,2637.894h-2.1v-2.005h2.1Zm0-4.011h-2.1v-2.005h2.1Zm0-4.013h-2.1v-2h2.1Zm0-4.01h-2.1v-2h2.1Zm0-4.011h-2.1v-2h2.1Zm0-4.01h-2.1v-2h2.1Z" fill="#fff"/>
            <path id="Trazado_70" data-name="Trazado 70" d="M361.433,2660.439l-1.051-1.826,1.731-1,1.048,1.825Zm3.459-2.009-1.048-1.822,1.731-1,1.048,1.825Zm3.463-2L367.3,2654.6l1.731-1,1.052,1.825Zm3.462-2.008-1.051-1.822,1.731-1,1.048,1.825Zm3.459-2-1.051-1.825,1.731-1.005,1.051,1.826Zm3.462-2.008-1.051-1.826,1.731-1,1.048,1.826Z" fill="#fff"/>
          </g>
        </g>
        <path id="Trazado_71" data-name="Trazado 71" d="M372.453,2626.864a17.647,17.647,0,1,1-17.647-17.707A17.677,17.677,0,0,1,372.453,2626.864Z" fill="#fff"/>
        <g id="Grupo_36" data-name="Grupo 36">
          <path id="Trazado_72" data-name="Trazado 72" d="M354.806,2640.482a13.618,13.618,0,1,1,13.572-13.618A13.612,13.612,0,0,1,354.806,2640.482Zm0-25.3a11.678,11.678,0,1,0,11.638,11.678A11.674,11.674,0,0,0,354.806,2615.186Z" fill="#343b43"/>
          <path id="Trazado_73" data-name="Trazado 73" d="M354.806,2640.482c-4.078,0-7.27-5.981-7.27-13.618s3.192-13.619,7.27-13.619v1.941c-2.577,0-5.336,4.692-5.336,11.678s2.759,11.677,5.336,11.677Z" fill="#343b43"/>
          <path id="Trazado_74" data-name="Trazado 74" d="M354.806,2640.482v-1.941c2.576,0,5.335-4.691,5.335-11.677s-2.759-11.678-5.335-11.678v-1.941c4.074,0,7.27,5.982,7.27,13.619S358.88,2640.482,354.806,2640.482Z" fill="#343b43"/>
          <rect id="Rectángulo_25" data-name="Rectángulo 25" width="1.934" height="25.296" transform="translate(353.839 2614.216)" fill="#343b43"/>
          <rect id="Rectángulo_26" data-name="Rectángulo 26" width="25.211" height="1.941" transform="translate(342.201 2625.893)" fill="#343b43"/>
          <path id="Trazado_75" data-name="Trazado 75" d="M354.806,2621.51a32.352,32.352,0,0,1-10.141-1.622l.6-1.845a30.71,30.71,0,0,0,19.077,0l.606,1.845A32.376,32.376,0,0,1,354.806,2621.51Z" fill="#343b43"/>
          <path id="Trazado_76" data-name="Trazado 76" d="M345.267,2635.685l-.6-1.842a32.61,32.61,0,0,1,20.285,0l-.606,1.842A30.682,30.682,0,0,0,345.267,2635.685Z" fill="#343b43"/>
        </g>
        <g id="Grupo_37" data-name="Grupo 37">
          <path id="Trazado_77" data-name="Trazado 77" d="M327.932,2606.236a5.046,5.046,0,1,1-6.888-1.853A5.071,5.071,0,0,1,327.932,2606.236Z" fill="#343b43"/>
          <path id="Trazado_78" data-name="Trazado 78" d="M359.171,2588.139a5.046,5.046,0,1,1-6.884-1.853A5.068,5.068,0,0,1,359.171,2588.139Z" fill="#fff"/>
          <path id="Trazado_79" data-name="Trazado 79" d="M390.411,2606.236a5.046,5.046,0,1,1-6.888-1.853A5.066,5.066,0,0,1,390.411,2606.236Z" fill="#343b43"/>
          <path id="Trazado_80" data-name="Trazado 80" d="M390.411,2642.43a5.046,5.046,0,1,1-6.888-1.849A5.069,5.069,0,0,1,390.411,2642.43Z" fill="#fff"/>
          <path id="Trazado_81" data-name="Trazado 81" d="M359.171,2660.527a5.046,5.046,0,1,1-6.884-1.846A5.069,5.069,0,0,1,359.171,2660.527Z" fill="#343b43"/>
          <path id="Trazado_82" data-name="Trazado 82" d="M327.932,2642.43a5.046,5.046,0,1,1-6.888-1.846A5.076,5.076,0,0,1,327.932,2642.43Z" fill="#fff"/>
        </g>
      </g>
    </g>
  </g>
</svg>
