<svg xmlns="http://www.w3.org/2000/svg" width="346.296" height="614.546" viewBox="0 0 346.296 614.546">
  <g id="Grupo_103" data-name="Grupo 103" transform="translate(-900.066 -2550.243)">
    <path id="Trazado_54" data-name="Trazado 54" d="M900.066,3146.205V2647.548a35.7,35.7,0,0,1,.183-3.625,32.89,32.89,0,0,1,.542-3.487,27.68,27.68,0,0,1,.881-3.213,21.447,21.447,0,0,1,1.185-2.816,15.081,15.081,0,0,1,1.445-2.31,10.039,10.039,0,0,1,1.647-1.718,6.761,6.761,0,0,1,1.788-1.058,5.13,5.13,0,0,1,1.86-.357h327.234a5.13,5.13,0,0,1,1.86.357,6.777,6.777,0,0,1,1.788,1.058,10.039,10.039,0,0,1,1.647,1.718,15.081,15.081,0,0,1,1.445,2.31,21.463,21.463,0,0,1,1.185,2.816,27.68,27.68,0,0,1,.881,3.213,32.89,32.89,0,0,1,.542,3.487,35.682,35.682,0,0,1,.183,3.625v498.657a35.723,35.723,0,0,1-.183,3.626,32.906,32.906,0,0,1-.542,3.486,27.6,27.6,0,0,1-.881,3.212,21.422,21.422,0,0,1-1.185,2.817,15.14,15.14,0,0,1-1.445,2.311,10.067,10.067,0,0,1-1.647,1.717,6.734,6.734,0,0,1-1.788,1.057,5.111,5.111,0,0,1-1.86.358H909.6a5.111,5.111,0,0,1-1.86-.358,6.718,6.718,0,0,1-1.788-1.057,10.067,10.067,0,0,1-1.647-1.717,15.14,15.14,0,0,1-1.445-2.311,21.405,21.405,0,0,1-1.185-2.817,27.6,27.6,0,0,1-.881-3.212,32.906,32.906,0,0,1-.542-3.486A35.741,35.741,0,0,1,900.066,3146.205Z" fill="#f2f2f2"/>
    <path id="Trazado_55" data-name="Trazado 55" d="M1083.437,2550.243q3.744,0,7.471.367t7.4,1.1q3.672.731,7.256,1.817t7.043,2.52q3.459,1.433,6.761,3.2t6.416,3.845q3.114,2.081,6.008,4.456t5.543,5.024q2.648,2.647,5.023,5.542t4.456,6.008q2.08,3.114,3.845,6.416t3.2,6.762q1.434,3.459,2.52,7.042t1.818,7.256q.731,3.673,1.1,7.4t.367,7.471q0,3.745-.367,7.471t-1.1,7.4q-.73,3.672-1.818,7.255t-2.52,7.043q-1.432,3.459-3.2,6.762t-3.845,6.416q-2.08,3.112-4.456,6.008t-5.023,5.542q-2.649,2.649-5.543,5.023t-6.008,4.456q-3.112,2.08-6.416,3.846t-6.761,3.2q-3.461,1.433-7.043,2.52t-7.256,1.817q-3.673.732-7.4,1.1t-7.471.367q-3.744,0-7.471-.367t-7.4-1.1q-3.673-.731-7.256-1.817t-7.043-2.52q-3.459-1.434-6.762-3.2t-6.416-3.846q-3.112-2.079-6.008-4.456t-5.542-5.023q-2.648-2.648-5.023-5.542t-4.456-6.008q-2.08-3.114-3.846-6.416t-3.2-6.762q-1.433-3.459-2.52-7.043t-1.817-7.255q-.73-3.673-1.1-7.4t-.367-7.471q0-3.744.367-7.471t1.1-7.4q.73-3.672,1.817-7.256t2.52-7.042q1.434-3.46,3.2-6.762t3.846-6.416q2.081-3.114,4.456-6.008t5.023-5.542q2.648-2.649,5.542-5.024t6.008-4.456q3.114-2.079,6.416-3.845t6.762-3.2q3.459-1.434,7.043-2.52t7.256-1.817q3.672-.732,7.4-1.1T1083.437,2550.243Z" fill="#035e4f"/>
    <circle id="Elipse_9" data-name="Elipse 9" cx="71.597" cy="71.597" r="71.597" transform="translate(1012.461 2555.489)" fill="#fff"/>
    <line id="Línea_18" data-name="Línea 18" x2="310.319" transform="translate(919.205 2759.334)" fill="none" stroke="#707070" stroke-width="2"/>
    <text id="Es_la_relación_interna_real_de_la_transferencia_de_tecnología_que_se_da_entre_la_empresa_el_estado_la_sociedad_civil_y_la_academia._Se_define_como_la_capacidad_que_tiene_una_región_para_alinear_los_intereses_para_la_transferencia_difusión_y_apropiación" data-name="Es la relación interna real de la transferencia de tecnología que se da entre la empresa, el estado, la sociedad civil y la academia.

Se define como la capacidad que tiene una región para alinear los intereses para la transferencia, difusión y apropiación" transform="translate(918.251 2776.903)" fill="#444242" font-size="16" font-family="OpenSans, Open Sans"><tspan x="0" y="17">Es la relación interna real de la </tspan><tspan x="0" y="39">transferencia de tecnología que se da </tspan><tspan x="0" y="61">entre la empresa, el estado, la sociedad </tspan><tspan x="0" y="83">civil y la academia.</tspan><tspan x="0" y="105"></tspan><tspan x="0" y="127">Se define como la capacidad que tiene </tspan><tspan x="0" y="149">una región para alinear los intereses para </tspan><tspan x="0" y="171">la transferencia, difusión y apropiación </tspan><tspan x="0" y="193">del conocimiento a nivel real.</tspan><tspan x="0" y="215"></tspan></text>
    <text id="La_micro" data-name="La micro" transform="translate(1083.437 2740.572)" fill="#444242" font-size="18" font-family="Montserrat-Bold, Montserrat" font-weight="700"><tspan x="-40.752" y="0">La micro</tspan></text>
    <g id="Grupo_49" data-name="Grupo 49">
      <ellipse id="Elipse_12" data-name="Elipse 12" cx="65.13" cy="65.352" rx="65.13" ry="65.352" transform="translate(1019.307 2562.516)" fill="#d8efdd"/>
      <path id="Trazado_97" data-name="Trazado 97" d="M1119.375,2606.341a5.03,5.03,0,0,0-6.221-.954,5.105,5.105,0,0,0-1.589,1.459l-.25-.146.057-.1-.375-.217.057-.1-.379-.218.058-.1-.376-.218.061-.1-.378-.217.057-.1-1.728-1-.29.5-.227-.129.058-.1-.376-.218.058-.1-.376-.218.058-.1-.375-.217.057-.1-.375-.217.057-.1-1.731-1.005-.291.509-.226-.132.061-.1-.379-.217.057-.1-.375-.217.061-.1-.379-.217.058-.1-.376-.221.058-.1-1.728-1-.294.5-.227-.129.061-.1-.375-.217.057-.1-.378-.217.06-.1-.378-.217.061-.1-.379-.217.061-.1-1.3-.75c-.034-.034-.071-.071-.109-.105-.1-.112-10.062-10.108-10.174-10.209a5.047,5.047,0,1,0-7.087,7.176c.1.115.21.22.318.322s.206.217.314.315.21.221.322.322.209.218.318.319a3.775,3.775,0,0,0,.317.316c.1.116.21.22.318.322s.21.217.318.319a3.941,3.941,0,0,0,.318.316c.1.112.206.22.318.322s.209.217.317.319c.041.044.085.085.129.129h-.974v1.272l-.169-.3-.1.061-.217-.377-.1.058-.216-.377-.1.058-.216-.38-.1.061-.216-.38-.1.061-.216-.376-.1.057-.22-.38-.1.061-.22-.38-.1.061-.22-.38-.1.061-.22-.38-.1.061-.22-.38-.1.062-.22-.381-.1.062-.216-.38-.1.061-.22-.38-.1.061-.216-.38-.1.061-.216-.38-.1.061-.217-.38-.1.061-.217-.38-1.731,1,1.052,1.826.1-.062.217.381.1-.058.216.376.1-.057.216.376.1-.061.216.38.1-.057.217.376.1-.057.217.376.1-.057.217.376.1-.058.216.377.1-.058.216.377.1-.058.216.377.1-.058.216.377.1-.058.217.377.1-.058.217.377.1-.058.217.377.1-.058.216.377.1-.058.216.377.1-.058.216.376.1-.058.216.377.1-.058.217.377.1-.058.115.2v1.431h.318v.319h.318v.319h.318v.319h.318v.319h.317v.319h.318v.319h.318v.319h.318v.319h.318v.322h.321v.315h.315v.319h.321v.323h.317v.315h.318v.319h.318v.323h.318v.318h.318v.316h.318v.322h.317v.319h.318v.16c-.044-.014-.084-.027-.125-.038v-.03h-.118c-.068-.021-.135-.034-.2-.055v-.264h-.317v-.319h-.318v-.319h-.318v-.319h-.318v-.322h-.318V2609h-.318v-.319h-.317v-.322h-.318v-.315h-.318v-.319h-.318v-.323h-.318v-.319h-.318v-.319h-.818l-.149-.254-.1.061-.22-.38-.1.061-.219-.38-.1.061-.216-.38-.1.058-.216-.377-.1.058-.216-.377-.1.058-.217-.376-.1.057-.217-.376-.1.057-.217-.376-.1.057-.216-.376-.1.057-.216-.376-.1.057-.217-.376-.1.058-.217-.377-.1.058-.217-.377-.1.058-.216-.377-.1.058-.216-.377-.1.058-.216-.377-.1.058-.216-.377-.1.058-.217-.377-.1.058-.217-.377-.1.058-.216-.377-.1.058-.216-.376-.1.057-.216-.376-.1.054-.216-.373-.1.057-.217-.376-.1.058-.217-.377-.1.054-.217-.373-.1.058-.216-.38-.1.061-.216-.38-.1.058-.216-.374-.1.055-.219-.377-.1.058-.217-.377-.1.058-.22-.377-1.728,1,1.049,1.825.1-.058.216.376.1-.057.217.376.1-.057.217.376.1-.057.217.376.1-.057.216.376.1-.057.216.376.1-.058.216.377.1-.058.219.377.1-.058.217.377.1-.058.22.377.1-.058.22.377.1-.058.22.377.1-.058.22.377.1-.058.22.377.1-.058.219.38.1-.061.216.38.1-.061.216.38.1-.061.216.376.1-.057.217.376.1-.057.217.38.1-.061.217.38.1-.062.216.381.1-.062.216.38.1-.061.216.38.1-.061.216.38.1-.061.216.38.1-.061.216.38.1-.061.216.38.1-.061.216.38.1-.061.217.38.1-.061.217.38.1-.058.217.376.1-.06.216.379.1-.057.216.376.1-.057.149.261c-.1,0-.193-.017-.291-.017-.575,0-1.143.03-1.7.085l-.082-.136-.1.058-.216-.38-.1.057-.216-.373-.1.055-.216-.377-.1.058-.216-.377-.1.058-.217-.377-.1.058-.217-.377-.1.058-.216-.377-.1.058-.216-.377-.1.058-.216-.377-.1.058-.216-.377-.1.058-.217-.377-.1.058-.217-.376-.1.057-.22-.376-.1.058-.216-.377-.1.058-.216-.377-.1.058-.219-.377-.1.058-.219-.377-.1.058-.216-.377-.1.058-.22-.377-.1.058-.22-.377-.1.058-.216-.376-.1.057-.216-.376-.1.057-.216-.38-.1.061-.216-.376-.1.057-.217-.38-.1.061-.217-.38-.1.062-.217-.381-.1.062-.216-.38-.1.061-.216-.38-.1.061-.216-.38-.1.061-.216-.38-.1.061-.217-.38-.1.061-.217-.38-.1.061-.217-.38-.1.061-.216-.38-.1.061-.216-.38-.1.058-.216-.377-1.731,1.005,1.051,1.825.1-.058.216.377.1-.058.22.377.1-.058.22.377.1-.058.22.377.1-.058.219.377.1-.058.216.376.1-.057.22.376.1-.057.216.376.1-.057.217.376.1-.057.217.376.1-.057.217.376.1-.058.216.377.1-.058.216.377.1-.058.216.377.1-.058.216.377.1-.058.217.377.1-.058.217.38.1-.061.217.376.1-.057.216.376.1-.054.216.377.1-.062.216.377.1-.054.216.373.1-.054.217.376.1-.057.22.376.1-.057.216.376.1-.057.216.376.1-.057.22.376.1-.058.22.377.1-.058.22.377.1-.058.217.377.1-.058.071.122c-.548.146-1.082.319-1.61.513l-.07-.126-.1.061-.216-.38-.1.061-.216-.38-.1.062-.22-.381-.1.062-.217-.38-.1.061-.217-.38-.1.061-.217-.38-.1.061-.216-.38-.1.061-.216-.38-.1.061-.216-.38-.1.058-.216-.377-.1.061-.217-.38-.1.061-.217-.38-.1.058-.217-.377-.1.058-.216-.377-.1.058-.216-.377-.1.058-.216-.377-.1.058-.216-.377-.1.058-.217-.377-.1.058-.217-.376-.1.057-.216-.376-.1.057-.219-.376-.1.057-.22-.376-.1.057-.22-.376-.1.057-.22-.376-.1.058-.22-.377-.1.058-.22-.377-.1.058-.22-.377-.1.058-.216-.376-.1.057-.216-.376-.1.057-.216-.376-.1.054-.216-.373-.1.057-.217-.376-.1.057-.217-.376-.1.054-.217-.373-1.731,1,1.052,1.825.1-.058.217.377.1-.058.216.377.1-.058.216.377.1-.058.216.377.1-.058.216.376.1-.057.217.376.1-.057.217.376.1-.057.217.376.1-.057.22.376.1-.057.216.38.1-.062.22.377.1-.058.219.38.1-.061.22.38.1-.061.22.38.1-.061.22.38.1-.061.22.38.1-.061.217.38.1-.061.217.38.1-.061.216.38.1-.061.216.38.1-.061.217.38.1-.061.217.38.1-.061.216.38.1-.061.216.38.1-.061.216.379.1-.061.216.38.1-.061.217.38.1-.058.217.377.1-.058.193.336q-.675.372-1.308.8l-.176-.3-.1.054-.216-.373-.1.054-.216-.373-.1.058-.217-.381-.1.058-.217-.376-.1.057-.22-.376-.1.057-.216-.376-.1.057-.22-.376-.1.057-.216-.376-.1.057-.216-.376-.1.058-.22-.377-.1.058-.22-.377-.1.058-.22-.377-.1.058-.22-.377-.1.058-.22-.376-.1.057-.217-.376-.1.057-.216-.376-.1.057-.216-.376-.1.057-.216-.376-.1.058-.217-.377-.1.058-.216-.377-.1.058-.216-.377-.1.058-.216-.38-.1.061-.216-.377-.1.058-.217-.377-.1.058-.217-.38-.1.061-.217-.377-.1.058-.216-.377-.1.058-.216-.38-.1.061-.216-.38-.1.061-.216-.38-.1.061-.217-.38-.1.061-.217-.38-.1.061-.216-.38-1.732,1.005,1.048,1.825.1-.058.22.377.1-.058.216.377.1-.058.219.377.1-.058.216.377.1-.058.22.377.1-.058.22.377.1-.058.217.377.1-.058.22.377.1-.058.216.377.1-.058.216.376.1-.057.216.376.1-.057.216.376.1-.057.217.376.1-.057.217.376.1-.058.217.377.1-.058.216.377.1-.058.216.38.1-.061.216.377.1-.055.217.373.1-.054.217.377.1-.061.216.38.1-.058.216.377.1-.058.216.377.1-.058.216.377.1-.058.217.373.1-.054.217.376.1-.057.216.376.1-.057.216.376.1-.057.216.376.1-.057.159.274q-.549.484-1.055,1.008l-.078-.132-.1.057-.217-.38-.1.061-.217-.379-.1.06-.217-.379-.1.06-.216-.379-.1.061-.216-.38-.1.061-.216-.38-.1.061-.216-.38-.1.061-.217-.38-.1.061-.217-.38-.1.061-.217-.38-.1.061-.216-.38-.1.061-.216-.38-.1.058-.216-.377-.1.058-.216-.377-.1.058-.217-.377-.1.058-.22-.376-.1.057-.216-.376-.1.057-.22-.376-.1.057-.22-.376-.1.057-.22-.376-.1.057-.22-.376-.1.058-.22-.377-.1.058-.22-.377-.1.058-.22-.377-.1.058-.219-.377-.1.058-.219-.377-.1.058-.216-.377-.1.058-.216-.377-.1.058-.217-.376-.1.057-.217-.376-.1.058-.217-.377-.1.054-.216-.373-.1.058-.216-.377-.1.058-.216-.377-.1.054-.216-.373-1.731,1,1.051,1.825.1-.058.216.377.1-.058.216.377.1-.058.216.38.1-.061.217.377.1-.058.217.377.1-.058.217.38.1-.061.216.38.1-.061.216.377.1-.058.216.38.1-.061.216.38.1-.061.217.38.1-.061.217.38.1-.061.216.38.1-.061.216.38.1-.062.216.381.1-.062.216.38.1-.061.217.38.1-.061.217.38.1-.057.216.376.1-.061.22.38.1-.061.219.38.1-.058.217.377.1-.061.22.38.1-.061.22.38.1-.058.22.376.1-.057.217.376.1-.057.216.376.1-.057.22.376.1-.057.216.376.1-.057.216.376.1-.058.217.377.1-.058.217.377.1-.058.088.153c-.254.346-.49.7-.72,1.069l-.095-.058.058-.1-.376-.217.058-.1-.376-.217.058-.1-.375-.218.057-.1-1.3-.75c-.037-.034-.071-.071-.108-.1-.1-.109-.206-.218-.318-.319s-.206-.217-.318-.319-.206-.217-.318-.316-.206-.22-.317-.322-.21-.217-.318-.319-.21-.217-.318-.319-.21-.217-.318-.319-.21-.217-.318-.319-.206-.217-.318-.319-.209-.217-.317-.319-.21-.217-.318-.319-.21-.217-.322-.319-.206-.217-.314-.318-.21-.218-.318-.319-.209-.218-.318-.319-.209-.217-.318-.319-.209-.217-.317-.319-.21-.217-.318-.319-.21-.217-.322-.319-.206-.22-.314-.319-.209-.217-.318-.319-.209-.22-.321-.322-.206-.214-.315-.315-.209-.221-.321-.323-.206-.214-.314-.315a4.228,4.228,0,0,0-.321-.319c-.1-.112-.207-.221-.315-.319s-.209-.221-.321-.323-.206-.213-.315-.315-.209-.221-.321-.322-.206-.218-.314-.316-.21-.221-.321-.322a5.048,5.048,0,1,0-7.091,7.176c.1.115.213.223.325.325s.2.214.311.312c.105.116.21.221.321.323a3.948,3.948,0,0,0,.318.315,3.148,3.148,0,0,0,.321.322c.1.112.2.218.315.319s.206.217.314.316c.1.115.21.22.321.322s.21.221.322.323.206.217.314.315c.04.044.084.088.128.132h-.974v2h.318v.322h.322v.319h.317v.316h.318v.322h.318v.319h.318v.319h.318v.319h.318v.319h.318v.319h.317v.319h.318v.319h.318v.319h.318v.319h.318v.318h.318v.319h.318v.319h.317v.319h.318v.319h.318v.323h.318v.315h.317v.319h.318v.322h.318v.319h.318v.316h.318v.322h.318v.319h.318v.315h.317v.323h.318v.319h.318v.318H1062v.319h.318v.319h.318v.319h.317v.319h.318v.319h.318v.319h.318v.319h.318v.319h.321v.319h.318v.319h.318v.319h.318v.319h.318v.319h.317v.319h.318v.318h.318v.319h.318v.319h.318v.319h.317v.319h.318v.319h.149c.014.034.031.061.044.091h-.318v-.318h-.318v-.319h-.317v-.319h-.318v-.319h-.318v-.319h-.318v-.319h-.318v-.319h-.318v-.319h-.318v-.319h-.317v-.322h-.318v-.315h-.318v-.323h-.318v-.319h-.318v-.319h-.318v-.319h-.318v-.319h-.317v-.318h-.318v-.319h-.318v-.319h-.321v-.319h-.318v-.319h-.318v-.319h-.318v-.319h-.317v-.319h-.318v-.319h-.318v-.319h-.318v-.319h-.318v-.319h-.318v-.319h-.318v-.319h-.317V2625h-.318v-.318h-.318v-.319h-.318v-.319h-.318v-.319h-.318v-.319h-.318v-.319h-.317v-.319h-.318v-.319h-.318v-.319h-.318v-.318h-.318v-.319h-.317v-.319h-.318v-.319h-2.1v2h.318v.318h.322v.323h.317v.315h.318v.322h.318v.319h.318v.316h.318v.322h.318v.319h.318v.319h.317v.319h.318v.319h.318v.319h.318V2627h.318v.319h.318v.319h.318v.319h.317v.318h.318v.319h.318v.319h.318v.319h.317v.319h.318v.319h.318v.319h.318v.319h.318v.319h.318v.322h.318v.319h.317v.319h.318v.319h.318v.319H1062v.319h.318v.319h.318v.319h.317v.318h.318v.319h.318v.319h.318v.319h.318v.319h.321v.319h.318v.319h.318v.319h.318v.319h.318v.319h.317v.319h.318v.176l-.125.071v-.159h-.318v-.316h-.318v-.319h-.318v-.322h-.317v-.316h-.318v-.318h-.318v-.323h-.318v-.319h-.318v-.318h-.318v-.319h-.318v-.319h-.317v-.319h-.318v-.319h-.318v-.319h-.321v-.319h-.318v-.319h-.318v-.319h-.318v-.319h-.317v-.319h-.318v-.319h-.318v-.319h-.318v-.319h-.318v-.318h-.318v-.319h-.318v-.319h-.317v-.319h-.318v-.319h-.318v-.319h-.318v-.319h-.318v-.319h-.318v-.319h-.318v-.319h-.317v-.318h-.318v-.319h-.318v-.319h-.318v-.319h-.318v-.319h-.317v-.319h-.318v-.319h-2.1v2h.318v.322h.322v.319h.317v.315h.318v.323h.318v.319h.318v.319h.318v.318h.318v.319h.318v.319h.317v.319h.318v.319h.318v.319h.318v.319h.318v.319h.318v.319h.318v.319h.317v.319h.318v.319h.318v.319h.318v.319h.317v.318h.318v.319h.318v.319h.318v.322h.318v.319h.318v.316h.318v.322h.317v.319h.318v.319h.318v.319H1062v.319h.318v.319h.318v.319h.317v.319h.318v.319h.318v.319h.318v.19l-.122.074v-.176h-.318v-.319h-.318v-.319h-.317v-.319h-.318v-.319h-.318v-.319h-.321v-.319h-.318v-.319h-.318v-.319h-.318v-.319h-.317v-.318h-.318v-.319h-.318v-.319h-.318v-.319h-.318v-.319h-.318v-.319h-.318v-.319h-.317v-.319h-.318v-.319h-.318v-.319h-.318v-.319h-.318v-.319h-.318v-.318h-.318v-.319h-.317v-.319h-.318v-.319h-.318v-.319h-.318v-.319h-.318v-.319h-.317v-.319h-.318v-.319h-2.1v2h.318v.319h.322v.319h.317v.322h.318v.315h.318v.319h.318v.323h.318v.315h.318v.323h.318v.319h.317v.319h.318v.318h.318v.319h.318v.319h.318v.319h.318v.319h.318v.319h.317v.319h.318v.319h.318v.319h.318v.319h.317v.319h.318v.319h.318v.319h.318v.322h.318v.315h.318v.319h.318v.322h.317v.319h.318v.316h.318v.322H1062v.319h.318v.319h.318v.319h.317v.319h.318v.319h.318v.319h.318v.319h.318V2643h.321v.319h.318v.319h.318v.319h.318v.318h.318v.319h.317v.319h.318v.319h.318v.319h.318v.319h.318v.319h.317v.319h.318v.319h.318v.318h.318v.319H1069v.319h.318v.319h.317v.319h.318v.319h.318v.319h.318v.319h.318v.319h.318v.319h.318v.156l-.125-.064h-.318v-.319h-.318v-.319h-.318v-.319h-.318v-.319h-.318v-.319h-.318v-.319h-.317v-.319h-.318v-.319h-.318v-.319h-.318v-.319h-.318v-.319h-.318v-.319h-.317v-.319h-.318v-.318h-.318v-.319h-.318V2645h-.318v-.319h-.318v-.319h-.318v-.319h-.317v-.322h-.318v-.319h-.318v-.319h-.318v-.319h-.318v-.319h-.318v-.319h-.318v-.319h-.317v-.319h-.318v-.319h-.318v-.319h-.321v-.318h-.318v-.319h-.318v-.319h-.318v-.319h-.317v-.319h-.318v-.319h-.318v-.319h-.318v-.319h-.318v-.319h-.318v-.319h-.318v-.319h-.317v-.319h-.318v-.319h-.318v-.319h-.318v-.319h-.318v-.318h-.318v-.319h-.318v-.319h-.317v-.319h-.318v-.319h-.318v-.319h-.318v-.319h-.318v-.319h-.317v-.319h-.318v-.318h-2.1v2h.318v.316h.322v.319h.317v.322h.318v.316h.318v.319h.318v.322h.318v.319h.318v.319h.318v.319h.317v.319h.318v.319h.318v.319h.318v.319h.318v.318h.318v.319h.318v.319h.317v.319h.318v.319h.318v.319h.318v.319h.317v.224l-.05.027.091.159h-.166v-.319h-.317v-.318h-.318v-.319h-.318v-.319h-.318v-.319h-.318v-.319h-.318v-.319h-.318v-.319h-.317v-.319h-.318v-.319h-.318v-.319h-.318v-.318h-.318v-.319h-.317v-.319h-.318v-.319h-2.1v2h.318v.319h.322v.319h.317v.319h.318v.319h.318v.319h.318v.322h.318v.241a5,5,0,0,0-3.7.536,5.063,5.063,0,0,0-1.843,6.908,4.97,4.97,0,0,0,.98,1.218c.1.112.21.221.322.322s.206.217.314.319c.061.061,23.013,23.095,42.185,42.332a65.254,65.254,0,0,0,56.4-56.595C1139.433,2626.457,1119.463,2606.419,1119.375,2606.341Zm-55.148,32.52-.044.027-.125-.217h.169Zm.321.318-.047.028-.125-.218h.172Zm.318.319-.047.028-.125-.218h.172Zm.318.319-.048.027-.125-.217h.173Zm.318.319-.048.027-.125-.217h.173Zm.318.319-.048.027-.125-.217h.173Zm.317.319-.047.027-.125-.217h.172Zm.318.319-.047.027-.125-.217h.172Zm.318.319-.047.027-.126-.217h.173Zm.318.319-.047.027-.126-.217h.173Zm.318.319-.048.027-.125-.217h.173Zm.317.318-.047.028-.125-.217h.172Zm.318.323-.047.024-.125-.217h.172Zm.318.315-.047.027-.125-.217h.172Zm-.125-7.8v-.315c.047.108.1.21.152.315Zm.443,8.119-.047.027-.126-.217h.173Zm.318.323-.048.023-.125-.217H1069Zm.318.319-.048.023-.125-.217h.173Zm.317.315-.047.027-.125-.217h.172Zm.318.322-.044.028-.128-.221h.172Zm.318.319-.044.027-.128-.22h.172Zm.318.319-.047.027-.125-.22h.172Zm.318.319-.044.027-.129-.22h.173Zm.318.319-.044.027-.129-.22h.173Zm-16.531-4.74a.136.136,0,0,1-.038-.013h.038Zm4.324.855v-.054l.031.054Zm12.481,4.231-.129-.22h.173v.193Zm.361.292-.044.027-.128-.22h.172Zm.318.319-.044.027-.128-.221h.172Zm.318.319-.044.027-.128-.221h.172Zm.318.319-.044.027-.128-.221h.172Zm.321.319-.047.027-.125-.217h.172Zm.318.319-.047.027-.126-.217h.173Zm.315.319-.044.027-.129-.221h.173Zm.32.319-.047.027-.125-.217h.172Zm.318.318-.047.028-.125-.218h.172Zm.318.319-.047.028-.125-.218h.172Zm.318.319-.047.027-.125-.217h.172Zm.318.319-.047.027-.126-.217h.173Zm.318.322-.173-.193h.173Z" fill="#a3c6a8"/>
      <g id="Grupo_48" data-name="Grupo 48">
        <g id="Grupo_46" data-name="Grupo 46">
          <g id="Grupo_45" data-name="Grupo 45">
            <path id="Trazado_98" data-name="Trazado 98" d="M1077.809,2661.443l-1.731-1.005,1.052-1.825,1.731,1Zm-3.459-2.009-1.731-1,1.049-1.825,1.731,1Zm-3.462-2-1.731-1.005,1.051-1.825,1.728,1Zm-3.463-2.009-1.731-1,1.052-1.825,1.731,1Zm-3.458-2-1.732-1,1.052-1.825,1.728,1Zm-3.463-2.008-1.731-1,1.051-1.825,1.732,1Z" fill="#fff"/>
            <path id="Trazado_99" data-name="Trazado 99" d="M1054.249,2638.894h-2.1v-2h2.1Zm0-4.007h-2.1v-2h2.1Zm0-4.013h-2.1v-2h2.1Zm0-4.01h-2.1v-2h2.1Zm0-4.01h-2.1v-2h2.1Zm0-4.011h-2.1v-2h2.1Z" fill="#fff"/>
            <path id="Trazado_100" data-name="Trazado 100" d="M1059.824,2607.148l-1.051-1.825,1.731-1,1.052,1.826Zm3.459-2-1.048-1.825,1.732-1.005,1.048,1.826Zm3.463-2.005-1.052-1.825,1.731-1,1.052,1.825Zm3.462-2-1.051-1.825,1.731-1.005,1.048,1.825Zm3.46-2.005-1.049-1.825,1.728-1,1.052,1.826Zm3.462-2-1.052-1.826,1.731-1,1.052,1.825Z" fill="#fff"/>
            <path id="Trazado_101" data-name="Trazado 101" d="M1109.049,2607.148l-1.731-1,1.051-1.826,1.728,1Zm-3.462-2-1.732-1,1.052-1.826,1.731,1.005Zm-3.459-2.005-1.732-1,1.052-1.822,1.728,1Zm-3.463-2-1.731-1.005,1.052-1.825,1.731,1.005Zm-3.459-2.005-1.731-1,1.048-1.826,1.731,1Zm-3.462-2-1.731-1.005,1.051-1.825,1.731,1Z" fill="#fff"/>
            <path id="Trazado_102" data-name="Trazado 102" d="M1116.725,2638.9h-2.1v-2h2.1Zm0-4.011h-2.1v-2h2.1Zm0-4.013h-2.1v-2h2.1Zm0-4.01h-2.1v-2h2.1Zm0-4.01h-2.1v-2h2.1Zm0-4.011h-2.1v-2h2.1Z" fill="#fff"/>
            <path id="Trazado_103" data-name="Trazado 103" d="M1091.064,2661.443l-1.051-1.826,1.731-1,1.048,1.825Zm3.459-2.009-1.048-1.822,1.731-1,1.048,1.825Zm3.463-2-1.052-1.826,1.731-1,1.052,1.825Zm3.462-2.009-1.052-1.822,1.732-1,1.048,1.825Zm3.459-2-1.052-1.825,1.732-1,1.051,1.825Zm3.462-2.008-1.051-1.825,1.731-1,1.048,1.825Z" fill="#fff"/>
          </g>
        </g>
        <g id="Grupo_47" data-name="Grupo 47">
          <path id="Trazado_104" data-name="Trazado 104" d="M1057.562,2607.24a5.046,5.046,0,1,1-6.887-1.853A5.07,5.07,0,0,1,1057.562,2607.24Z" fill="#343b43"/>
          <path id="Trazado_105" data-name="Trazado 105" d="M1088.8,2589.143a5.046,5.046,0,1,1-6.884-1.853A5.067,5.067,0,0,1,1088.8,2589.143Z" fill="#fff"/>
          <path id="Trazado_106" data-name="Trazado 106" d="M1120.042,2607.24a5.046,5.046,0,1,1-6.888-1.853A5.065,5.065,0,0,1,1120.042,2607.24Z" fill="#343b43"/>
          <path id="Trazado_107" data-name="Trazado 107" d="M1120.042,2643.434a5.046,5.046,0,1,1-6.888-1.849A5.068,5.068,0,0,1,1120.042,2643.434Z" fill="#fff"/>
          <path id="Trazado_108" data-name="Trazado 108" d="M1088.8,2661.531a5.046,5.046,0,1,1-6.884-1.846A5.069,5.069,0,0,1,1088.8,2661.531Z" fill="#343b43"/>
          <path id="Trazado_109" data-name="Trazado 109" d="M1057.562,2643.434a5.046,5.046,0,1,1-6.887-1.846A5.074,5.074,0,0,1,1057.562,2643.434Z" fill="#fff"/>
        </g>
      </g>
    </g>
  </g>
</svg>
