<svg xmlns="http://www.w3.org/2000/svg" width="816.545" height="552.44" viewBox="0 0 816.545 552.44">
  <g id="Grupo_82" data-name="Grupo 82" transform="translate(-313.956 -5303.447)">
    <rect id="Rectángulo_38" data-name="Rectángulo 38" width="816.545" height="552.44" transform="translate(313.956 5303.447)" fill="#cbd9e4"/>
    <rect id="Rectángulo_39" data-name="Rectángulo 39" width="816.545" height="72.689" transform="translate(313.956 5783.197)" fill="#f7f7f8"/>
    <rect id="Rectángulo_40" data-name="Rectángulo 40" width="816.545" height="6.057" transform="translate(313.956 5774.717)" fill="#002b45"/>
    <path id="Trazado_141" data-name="Trazado 141" d="M703.45,5482.747q3.423,0,6.828.336t6.762,1q3.357.667,6.632,1.661t6.436,2.3q3.162,1.31,6.18,2.923t5.864,3.514q2.846,1.9,5.491,4.072t5.065,4.591q2.419,2.421,4.591,5.066t4.072,5.491q1.9,2.845,3.515,5.863t2.922,6.18q1.31,3.162,2.3,6.437t1.661,6.631q.669,3.357,1,6.762t.335,6.828q0,3.423-.335,6.828t-1,6.762q-.667,3.357-1.661,6.632t-2.3,6.436q-1.309,3.162-2.922,6.18t-3.515,5.864q-1.9,2.845-4.072,5.49t-4.591,5.066q-2.42,2.419-5.065,4.59t-5.491,4.073q-2.845,1.9-5.864,3.514t-6.18,2.923q-3.162,1.31-6.436,2.3t-6.632,1.661q-3.355.667-6.762,1t-6.828.336q-3.422,0-6.828-.336t-6.762-1q-3.357-.667-6.631-1.661t-6.437-2.3q-3.162-1.31-6.18-2.923t-5.863-3.514q-2.846-1.9-5.491-4.073t-5.065-4.59q-2.421-2.421-4.591-5.066t-4.073-5.49q-1.9-2.847-3.514-5.864t-2.923-6.18q-1.309-3.162-2.3-6.436T635.128,5566q-.668-3.357-1-6.762t-.335-6.828q0-3.423.335-6.828t1-6.762q.668-3.357,1.661-6.631t2.3-6.437q1.31-3.162,2.923-6.18t3.514-5.863q1.9-2.847,4.073-5.491t4.591-5.066q2.42-2.419,5.065-4.591t5.491-4.072q2.845-1.9,5.863-3.514t6.18-2.923q3.162-1.31,6.437-2.3t6.631-1.661q3.357-.667,6.762-1T703.45,5482.747Z" fill="#2b4e6a" opacity="0.38"/>
    <circle id="Elipse_26" data-name="Elipse 26" cx="44.179" cy="44.179" r="44.179" transform="matrix(0.999, -0.038, 0.038, 0.999, 657.44, 5510.555)" fill="#002b45"/>
    <path id="Trazado_142" data-name="Trazado 142" d="M726.242,5551.009l-35.94,20.965v-41.93Z" fill="#fff"/>
  </g>
</svg>
