<svg xmlns="http://www.w3.org/2000/svg" width="348.274" height="543.555" viewBox="0 0 348.274 543.555">
  <g id="Grupo_109" data-name="Grupo 109" transform="translate(-175.775 -6011.887)">
    <path id="Trazado_145" data-name="Trazado 145" d="M370.356,6209.443,349.912,6189l-20.445,20.444H175.775v305.782a40.217,40.217,0,0,0,40.217,40.217H483.831a40.217,40.217,0,0,0,40.218-40.217V6209.443Z" fill="#add150" opacity="0.7"/>
    <g id="Grupo_85" data-name="Grupo 85">
      <rect id="Rectángulo_43" data-name="Rectángulo 43" width="308.057" height="479.919" rx="20.109" transform="translate(195.883 6055.414)" fill="none" stroke="#4a4a4a" stroke-linecap="round" stroke-linejoin="round" stroke-width="8"/>
    </g>
    <g id="Grupo_88" data-name="Grupo 88">
      <g id="Grupo_87" data-name="Grupo 87">
        <path id="Trazado_146" data-name="Trazado 146" d="M337.3,6033.6l-2.815,6.4h-5.067l12.387-28.112h5.067L359.255,6040h-5.067l-2.816-6.4Zm12.146-4.384-5.108-11.582-5.107,11.582Z" fill="#add150"/>
      </g>
    </g>
    <g id="Grupo_97" data-name="Grupo 97">
      <path id="Trazado_153" data-name="Trazado 153" d="M372.968,6123.616c-2.388,1.371-5.719,3.723-8.4,5.614l-1.626,1.143a7.353,7.353,0,0,0-6.068-.07,65.159,65.159,0,0,0-8.4,4.47,25.37,25.37,0,0,0-12.969-2.848h-7.189c-12.126,0-21.626,8.971-21.626,20.427h0l0,4.805v6.007h2.4v-4.806h21.628v4.806h2.4v-6.007c-.012-3.542,1.369-3.826,6.16-4.272,4.891-.452,12.286-1.138,20.4-8.259-.04.036,22.247-17.771,22.247-17.771l.029-1.854C380.186,6123.492,376.166,6121.779,372.968,6123.616Zm-14.814,19.17c-7.574,6.638-14.227,7.256-19.086,7.706-4.154.386-7.777.732-8.275,5.465H309.1l0-3.6,0,0c0-10.1,8.445-18.02,19.224-18.02h7.212a22.827,22.827,0,0,1,12.384,2.867l1.243-.022a63.765,63.765,0,0,1,8.676-4.67,5.044,5.044,0,0,1,4.374.189l-12.4,8.575c-2.62,1.471-7.491,1.471-10.716,1.471a17.149,17.149,0,0,0-6.506,1.311l1,2.185,0,0a14.9,14.9,0,0,1,5.511-1.095c3.475,0,8.726,0,11.989-1.838.093-.058,13.915-9.612,13.915-9.612l.168-1.838c-.018-.021-.044-.04-.064-.06l.856-.6c2.638-1.862,5.918-4.181,8.207-5.5,1.578-.906,3.578-.371,4.968.327Zm-32.233,20.378h2.4v-2.4h-2.4Z" fill="#8a8686"/>
      <path id="Trazado_154" data-name="Trazado 154" d="M364.533,6104.96l-.666-2.049-12.17-1.768-5.461-11.777h-2.179l-5.458,11.777-12.173,1.768-.665,2.049,8.82,8.6L332.5,6125.7l1.744,1.267,10.908-5.73,10.9,5.73,1.744-1.267-2.086-12.14Zm-18.826,13.854h-1.119l-9.311,4.894,1.78-10.362-.345-1.067-7.531-7.34,10.408-1.51.918-.684,4.641-10.015,4.642,10.015.919.684,10.4,1.51-7.532,7.34-.344,1.067,1.78,10.361Zm17.172-1.343,4.8,1.2.585-2.332-4.806-1.2Zm-2.961,3.288,3.6,3.6,1.7-1.7-3.606-3.607Zm-33.087-5.621-4.8,1.2.583,2.332,4.8-1.2Zm-1.758,7.528,1.7,1.7,3.606-3.6-1.7-1.7Zm38.39-25.622,4.806-1.2-.585-2.332-4.8,1.2Zm1.759-7.525-1.7-1.7-3.6,3.6,1.7,1.7Zm-37.808,5.195-4.8-1.2-.583,2.332,4.8,1.2Zm2.963-3.289-3.606-3.6-1.7,1.7,3.6,3.6Z" fill="#8a8686"/>
    </g>
    <text id="Como_fenómeno" data-name="Como fenómeno" transform="translate(272.927 6240.666)" fill="#444242" font-size="18" font-family="Montserrat-SemiBold, Montserrat" font-weight="600"><tspan x="0" y="0">Como fenómeno</tspan></text>
    <text id="Es_la_expresión_o_pretensión_más_o_menos_explícita_de_un_futuro_que_es_idealizado_para_movilizar_el_presente_con_el_fin_de_desplazarse_en_la_dirección_de_este_futuro_potencial_Van_der_Helm_2009_p.100_._" data-name="Es “la expresión o pretensión más o menos explícita de un futuro que es idealizado para movilizar el presente con el fin de desplazarse en la dirección de este futuro potencial” (Van der Helm, 2009, p.100).










" transform="translate(221.84 6273.227)" fill="#444242" font-size="16" font-family="OpenSans, Open Sans"><tspan x="0" y="17">Es “la expresión o pretensión más </tspan><tspan x="0" y="39">o menos explícita de un futuro </tspan><tspan x="0" y="61">que es idealizado para movilizar el </tspan><tspan x="0" y="83">presente con el fin de desplazarse </tspan><tspan x="0" y="105">en la dirección de este futuro </tspan><tspan x="0" y="127">potencial” (Van der Helm, 2009, </tspan><tspan x="0" y="149">p.100).</tspan><tspan x="0" y="171"></tspan><tspan x="0" y="193"></tspan><tspan x="0" y="215"></tspan><tspan x="0" y="237"></tspan><tspan x="0" y="259"></tspan></text>
  </g>
</svg>
