<svg xmlns="http://www.w3.org/2000/svg" width="442" height="102.332" viewBox="0 0 442 102.332">
  <g id="Grupo_106" data-name="Grupo 106" transform="translate(-505.263 -2136.303)">
    <g id="Grupo_28" data-name="Grupo 28">
      <path id="Trazado_32" data-name="Trazado 32" d="M505.263,2227.957v-80.976a9.515,9.515,0,0,1,.231-2.084,9.746,9.746,0,0,1,.683-2,10.36,10.36,0,0,1,1.108-1.846,11.063,11.063,0,0,1,1.493-1.618,11.81,11.81,0,0,1,1.818-1.328,12.612,12.612,0,0,1,2.075-.987,13.037,13.037,0,0,1,2.251-.607,13.389,13.389,0,0,1,2.341-.205h418a13.389,13.389,0,0,1,2.341.205,13.037,13.037,0,0,1,2.251.607,12.61,12.61,0,0,1,2.075.987,11.81,11.81,0,0,1,1.818,1.328,11.01,11.01,0,0,1,1.493,1.618,10.428,10.428,0,0,1,1.109,1.846,9.8,9.8,0,0,1,.682,2,9.515,9.515,0,0,1,.231,2.084v80.976a9.507,9.507,0,0,1-.231,2.083,9.777,9.777,0,0,1-.682,2,10.393,10.393,0,0,1-1.109,1.846,10.961,10.961,0,0,1-1.493,1.618,11.745,11.745,0,0,1-1.818,1.328,12.454,12.454,0,0,1-2.075.987,13.128,13.128,0,0,1-2.251.608,13.484,13.484,0,0,1-2.341.205h-418a13.484,13.484,0,0,1-2.341-.205,13.128,13.128,0,0,1-2.251-.608,12.455,12.455,0,0,1-2.075-.987,11.745,11.745,0,0,1-1.818-1.328,11.014,11.014,0,0,1-1.493-1.618,10.325,10.325,0,0,1-1.108-1.846,9.726,9.726,0,0,1-.683-2A9.507,9.507,0,0,1,505.263,2227.957Z" fill="#d8d9dd"/>
      <path id="Trazado_33" data-name="Trazado 33" d="M549.508,2154.969a4.094,4.094,0,0,0-4.082,4.081v57.144a4.094,4.094,0,0,0,4.082,4.082h40.817a4.094,4.094,0,0,0,4.082-4.082v-44.9l-16.327-16.327Z" fill="#f2f2f2"/>
      <path id="Rectángulo_22" data-name="Rectángulo 22" d="M2.041,0h44.9a2.041,2.041,0,0,1,2.041,2.041V22.45a2.04,2.04,0,0,1-2.04,2.04H2.04A2.04,2.04,0,0,1,0,22.45V2.041A2.041,2.041,0,0,1,2.041,0Z" transform="translate(537.263 2185.582)" fill="red" opacity="0.9"/>
      <path id="Trazado_34" data-name="Trazado 34" d="M559.286,2194.649v7.311h2.708c4.406,0,4.6-7.311,0-7.311Zm-1.021,9.3a1.02,1.02,0,0,1-1.121-.908c0-.038-.005-.075-.005-.112v-9.27a1.109,1.109,0,0,1,1.126-1.02H562c7.458,0,7.294,11.292.147,11.292Z" fill="#fff"/>
      <path id="Trazado_35" data-name="Trazado 35" d="M571.941,2194.786v2.594H576.1a1.261,1.261,0,0,1,1.176,1.157,1.136,1.136,0,0,1-1.176.98h-4.161v3.426a.966.966,0,0,1-.923,1.009.443.443,0,0,1-.054,0,1.037,1.037,0,0,1-1.151-.909c0-.033-.006-.067-.007-.1v-9.269a1.029,1.029,0,0,1,1.158-1.021h5.728a1.021,1.021,0,0,1,1.136.891,1.115,1.115,0,0,1-1.135,1.24h-4.752Z" fill="#fff"/>
      <path id="Trazado_36" data-name="Trazado 36" d="M582.162,2171.3h12.245l-16.327-16.327v12.245A4.094,4.094,0,0,0,582.162,2171.3Z" fill="#b3b3b3"/>
      <path id="Trazado_37" data-name="Trazado 37" d="M547.579,2194.16v4.066H550.3a2.041,2.041,0,0,0,0-4.066Zm-2.153-.928a1.123,1.123,0,0,1,1.108-1.127h3.77a4.082,4.082,0,0,1,0,8.164h-2.723v2.155a1.019,1.019,0,0,1-.91,1.119.862.862,0,0,1-.135.005,1.1,1.1,0,0,1-1.108-1.091v-.033Z" fill="#fff"/>
    </g>
    <path id="Trazado_38" data-name="Trazado 38" d="M584.2,2211.072H545.426v2.041H584.2a2.041,2.041,0,0,0,2.041-2.041v-2.041A2.041,2.041,0,0,1,584.2,2211.072Z" fill="#e6e6e6"/>
    <text id="Anexo_1._Presentación_Gobernanza_" data-name="Anexo 1.
Presentación Gobernanza 



" transform="translate(611.858 2168.058)" fill="#444242" font-size="16" font-family="OpenSans-Bold, Open Sans" font-weight="700"><tspan x="0" y="17">Anexo 1.</tspan><tspan font-family="OpenSans, Open Sans" font-weight="400"><tspan x="0" y="39">Presentación Gobernanza </tspan><tspan x="0" y="61"></tspan></tspan></text>
  </g>
</svg>
