<svg xmlns="http://www.w3.org/2000/svg" width="348.274" height="543.374" viewBox="0 0 348.274 543.374">
  <g id="Grupo_110" data-name="Grupo 110" transform="translate(-549.584 -6012.068)">
    <path id="Trazado_144" data-name="Trazado 144" d="M744.165,6209.443,723.721,6189l-20.444,20.444H549.584v305.782a40.217,40.217,0,0,0,40.217,40.217h267.84a40.216,40.216,0,0,0,40.217-40.217V6209.443Z" fill="#80cfa1" opacity="0.8"/>
    <g id="Grupo_84" data-name="Grupo 84">
      <rect id="Rectángulo_42" data-name="Rectángulo 42" width="308.057" height="479.919" rx="20.109" transform="translate(569.692 6055.414)" fill="none" stroke="#4a4a4a" stroke-linecap="round" stroke-linejoin="round" stroke-width="8"/>
    </g>
    <g id="Grupo_90" data-name="Grupo 90">
      <g id="Grupo_89" data-name="Grupo 89">
        <path id="Trazado_147" data-name="Trazado 147" d="M725.732,6040.18H713.425v-28.112h10.939a15.776,15.776,0,0,1,4.927.684,6.753,6.753,0,0,1,3.076,1.85,7.182,7.182,0,0,1,1.931,4.906,5.8,5.8,0,0,1-2.091,4.907,9.248,9.248,0,0,1-1.046.7q-.282.142-1.005.463a7.376,7.376,0,0,1,4.162,2.353,6.551,6.551,0,0,1,1.549,4.443,7.56,7.56,0,0,1-2.011,5.188Q731.482,6040.181,725.732,6040.18Zm-7.561-16.449H724.2q5.148,0,5.148-3.5a3.305,3.305,0,0,0-1.247-2.9,6.738,6.738,0,0,0-3.86-.884h-6.073Zm0,12.065h7.44a7.93,7.93,0,0,0,4-.824,3.32,3.32,0,0,0,1.387-3.117q0-3.741-5.992-3.741h-6.837Z" fill="#80cfa1"/>
      </g>
    </g>
    <g id="Grupo_96" data-name="Grupo 96">
      <path id="Trazado_151" data-name="Trazado 151" d="M721.013,6141.062h2.428V6124.05h-2.428Zm14.226-38.529-3.645-3.647-.857-.355h-4.9a6.166,6.166,0,0,0,.688-.565,6.23,6.23,0,1,0-7.907.565h-4.895l-.86.355-3.645,3.647-.359.857V6120.4l1.217,1.217h4.86v19.441h2.432v-35.238h-2.432v13.365h-3.645V6103.9l2.933-2.935h16.009l2.931,2.935v15.293H729.52v-13.365h-2.43v35.238h2.43v-19.441h4.861l1.215-1.217V6103.39Zm-13.012-5.216a3.651,3.651,0,1,1,2.578-1.071A3.613,3.613,0,0,1,722.227,6097.317Z" fill="#8a8686"/>
      <path id="Trazado_152" data-name="Trazado 152" d="M758.685,6148.355H735.6v-4.861l-1.215-1.215h-24.3l-1.217,1.215v10.935H685.772l-1.215,1.217v6.076l1.215,1.216h72.913l1.215-1.216V6149.57Zm-49.826,12.153H686.987v-3.647h21.872Zm24.3,0H711.291v-15.8h21.873Zm24.3,0H735.6v-9.723h21.872Zm-34.027-10.938h-2.428v6.076h2.428Zm24.3-63.191h-2.428v3.647h2.428Zm3.648,6.076v-2.429h-3.648v2.429Zm-6.076,3.647h2.428v-3.647h-2.428Zm0-6.076h-3.646v2.429h3.646ZM699.139,6127.7h-2.43v3.645h2.43Zm3.647,6.074v-2.429h-3.647v2.429Zm-6.077,3.648h2.43v-3.648h-2.43Zm0-6.077h-3.646v2.429h3.646Z" fill="#8a8686"/>
    </g>
    <text id="Como_un_elemento_que_invita_a_la_acción" data-name="Como un elemento que
 invita a la acción" transform="translate(722.228 6236.667)" fill="#444242" font-size="18" font-family="Montserrat-SemiBold, Montserrat" font-weight="600"><tspan x="-109.683" y="0">Como un elemento que</tspan><tspan x="-79.686" y="21.6" xml:space="preserve"> invita a la acción</tspan></text>
    <text id="_La_visión_no_debe_ser_letra_muerta_en_un_papel_sino_un_enunciado_vivo_que_nos_mueve_a_la_acción_mediante_un_pensamiento_compartido_por_un_grupo_de_personas_el_cual_es_intensamente_sentido_por_estas_las_cuales_creen_que_es_posible_lograrlo_y_por_eso_cont" data-name="“La visión no debe ser letra muerta en un papel sino un enunciado vivo que nos mueve a la acción mediante un pensamiento compartido por un grupo de personas, el cual es intensamente sentido por estas, las cuales creen que es posible lograrlo y por eso cont" transform="translate(605.792 6273.227)" fill="#444242" font-size="16" font-family="OpenSans, Open Sans"><tspan x="0" y="17">“La visión no debe ser letra muerta </tspan><tspan x="0" y="39">en un papel sino un enunciado </tspan><tspan x="0" y="61">vivo que nos mueve a la acción </tspan><tspan x="0" y="83">mediante un pensamiento </tspan><tspan x="0" y="105">compartido por un grupo de </tspan><tspan x="0" y="127">personas, el cual es intensamente </tspan><tspan x="0" y="149">sentido por estas, las cuales creen </tspan><tspan x="0" y="171">que es posible lograrlo y por eso </tspan><tspan x="0" y="193">contribuyen para su </tspan><tspan x="0" y="215">consecución” (Bezold, 2009).</tspan><tspan x="0" y="237"></tspan><tspan x="0" y="259"></tspan></text>
  </g>
</svg>
