<svg xmlns="http://www.w3.org/2000/svg" width="447.558" height="357.049" viewBox="0 0 447.558 357.049">
  <g id="Grupo_102" data-name="Grupo 102" transform="translate(-820.657 -4324.23)">
    <rect id="Rectángulo_29" data-name="Rectángulo 29" width="316.601" height="345.758" transform="translate(885.146 4324.23)" fill="#d8efdd"/>
    <ellipse id="Elipse_13" data-name="Elipse 13" cx="49.502" cy="49.491" rx="49.502" ry="49.491" transform="translate(1169.212 4457.28)" fill="#fff"/>
    <ellipse id="Elipse_14" data-name="Elipse 14" cx="29.489" cy="29.482" rx="29.489" ry="29.482" transform="translate(1189.225 4477.289)" fill="#d8efdd"/>
    <ellipse id="Elipse_15" data-name="Elipse 15" cx="49.502" cy="49.491" rx="49.502" ry="49.491" transform="translate(820.657 4457.28)" fill="#fff"/>
    <text id="La_confianza" data-name="La confianza" transform="translate(927.927 4435.977)" fill="#003830" font-size="24" font-family="Montserrat-Bold, Montserrat" font-weight="700"><tspan x="0" y="0">La confianza</tspan></text>
    <text id="Es_la_credibilidad_que_vamos_a_dar_al_otro_y_también_juega_un_rol_importante_en_este_proceso._Finalmente_está_el_control_el_cual_hace_referencia_a_los_mecanismos_de_control_que_deben_existir_para_regular_la_Gobernanza._" data-name="Es la credibilidad que vamos a dar al otro y también juega un rol importante en este proceso.
Finalmente, está el control el cual hace referencia a los mecanismos de control que deben existir para regular la Gobernanza.








" transform="translate(927.927 4453.037)" fill="#444242" font-size="16" font-family="OpenSans, Open Sans"><tspan x="0" y="17">Es la credibilidad que vamos a </tspan><tspan x="0" y="39">dar al otro y también juega un </tspan><tspan x="0" y="61">rol importante en este proceso.</tspan><tspan x="0" y="83">Finalmente, está el control el </tspan><tspan x="0" y="105">cual hace referencia a los </tspan><tspan x="0" y="127">mecanismos de control que </tspan><tspan x="0" y="149">deben existir para regular la </tspan><tspan x="0" y="171">Gobernanza.</tspan><tspan x="0" y="193"></tspan><tspan x="0" y="215"></tspan></text>
    <rect id="Rectángulo_34" data-name="Rectángulo 34" width="316.601" height="12.2" transform="translate(885.146 4324.23)" fill="#003830"/>
    <rect id="Rectángulo_37" data-name="Rectángulo 37" width="316.601" height="12.2" transform="translate(885.146 4669.079)" fill="#003830"/>
    <g id="handshake" transform="translate(-23 2)" opacity="0.8">
      <g id="Grupo_58" data-name="Grupo 58">
        <path id="Trazado_113" data-name="Trazado 113" d="M1047.8,4364.967c-2.614,2.156-1.348,8.267,4.746,4.583,0,0,7.448-3.733,11.8-6.2.949-.538,1.583-.359,2.375.541.87.628,20.582,22.644,20.582,22.644s6.076-4.615,8.451-9.468c0,0-5.461-10.267-10.666-20.456-1.509.856-2.8,1.665-4.529,1.173-1.792-.509-3.276-1.911-4.9-2.852a14.912,14.912,0,0,0-5.467-2.338c-3.046-.435-5.445.928-8.069,2.435-2.984,1.712-5.882,3.636-8.716,5.647Q1050.534,4362.708,1047.8,4364.967Z" fill="#003830"/>
        <path id="Trazado_114" data-name="Trazado 114" d="M1051.622,4399.253a3.66,3.66,0,0,1,.437-4.7l6.255-5.694a2.706,2.706,0,0,1,4.145.4h0a3.661,3.661,0,0,1-.436,4.7l-6.251,5.694a2.713,2.713,0,0,1-4.15-.4Z" fill="#003830"/>
        <path id="Trazado_115" data-name="Trazado 115" d="M1045.851,4394.009a3.656,3.656,0,0,1,.437-4.7l4.934-4.491a2.71,2.71,0,0,1,4.146.4h0a3.661,3.661,0,0,1-.436,4.7l-4.931,4.492a2.714,2.714,0,0,1-4.15-.4Z" fill="#003830"/>
        <path id="Trazado_116" data-name="Trazado 116" d="M1038.867,4389.724a3.647,3.647,0,0,1,.666-4.664l1.1-.861a2.722,2.722,0,0,1,4.122.657l.066.083a3.545,3.545,0,0,1-.73,4.582l-1.1.859a2.721,2.721,0,0,1-4.124-.656Z" fill="#003830"/>
        <path id="Trazado_117" data-name="Trazado 117" d="M1066.505,4396.059a2.709,2.709,0,0,0-4.16-.166l-2.7,2.8a3.667,3.667,0,0,0-.233,4.716,2.708,2.708,0,0,0,4.161.167l2.7-2.8A3.665,3.665,0,0,0,1066.505,4396.059Z" fill="#003830"/>
        <path id="Trazado_118" data-name="Trazado 118" d="M1105.053,4372.442a1.639,1.639,0,0,1-.54,2.244l-4.535,2.391a1.639,1.639,0,0,1-2.143-.853l-10.779-20.82a1.639,1.639,0,0,1,.542-2.244l4.535-2.389a1.64,1.64,0,0,1,2.146.852Z" fill="#003830"/>
      </g>
      <g id="Grupo_59" data-name="Grupo 59">
        <path id="Trazado_119" data-name="Trazado 119" d="M1028.228,4376.024a1.6,1.6,0,0,1-1.934,1.134l-4.577-1.589a1.606,1.606,0,0,1-.706-2.13l8.258-21.94a1.6,1.6,0,0,1,1.937-1.134l4.576,1.591a1.6,1.6,0,0,1,.706,2.13Z" fill="#003830"/>
        <path id="Trazado_120" data-name="Trazado 120" d="M1087.052,4389.228l-.013-.014a2.549,2.549,0,0,1-.612,1.347,2.94,2.94,0,0,1-2.2,1.019,3.079,3.079,0,0,1-2.322-1.108l-7.786-8.83a.662.662,0,0,0-.514-.249c-.745,0-1.566,1.222-.9,1.925l6.392,7.063a3.763,3.763,0,0,1,.037,4.9,2.586,2.586,0,0,1-1.949.919,3.077,3.077,0,0,1-2.288-1.145l-7.324-8.161a.683.683,0,0,0-.584-.37,1.2,1.2,0,0,0-.687,1.972l5.633,6.458a3.662,3.662,0,0,1-.081,4.761,2.464,2.464,0,0,1-1.857.877,2.628,2.628,0,0,1-1.164-.283,5.522,5.522,0,0,1-1.026,1.722,4.544,4.544,0,0,0,2.19.592,4.368,4.368,0,0,0,3.268-1.516,5.767,5.767,0,0,0,1.443-3.612,4.7,4.7,0,0,0,2.477.736,4.488,4.488,0,0,0,3.364-1.562,5.657,5.657,0,0,0,1.406-3.633,4.753,4.753,0,0,0,5.888-1.081,5.02,5.02,0,0,0,1.186-2.869,2.11,2.11,0,0,0-.194-1.216c-.221.176-.363.285-.4.313Z" fill="#003830"/>
        <path id="Trazado_121" data-name="Trazado 121" d="M1038.322,4383.473l.028-.023.028-.022.464-.362c-3.82-3.879-6.157-6.731-6.157-6.731,3.669-9.344,7.818-20.731,7.818-20.731-.034.645,2.138,1.8,2.575,1.973a6.121,6.121,0,0,0,2.289.43,6.558,6.558,0,0,0,.659-.033c2.289-.231,4.44-1.552,6.463-2.691a10.125,10.125,0,0,1,4.644-1.554,3.879,3.879,0,0,1,2.166.636c.612-.373,1.216-.729,1.807-1.071a2,2,0,0,0-.344-.356,5.683,5.683,0,0,0-3.629-1.24,11.936,11.936,0,0,0-5.562,1.795l-.528.3a14.465,14.465,0,0,1-5.2,2.161c-.155.015-.316.023-.473.023a4.285,4.285,0,0,1-1.595-.295,8.748,8.748,0,0,1-1.494-.894,1.963,1.963,0,0,0-1.37-1.169,1.854,1.854,0,0,0-.406-.045,1.942,1.942,0,0,0-1.809,1.307c-.041.113-4.183,11.47-7.8,20.681a2.106,2.106,0,0,0,.322,2.1c.1.122,2.412,2.936,6.209,6.8A5.311,5.311,0,0,1,1038.322,4383.473Z" fill="#003830"/>
      </g>
    </g>
  </g>
</svg>
