<svg xmlns="http://www.w3.org/2000/svg" width="444.247" height="357.049" viewBox="0 0 444.247 357.049">
  <g id="Grupo_102" data-name="Grupo 102" transform="translate(-131.171 -4324.23)">
    <ellipse id="Elipse_17" data-name="Elipse 17" cx="49.502" cy="49.491" rx="49.502" ry="49.491" transform="translate(476.414 4457.28)" fill="#fff"/>
    <rect id="Rectángulo_31" data-name="Rectángulo 31" width="316.601" height="342.959" transform="translate(196.841 4327.03)" fill="#d8efdd"/>
    <ellipse id="Elipse_18" data-name="Elipse 18" cx="29.489" cy="29.482" rx="29.489" ry="29.482" transform="translate(496.427 4477.289)" fill="#d8efdd"/>
    <ellipse id="Elipse_19" data-name="Elipse 19" cx="49.502" cy="49.491" rx="49.502" ry="49.491" transform="translate(131.171 4457.28)" fill="#fff"/>
    <ellipse id="Elipse_20" data-name="Elipse 20" cx="29.489" cy="29.482" rx="29.489" ry="29.482" transform="translate(151.184 4477.289)" fill="#d8efdd"/>
    <text id="La_coordinación" data-name="La coordinación" transform="translate(249.927 4455.977)" fill="#003830" font-size="24" font-family="Montserrat-Bold, Montserrat" font-weight="700"><tspan x="0" y="0">La coordinación</tspan></text>
    <text id="Garantiza_acuerdos_entre_los_actores_cómo_cuándo_y_quién_va_a_hacer_las_cosas_es_el_elemento_más_importante_de_la_Gobernanza._Al_identificarlos_se_puede_comprender_y_analizar_un_sistema._" data-name="Garantiza acuerdos entre los actores, cómo, cuándo y quién va a hacer las cosas, es el elemento más importante de la Gobernanza. Al identificarlos se puede comprender y analizar un sistema.










" transform="translate(249.927 4473.037)" fill="#444242" font-size="16" font-family="OpenSans, Open Sans"><tspan x="0" y="17">Garantiza acuerdos entre los </tspan><tspan x="0" y="39">actores, cómo, cuándo y quién </tspan><tspan x="0" y="61">va a hacer las cosas, es el </tspan><tspan x="0" y="83">elemento más importante de la </tspan><tspan x="0" y="105">Gobernanza. Al identificarlos se </tspan><tspan x="0" y="127">puede comprender y analizar </tspan><tspan x="0" y="149">un sistema.</tspan><tspan x="0" y="171"></tspan><tspan x="0" y="193"></tspan></text>
    <rect id="Rectángulo_32" data-name="Rectángulo 32" width="316.601" height="12.2" transform="translate(196.841 4324.23)" fill="#003830"/>
    <rect id="Rectángulo_35" data-name="Rectángulo 35" width="316.601" height="12.2" transform="translate(196.841 4669.079)" fill="#003830"/>
    <g id="Grupo_81" data-name="Grupo 81" transform="translate(-23 2)" opacity="0.8">
      <g id="Grupo_62" data-name="Grupo 62">
        <g id="Grupo_60" data-name="Grupo 60">
          <path id="Trazado_122" data-name="Trazado 122" d="M360.107,4413.984a1.148,1.148,0,0,0,.567.91c.791.457,2.636,1.159,6.537,1.191a16.975,16.975,0,0,0,7.156-1.168,1.28,1.28,0,0,0,.738-1.167v-2.062a6.534,6.534,0,0,0-.186-1.575c-.461-1.855-2-5.622-6.872-5.385-2.112.1-2.817.192-2.817.192h0a5.026,5.026,0,0,0-2.731,1.459A9.568,9.568,0,0,0,360.107,4413.984Z" fill="#003830"/>
          <path id="Trazado_123" data-name="Trazado 123" d="M367.454,4416.364h-.245c-3.813-.03-5.734-.684-6.675-1.228a1.419,1.419,0,0,1-.7-1.131h0a9.832,9.832,0,0,1,2.468-7.817,5.266,5.266,0,0,1,2.883-1.541c.045-.006.755-.094,2.853-.2,5.15-.252,6.718,3.83,7.157,5.6a6.852,6.852,0,0,1,.193,1.641v2.062a1.562,1.562,0,0,1-.9,1.42A17,17,0,0,1,367.454,4416.364ZM368.483,4405c-.138,0-.278,0-.423.01-2.069.1-2.788.189-2.795.19a4.717,4.717,0,0,0-2.565,1.376,9.289,9.289,0,0,0-2.315,7.392h0a.875.875,0,0,0,.428.688c.722.417,2.514,1.122,6.4,1.153a16.779,16.779,0,0,0,7.038-1.142,1,1,0,0,0,.575-.914v-2.062a6.258,6.258,0,0,0-.177-1.508C374.161,4408.217,372.715,4405,368.483,4405Z" fill="#003830"/>
        </g>
        <g id="Grupo_61" data-name="Grupo 61">
          <circle id="Elipse_21" data-name="Elipse 21" cx="4.527" cy="4.527" r="4.527" transform="matrix(0.171, -0.985, 0.985, 0.171, 362.353, 4405.723)" fill="#003830"/>
          <path id="Trazado_124" data-name="Trazado 124" d="M367.589,4406.844a4.806,4.806,0,1,1,4.806-4.806A4.812,4.812,0,0,1,367.589,4406.844Zm0-9.055a4.249,4.249,0,1,0,4.249,4.249A4.254,4.254,0,0,0,367.589,4397.789Z" fill="#003830"/>
        </g>
      </g>
      <g id="Grupo_65" data-name="Grupo 65">
        <g id="Grupo_63" data-name="Grupo 63">
          <path id="Trazado_125" data-name="Trazado 125" d="M360.107,4366.532a1.144,1.144,0,0,0,.567.909c.791.458,2.636,1.16,6.537,1.191a16.959,16.959,0,0,0,7.156-1.168,1.28,1.28,0,0,0,.738-1.167v-2.061a6.521,6.521,0,0,0-.186-1.575c-.461-1.855-2-5.622-6.872-5.385-2.112.1-2.817.191-2.817.191h0a5.024,5.024,0,0,0-2.731,1.46A9.568,9.568,0,0,0,360.107,4366.532Z" fill="#003830"/>
          <path id="Trazado_126" data-name="Trazado 126" d="M367.454,4368.912h-.245c-3.813-.031-5.734-.685-6.675-1.229a1.42,1.42,0,0,1-.7-1.131h0a9.834,9.834,0,0,1,2.468-7.817,5.275,5.275,0,0,1,2.883-1.541c.045-.006.755-.094,2.853-.195,5.15-.252,6.718,3.83,7.157,5.6a6.848,6.848,0,0,1,.193,1.642v2.061a1.56,1.56,0,0,1-.9,1.42A17,17,0,0,1,367.454,4368.912Zm1.029-11.368c-.138,0-.278,0-.423.01-2.069.1-2.788.189-2.795.19a4.7,4.7,0,0,0-2.565,1.376,9.288,9.288,0,0,0-2.315,7.392h0a.875.875,0,0,0,.428.688c.722.418,2.514,1.122,6.4,1.153a16.779,16.779,0,0,0,7.038-1.142,1,1,0,0,0,.575-.914v-2.061a6.249,6.249,0,0,0-.177-1.508C374.161,4360.765,372.715,4357.544,368.483,4357.544Z" fill="#003830"/>
        </g>
        <g id="Grupo_64" data-name="Grupo 64">
          <circle id="Elipse_22" data-name="Elipse 22" cx="4.527" cy="4.527" r="4.527" transform="translate(363.061 4350.058)" fill="#003830"/>
          <path id="Trazado_127" data-name="Trazado 127" d="M367.589,4359.392a4.806,4.806,0,1,1,4.806-4.806A4.812,4.812,0,0,1,367.589,4359.392Zm0-9.055a4.249,4.249,0,1,0,4.249,4.249A4.254,4.254,0,0,0,367.589,4350.337Z" fill="#003830"/>
        </g>
      </g>
      <g id="Grupo_68" data-name="Grupo 68">
        <g id="Grupo_66" data-name="Grupo 66">
          <path id="Trazado_128" data-name="Trazado 128" d="M335.712,4393.89a1.149,1.149,0,0,0,.566.91c.791.457,2.637,1.159,6.538,1.19a16.984,16.984,0,0,0,7.156-1.167,1.284,1.284,0,0,0,.738-1.168v-2.061a6.524,6.524,0,0,0-.186-1.575c-.461-1.855-2-5.622-6.873-5.385-2.111.1-2.816.192-2.816.192h0a5.017,5.017,0,0,0-2.732,1.459A9.566,9.566,0,0,0,335.712,4393.89Z" fill="#003830"/>
          <path id="Trazado_129" data-name="Trazado 129" d="M343.058,4396.27h-.244c-3.813-.031-5.735-.685-6.675-1.228a1.417,1.417,0,0,1-.705-1.132h0a9.837,9.837,0,0,1,2.468-7.817,5.278,5.278,0,0,1,2.883-1.541c.044-.006.755-.094,2.853-.195,5.15-.252,6.718,3.83,7.156,5.6a6.807,6.807,0,0,1,.194,1.642v2.061a1.56,1.56,0,0,1-.9,1.42A17,17,0,0,1,343.058,4396.27Zm1.03-11.368c-.138,0-.279,0-.423.01-2.069.1-2.788.189-2.8.19a4.7,4.7,0,0,0-2.565,1.376,9.288,9.288,0,0,0-2.315,7.392h0a.875.875,0,0,0,.428.688c.722.417,2.514,1.122,6.4,1.153a16.767,16.767,0,0,0,7.037-1.143,1,1,0,0,0,.576-.914v-2.061a6.313,6.313,0,0,0-.177-1.508C349.766,4388.123,348.32,4384.9,344.088,4384.9Z" fill="#003830"/>
        </g>
        <g id="Grupo_67" data-name="Grupo 67">
          <circle id="Elipse_23" data-name="Elipse 23" cx="4.527" cy="4.527" r="4.527" transform="matrix(0.098, -0.995, 0.995, 0.098, 338.246, 4386.007)" fill="#003830"/>
          <path id="Trazado_130" data-name="Trazado 130" d="M343.194,4386.75a4.806,4.806,0,1,1,4.806-4.806A4.811,4.811,0,0,1,343.194,4386.75Zm0-9.055a4.249,4.249,0,1,0,4.248,4.249A4.254,4.254,0,0,0,343.194,4377.695Z" fill="#003830"/>
        </g>
      </g>
      <g id="Grupo_71" data-name="Grupo 71">
        <g id="Grupo_69" data-name="Grupo 69">
          <path id="Trazado_131" data-name="Trazado 131" d="M384.243,4393.89a1.149,1.149,0,0,0,.566.91c.791.457,2.637,1.159,6.538,1.19a16.984,16.984,0,0,0,7.156-1.167,1.284,1.284,0,0,0,.738-1.168v-2.061a6.524,6.524,0,0,0-.186-1.575c-.461-1.855-2-5.622-6.873-5.385-2.111.1-2.816.192-2.816.192h0a5.017,5.017,0,0,0-2.732,1.459A9.566,9.566,0,0,0,384.243,4393.89Z" fill="#003830"/>
          <path id="Trazado_132" data-name="Trazado 132" d="M391.589,4396.27h-.244c-3.813-.031-5.735-.685-6.675-1.228a1.417,1.417,0,0,1-.705-1.132h0a9.837,9.837,0,0,1,2.468-7.817,5.278,5.278,0,0,1,2.883-1.541c.044-.006.755-.094,2.853-.195,5.15-.252,6.718,3.83,7.156,5.6a6.807,6.807,0,0,1,.194,1.642v2.061a1.56,1.56,0,0,1-.9,1.42A17,17,0,0,1,391.589,4396.27Zm1.03-11.368c-.138,0-.279,0-.423.01-2.069.1-2.788.189-2.8.19a4.7,4.7,0,0,0-2.565,1.376,9.288,9.288,0,0,0-2.315,7.392h0a.875.875,0,0,0,.428.688c.722.417,2.514,1.122,6.4,1.153a16.767,16.767,0,0,0,7.037-1.143,1,1,0,0,0,.576-.914v-2.061a6.313,6.313,0,0,0-.177-1.508C398.3,4388.123,396.851,4384.9,392.619,4384.9Z" fill="#003830"/>
        </g>
        <g id="Grupo_70" data-name="Grupo 70">
          <circle id="Elipse_24" data-name="Elipse 24" cx="4.527" cy="4.527" r="4.527" transform="translate(386.538 4385.699) rotate(-80.904)" fill="#003830"/>
          <path id="Trazado_133" data-name="Trazado 133" d="M391.725,4386.75a4.806,4.806,0,1,1,4.806-4.806A4.811,4.811,0,0,1,391.725,4386.75Zm0-9.055a4.249,4.249,0,1,0,4.248,4.249A4.254,4.254,0,0,0,391.725,4377.695Z" fill="#003830"/>
        </g>
      </g>
      <g id="Grupo_73" data-name="Grupo 73">
        <g id="Grupo_72" data-name="Grupo 72">
          <path id="Trazado_134" data-name="Trazado 134" d="M348.411,4375.974l-3.339-2.1c2.94-4.888,5.42-7.045,10.613-9.233l1.494,3.7C352.732,4370.219,350.929,4371.788,348.411,4375.974Z" fill="#003830"/>
        </g>
      </g>
      <g id="Grupo_75" data-name="Grupo 75">
        <g id="Grupo_74" data-name="Grupo 74">
          <path id="Trazado_135" data-name="Trazado 135" d="M386.645,4375.974l3.339-2.1c-2.94-4.888-5.42-7.045-10.613-9.233l-1.495,3.7C382.324,4370.219,384.126,4371.788,386.645,4375.974Z" fill="#003830"/>
        </g>
      </g>
      <g id="Grupo_77" data-name="Grupo 77">
        <g id="Grupo_76" data-name="Grupo 76">
          <path id="Trazado_136" data-name="Trazado 136" d="M387.2,4399.333l3.339,2.094c-2.94,4.888-5.42,7.045-10.613,9.233l-1.494-3.7C382.881,4405.087,384.684,4403.518,387.2,4399.333Z" fill="#003830"/>
        </g>
      </g>
      <g id="Grupo_79" data-name="Grupo 79">
        <g id="Grupo_78" data-name="Grupo 78">
          <path id="Trazado_137" data-name="Trazado 137" d="M347.716,4399.333l-3.339,2.094c2.94,4.888,5.42,7.045,10.613,9.233l1.495-3.7C352.037,4405.087,350.234,4403.518,347.716,4399.333Z" fill="#003830"/>
        </g>
      </g>
      <g id="Grupo_80" data-name="Grupo 80">
        <path id="Trazado_138" data-name="Trazado 138" d="M360.724,4385.728a2.127,2.127,0,1,0,2.645,1.433A2.127,2.127,0,0,0,360.724,4385.728Z" fill="#003830"/>
        <circle id="Elipse_25" data-name="Elipse 25" cx="2.847" cy="2.847" r="2.847" transform="translate(368.328 4379.678) rotate(-15.765)" fill="#003830"/>
        <path id="Trazado_139" data-name="Trazado 139" d="M377.583,4381.107a2.458,2.458,0,0,1,1.24-2.3,7.461,7.461,0,0,0-1.119-1.9,2.457,2.457,0,0,1-3.712-2.48,7.469,7.469,0,0,0-2.182-.312,2.456,2.456,0,0,1-4.255,1.345,7.484,7.484,0,0,0-1.656,1.579,2.455,2.455,0,0,1-1.56,4.177,7.518,7.518,0,0,0,.2,2.2,2.456,2.456,0,0,1,2.286,3.828,7.554,7.554,0,0,0,1.839,1.215,2.456,2.456,0,0,1,4.418.608,7.5,7.5,0,0,0,.911-.205,7.576,7.576,0,0,0,1.187-.473,2.456,2.456,0,0,1,3.235-3.071,7.527,7.527,0,0,0,.786-2.06A2.462,2.462,0,0,1,377.583,4381.107Zm-4.93,3.266a2.847,2.847,0,1,1,1.917-3.54A2.848,2.848,0,0,1,372.653,4384.373Z" fill="#003830"/>
        <path id="Trazado_140" data-name="Trazado 140" d="M365.62,4387.366a1.838,1.838,0,0,1,.927-1.719,5.578,5.578,0,0,0-.836-1.419,1.836,1.836,0,0,1-2.774-1.853,5.607,5.607,0,0,0-1.63-.233,1.836,1.836,0,0,1-3.18,1,5.61,5.61,0,0,0-1.237,1.179,1.835,1.835,0,0,1-1.166,3.122,5.637,5.637,0,0,0,.151,1.641,1.835,1.835,0,0,1,1.708,2.86,5.637,5.637,0,0,0,1.374.908,1.835,1.835,0,0,1,3.3.454,5.781,5.781,0,0,0,.681-.153,5.645,5.645,0,0,0,.886-.354,1.836,1.836,0,0,1,2.418-2.294,5.678,5.678,0,0,0,.587-1.539A1.841,1.841,0,0,1,365.62,4387.366Zm-3.684,2.44a2.127,2.127,0,1,1,1.433-2.645A2.127,2.127,0,0,1,361.936,4389.806Z" fill="#003830"/>
      </g>
    </g>
  </g>
</svg>
