<svg xmlns="http://www.w3.org/2000/svg" width="346.296" height="614.546" viewBox="0 0 346.296 614.546">
  <g id="Grupo_102" data-name="Grupo 102" transform="translate(-538.998 -2550.243)">
    <path id="Trazado_52" data-name="Trazado 52" d="M539,3146.205V2647.548a35.7,35.7,0,0,1,.183-3.625,32.89,32.89,0,0,1,.542-3.487,27.68,27.68,0,0,1,.881-3.213,21.307,21.307,0,0,1,1.185-2.816,15.159,15.159,0,0,1,1.444-2.31,10.082,10.082,0,0,1,1.648-1.718,6.745,6.745,0,0,1,1.788-1.058,5.13,5.13,0,0,1,1.86-.357H875.763a5.121,5.121,0,0,1,1.859.357,6.745,6.745,0,0,1,1.788,1.058,10,10,0,0,1,1.648,1.718,15.081,15.081,0,0,1,1.445,2.31,21.439,21.439,0,0,1,1.185,2.816,27.888,27.888,0,0,1,.881,3.213,32.906,32.906,0,0,1,.542,3.487,35.718,35.718,0,0,1,.183,3.625v498.657a35.759,35.759,0,0,1-.183,3.626,32.922,32.922,0,0,1-.542,3.486,27.8,27.8,0,0,1-.881,3.212,21.4,21.4,0,0,1-1.185,2.817,15.14,15.14,0,0,1-1.445,2.311,10.029,10.029,0,0,1-1.648,1.717,6.7,6.7,0,0,1-1.788,1.057,5.1,5.1,0,0,1-1.859.358H548.529a5.111,5.111,0,0,1-1.86-.358,6.7,6.7,0,0,1-1.788-1.057,10.111,10.111,0,0,1-1.648-1.717,15.219,15.219,0,0,1-1.444-2.311,21.266,21.266,0,0,1-1.185-2.817,27.6,27.6,0,0,1-.881-3.212,32.906,32.906,0,0,1-.542-3.486A35.741,35.741,0,0,1,539,3146.205Z" fill="#f2f2f2"/>
    <path id="Trazado_53" data-name="Trazado 53" d="M718.811,2550.243q3.746,0,7.471.367t7.4,1.1q3.673.731,7.256,1.817t7.043,2.52q3.459,1.433,6.762,3.2t6.416,3.845q3.112,2.081,6.008,4.456t5.542,5.024q2.648,2.647,5.023,5.542t4.456,6.008q2.08,3.114,3.846,6.416t3.2,6.762q1.432,3.459,2.52,7.042t1.817,7.256q.73,3.673,1.1,7.4t.367,7.471q0,3.745-.367,7.471t-1.1,7.4q-.73,3.672-1.817,7.255t-2.52,7.043q-1.434,3.459-3.2,6.762t-3.846,6.416q-2.081,3.112-4.456,6.008t-5.023,5.542q-2.648,2.649-5.542,5.023t-6.008,4.456q-3.114,2.08-6.416,3.846t-6.762,3.2q-3.459,1.433-7.043,2.52t-7.256,1.817q-3.672.732-7.4,1.1t-7.471.367q-3.744,0-7.471-.367t-7.4-1.1q-3.672-.731-7.256-1.817t-7.043-2.52q-3.459-1.434-6.761-3.2t-6.416-3.846q-3.114-2.079-6.008-4.456t-5.543-5.023q-2.648-2.648-5.023-5.542t-4.456-6.008q-2.081-3.114-3.845-6.416t-3.2-6.762q-1.434-3.459-2.52-7.043t-1.818-7.255q-.73-3.673-1.1-7.4t-.367-7.471q0-3.744.367-7.471t1.1-7.4q.73-3.672,1.818-7.256t2.52-7.042q1.432-3.46,3.2-6.762t3.845-6.416q2.081-3.114,4.456-6.008t5.023-5.542q2.649-2.649,5.543-5.024t6.008-4.456q3.112-2.079,6.416-3.845t6.761-3.2q3.46-1.434,7.043-2.52t7.256-1.817q3.672-.732,7.4-1.1T718.811,2550.243Z" fill="#035e4f"/>
    <circle id="Elipse_8" data-name="Elipse 8" cx="71.597" cy="71.597" r="71.597" transform="translate(647.835 2555.489)" fill="#fff"/>
    <line id="Línea_17" data-name="Línea 17" x2="310.319" transform="translate(554.579 2759.334)" fill="none" stroke="#707070" stroke-width="2"/>
    <text id="Corresponde_a_las_instituciones_regionales_que_ayudan_a_gestionar_la_ciencia_la_tecnología_y_la_innovación_como_el_Consejo_Departamental_de_Ciencia_Tecnología_e_Innovación_el_comité_universidad_empresa_estado_entre_otros._" data-name="Corresponde a las instituciones regionales que ayudan a gestionar la ciencia, la tecnología y la innovación como el Consejo Departamental de Ciencia, Tecnología e Innovación, el comité universidad empresa estado, entre otros.




" transform="translate(553.625 2776.903)" fill="#444242" font-size="16" font-family="OpenSans, Open Sans"><tspan x="0" y="17">Corresponde a las instituciones </tspan><tspan x="0" y="39">regionales que ayudan a gestionar la </tspan><tspan x="0" y="61">ciencia, la tecnología y la innovación </tspan><tspan x="0" y="83">como el Consejo Departamental de </tspan><tspan x="0" y="105">Ciencia, Tecnología e Innovación, el </tspan><tspan x="0" y="127">comité universidad empresa estado, </tspan><tspan x="0" y="149">entre otros.</tspan><tspan x="0" y="171"></tspan><tspan x="0" y="193"></tspan></text>
    <text id="La_meso_" data-name="La meso " transform="translate(722.228 2740.572)" fill="#444242" font-size="18" font-family="Montserrat-Bold, Montserrat" font-weight="700"><tspan x="-41.985" y="0">La meso </tspan></text>
    <g id="Grupo_44" data-name="Grupo 44">
      <ellipse id="Elipse_11" data-name="Elipse 11" cx="65.13" cy="65.352" rx="65.13" ry="65.352" transform="translate(654.302 2561.512)" fill="#d8efdd"/>
      <path id="Trazado_83" data-name="Trazado 83" d="M754.37,2605.336a5.03,5.03,0,0,0-6.221-.953,5.1,5.1,0,0,0-1.589,1.459l-.251-.146.058-.1-.376-.217.058-.1-.379-.217.058-.1-.376-.217.061-.1-.379-.217.058-.1-1.728-1-.291.5-.226-.129.057-.1-.375-.217.058-.1-.376-.217.058-.1-.376-.217.058-.1-.375-.218.057-.1-1.731-1-.291.509-.227-.132.061-.1-.378-.217.057-.1-.375-.217.061-.1-.379-.217.057-.1-.375-.221.058-.1-1.728-1-.294.5-.227-.129.061-.1-.375-.217.057-.1-.379-.217.061-.1-.378-.217.06-.1-.378-.217.061-.1-1.295-.749c-.034-.034-.071-.072-.109-.106-.1-.112-10.062-10.107-10.174-10.209a5.048,5.048,0,1,0-7.087,7.176,4.431,4.431,0,0,0,.318.322c.1.109.206.218.314.316s.21.22.322.322.209.217.317.319a4.173,4.173,0,0,0,.318.316c.1.115.21.22.318.322s.21.217.318.319a3.949,3.949,0,0,0,.317.315c.1.113.207.221.318.323s.21.217.318.319c.041.044.085.085.129.129h-.974v1.272l-.169-.3-.1.062-.217-.377-.1.058-.217-.377-.1.058-.216-.38-.1.061-.216-.38-.1.061-.216-.377-.1.058-.22-.38-.1.061-.22-.38-.1.061-.22-.38-.1.061-.22-.38-.1.061-.22-.38-.1.061-.22-.38-.1.061-.217-.38-.1.061-.219-.38-.1.062-.216-.381-.1.062-.216-.38-.1.061-.216-.38-.1.061-.217-.38-1.731,1,1.052,1.825.1-.061.217.38.1-.057.216.376.1-.057.216.376.1-.061.217.38.1-.058.217.377.1-.058.217.377.1-.058.216.377.1-.058.216.377.1-.058.216.377.1-.058.216.377.1-.058.217.377.1-.058.217.377.1-.058.217.376.1-.057.216.376.1-.057.216.376.1-.057.216.376.1-.057.216.376.1-.058.217.377.1-.058.217.377.1-.058.115.2v1.431h.318v.319h.318v.319h.318v.319h.317v.319h.318v.319h.318v.319h.318v.318h.318v.319h.318v.323h.321v.315h.314v.319h.321v.323h.318v.315h.318v.319h.318v.322h.318v.319h.318v.316h.317v.322h.318v.319h.318v.16c-.044-.014-.084-.028-.125-.038v-.03H724.5c-.068-.021-.136-.034-.2-.055v-.264h-.318v-.319h-.317v-.319h-.318v-.319h-.318v-.322h-.318v-.316h-.318v-.319h-.318v-.322h-.317v-.316h-.318v-.319h-.318v-.322H720.8v-.319h-.318v-.319h-.818l-.149-.254-.1.061-.22-.38-.1.061-.22-.38-.1.061-.217-.38-.1.058-.216-.377-.1.058-.216-.377-.1.058-.216-.377-.1.058-.216-.377-.1.058-.217-.377-.1.058-.217-.376-.1.057-.216-.376-.1.057-.216-.376-.1.057-.217-.376-.1.057-.217-.376-.1.057-.217-.376-.1.058-.216-.377-.1.058-.216-.377-.1.058-.216-.377-.1.058-.216-.377-.1.058-.217-.377-.1.058-.217-.377-.1.058-.216-.377-.1.058-.216-.377-.1.055-.216-.374-.1.058-.216-.376-.1.058-.217-.377-.1.054-.217-.373-.1.058-.217-.38-.1.061-.216-.38-.1.057-.216-.373-.1.054-.22-.376-.1.057-.216-.376-.1.058-.22-.377-1.728,1,1.048,1.826.1-.058.216.376.1-.057.217.376.1-.057.217.376.1-.058.216.377.1-.058.216.377.1-.058.216.377.1-.058.216.377.1-.058.22.377.1-.058.217.377.1-.058.22.377.1-.058.22.377.1-.058.22.377.1-.058.22.376.1-.057.219.376.1-.057.22.38.1-.061.216.38.1-.061.216.38.1-.061.217.376.1-.058.217.377.1-.058.217.38.1-.061.216.38.1-.061.216.38.1-.061.216.38.1-.061.216.38.1-.061.217.38.1-.061.216.38.1-.061.216.38.1-.061.216.38.1-.061.217.379.1-.06.217.379.1-.06.217.379.1-.057.216.376.1-.061.216.38.1-.057.216.376.1-.058.148.262c-.1,0-.192-.017-.29-.017-.575,0-1.143.03-1.705.084l-.081-.135-.1.058-.217-.38-.1.057-.216-.373-.1.054-.216-.376-.1.057-.216-.376-.1.057-.216-.376-.1.058-.217-.377-.1.058-.217-.377-.1.058-.216-.377-.1.058-.216-.377-.1.058-.216-.377-.1.058-.216-.377-.1.058-.217-.377-.1.058-.22-.377-.1.058-.217-.376-.1.057-.216-.376-.1.058-.219-.377-.1.058-.219-.377-.1.058-.216-.377-.1.058-.22-.377-.1.058-.22-.377-.1.058-.217-.377-.1.058-.217-.377-.1.058-.216-.38-.1.061-.216-.377-.1.058-.216-.38-.1.061-.216-.38-.1.061-.217-.38-.1.061-.217-.38-.1.061-.216-.38-.1.062-.216-.381-.1.062-.216-.38-.1.061-.216-.38-.1.061-.217-.38-.1.061-.217-.38-.1.061-.217-.38-.1.061-.216-.38-.1.058-.216-.377-1.731,1,1.051,1.826.1-.058.217.377.1-.058.22.377.1-.058.22.376.1-.057.219.376.1-.057.22.376.1-.057.216.376.1-.057.22.376.1-.058.217.377.1-.058.217.377.1-.058.217.377.1-.058.216.377.1-.058.216.377.1-.058.216.377.1-.058.216.377.1-.058.217.377.1-.058.217.377.1-.058.217.38.1-.062.216.377.1-.058.216.377.1-.054.216.376.1-.061.216.377.1-.054.217.373.1-.054.217.376.1-.057.22.376.1-.058.216.377.1-.058.217.377.1-.058.22.377.1-.058.22.377.1-.058.22.377.1-.058.217.377.1-.058.071.122c-.548.146-1.082.319-1.61.512l-.071-.125-.1.061-.216-.38-.1.061-.216-.38-.1.061-.22-.38-.1.061-.216-.38-.1.061-.217-.38-.1.062-.217-.381-.1.062-.217-.381-.1.062-.216-.38-.1.061-.216-.38-.1.057-.216-.376-.1.061-.216-.38-.1.061-.217-.38-.1.058L709.1,2606l-.1.058-.217-.377-.1.058-.216-.377-.1.058-.216-.377-.1.058-.216-.377-.1.058-.216-.377-.1.058-.217-.377-.1.058-.216-.377-.1.058-.22-.377-.1.058-.219-.376-.1.057-.22-.376-.1.057-.22-.376-.1.057-.22-.376-.1.057-.22-.376-.1.057-.22-.376-.1.058-.217-.377-.1.058-.216-.377-.1.058-.216-.377-.1.055-.216-.374-.1.058-.216-.376-.1.057-.217-.376-.1.054-.217-.373-1.731,1,1.052,1.825.1-.058.216.377.1-.058.216.376.1-.057.216.376.1-.057.216.376.1-.057.217.376.1-.057.217.376.1-.057.217.376.1-.058.216.377.1-.058.22.377.1-.058.216.38.1-.061.219.377.1-.058.22.38.1-.061.22.38.1-.061.22.38.1-.061.22.38.1-.061.22.38.1-.061.217.38.1-.061.216.38.1-.061.216.38.1-.061.217.38.1-.061.217.38.1-.062.216.381.1-.062.216.381.1-.062.216.38.1-.061.216.38.1-.061.217.38.1-.061.217.38.1-.058.217.377.1-.058.193.336q-.675.372-1.309.8l-.175-.3-.1.054-.216-.373-.1.054-.216-.373-.1.057-.216-.38-.1.058-.217-.377-.1.058-.22-.377-.1.058-.217-.377-.1.058-.22-.376-.1.057-.216-.376-.1.057-.216-.376-.1.057-.219-.376-.1.058-.22-.377-.1.058-.22-.377-.1.058-.22-.377-.1.058-.22-.377-.1.058-.217-.377-.1.058-.217-.377-.1.058-.216-.376-.1.057-.216-.376-.1.057-.217-.376-.1.057-.217-.376-.1.057-.216-.376-.1.058-.216-.381-.1.062-.216-.377-.1.058-.216-.377-.1.058-.217-.38-.1.061-.217-.377-.1.058-.217-.377-.1.058-.216-.38-.1.061-.216-.38-.1.061-.216-.38-.1.061-.216-.38-.1.061-.217-.38-.1.061-.217-.38-1.731,1,1.048,1.825.1-.058.22.377.1-.058.216.377.1-.058.22.377.1-.058.216.377.1-.058.22.377.1-.058.22.377.1-.058.217.376.1-.057.219.376.1-.057.216.376.1-.057.216.376.1-.057.216.376.1-.058.217.377.1-.058.217.377.1-.058.217.377.1-.058.216.377.1-.058.216.376.1-.057.216.38.1-.061.216.376.1-.054.216.373.1-.054.216.377.1-.061.216.38.1-.058.216.377.1-.058.217.376.1-.057.217.376.1-.057.217.373.1-.054.216.376.1-.057.216.376.1-.057.216.376.1-.058.216.377.1-.058.159.275q-.547.484-1.055,1.008l-.077-.133-.1.058-.216-.38-.1.061-.217-.38-.1.061-.217-.38-.1.061-.217-.38-.1.062-.216-.38-.1.061-.216-.38-.1.061-.216-.38-.1.061-.216-.38-.1.061-.217-.38-.1.061-.217-.38-.1.061-.217-.38-.1.061-.216-.38-.1.058-.216-.377-.1.058-.216-.377-.1.058-.216-.377-.1.058-.22-.377-.1.058-.217-.377-.1.058-.22-.377-.1.058-.22-.376-.1.057-.22-.376-.1.057-.219-.376-.1.057-.219-.376-.1.057-.22-.376-.1.057-.22-.376-.1.058-.22-.377-.1.058-.219-.377-.1.058-.216-.377-.1.058-.216-.377-.1.058-.216-.376-.1.057-.217-.376-.1.057-.217-.376-.1.054-.217-.373-.1.057-.216-.376-.1.057-.216-.376-.1.054-.216-.373-1.731,1,1.051,1.825.1-.058.216.377.1-.058.216.377.1-.058.217.38.1-.061.217.377.1-.058.216.377.1-.058.216.38.1-.061.216.38.1-.061.216.376.1-.057.217.38.1-.061.217.38.1-.061.217.38.1-.062.216.381.1-.062.216.38.1-.061.216.38.1-.061.216.38.1-.061.217.38.1-.061.217.38.1-.061.217.38.1-.058.216.377.1-.061.219.38.1-.061.22.38.1-.058.217.377.1-.061.22.38.1-.061.22.379.1-.057.22.376.1-.057.216.376.1-.057.216.376.1-.058.22.377.1-.058.216.377.1-.058.217.377.1-.058.217.377.1-.058.217.377.1-.058.088.153c-.254.346-.49.7-.72,1.069l-.1-.058.057-.1-.375-.217.058-.1-.376-.217.058-.1-.376-.217.058-.1-1.295-.749c-.037-.034-.071-.072-.108-.106-.1-.108-.206-.217-.318-.319s-.206-.217-.318-.318a4.314,4.314,0,0,0-.318-.316,4.4,4.4,0,0,0-.318-.322c-.1-.109-.209-.217-.317-.319s-.21-.217-.318-.319-.21-.217-.318-.319-.21-.217-.318-.319-.206-.217-.318-.319-.21-.217-.318-.319-.209-.217-.317-.319-.21-.217-.322-.319-.206-.217-.314-.319-.21-.217-.318-.319-.21-.217-.318-.319-.209-.217-.318-.318-.209-.217-.318-.319-.209-.217-.317-.319-.21-.217-.322-.319a4.476,4.476,0,0,0-.314-.319c-.1-.112-.21-.217-.318-.319s-.209-.22-.321-.322-.206-.214-.315-.316-.209-.22-.321-.322-.206-.214-.314-.316a4.381,4.381,0,0,0-.321-.318c-.1-.112-.207-.221-.315-.319s-.21-.221-.321-.323-.206-.213-.315-.315-.209-.221-.321-.323-.206-.217-.314-.315-.21-.221-.321-.323a5.048,5.048,0,1,0-7.091,7.176c.1.116.213.224.325.326s.2.214.311.312a4.174,4.174,0,0,0,.321.322,3.964,3.964,0,0,0,.318.316,3.161,3.161,0,0,0,.321.322c.1.112.2.217.314.319s.207.217.315.316c.1.115.21.22.321.322s.21.221.321.322.206.218.315.316c.04.044.084.088.128.132h-.974v2h.318v.322h.321v.319h.318v.316h.318v.322h.318v.319h.318v.319h.318v.319h.318v.319H690v.319h.318v.319h.318v.318h.318v.319h.318v.319h.318v.319h.317v.319h.318v.319h.318v.319h.318v.319h.318v.322h.317v.316h.318v.319h.318v.322h.318v.319h.318v.316h.318v.322h.318v.319h.317v.315h.318v.322h.318v.319h.318v.319H697v.319h.318v.319h.317v.319h.318v.319h.318v.319h.318v.319h.318v.319h.318v.319h.321v.319h.318v.319h.318v.318h.318v.319h.317v.319h.318v.319h.318v.319h.318v.319h.317v.319h.318v.319h.318v.319h.318v.319h.149c.013.034.03.061.044.091h-.318v-.319H702.6v-.319h-.318v-.319h-.318v-.318h-.317v-.319h-.318v-.319h-.318v-.319h-.318v-.319h-.318v-.319h-.318v-.322h-.317v-.316h-.318v-.322H699.1v-.319h-.318v-.319h-.318v-.319h-.318v-.319h-.318v-.319h-.317v-.319h-.318v-.319h-.321v-.319h-.318v-.318h-.318v-.319h-.318v-.319H695.6v-.319h-.317v-.319h-.318v-.319h-.318v-.319h-.318v-.319h-.318v-.319h-.318v-.319h-.318v-.319h-.317v-.319h-.318v-.319h-.318v-.318H692.1v-.319h-.318v-.319h-.318v-.319h-.318v-.319h-.317v-.319h-.318v-.319H690.2v-.319h-.318v-.319h-.317v-.319h-.318v-.319h-2.1v2h.318v.319h.321v.322h.318v.316h.318v.322h.318v.319h.318v.316h.318v.322h.318v.319H690v.319h.318v.319h.318v.319h.318v.319h.318V2626h.318v.318h.317v.319h.318v.319h.318v.319h.318v.319h.318v.319h.317v.319h.318v.319h.318v.319h.318v.319h.318v.319h.318v.319h.318v.322h.317v.319h.318v.319h.318v.319h.318v.319H697v.318h.318v.319h.317v.319h.318v.319h.318v.319h.318v.319h.318v.319h.318v.319h.321v.319h.318v.319h.318v.319h.318v.319h.317v.319h.318v.319h.318v.176l-.125.071v-.159h-.318v-.316h-.318v-.319h-.318v-.322h-.318v-.316h-.317v-.318h-.318v-.323H699.1v-.319h-.318v-.319h-.318v-.319h-.318v-.319h-.318v-.318h-.317v-.319h-.318v-.319h-.321v-.319h-.318v-.319h-.318v-.319h-.318v-.319H695.6v-.319h-.317v-.319h-.318v-.319h-.318v-.319h-.318v-.319h-.318v-.319h-.318v-.319h-.318V2628h-.317v-.319h-.318v-.319h-.318v-.319H692.1v-.319h-.318v-.319h-.318v-.319h-.318v-.319h-.317v-.319h-.318v-.319H690.2v-.318h-.318v-.319h-.317v-.319h-.318v-.319h-2.1v2h.318v.322h.321v.319h.318v.315h.318v.322h.318v.319h.318v.319h.318v.319h.318v.319H690v.319h.318v.319h.318v.319h.318v.319h.318v.319h.318v.319h.317v.319h.318v.319h.318v.319h.318v.318h.318v.319h.317v.319h.318v.319h.318v.319h.318v.319h.318v.322h.318v.319h.318v.316h.317v.322h.318v.319h.318v.319h.318v.319H697v.319h.318v.319h.317v.319h.318v.319h.318v.318h.318v.319h.318v.19l-.122.075v-.176h-.318v-.319h-.318v-.319h-.318v-.319h-.317v-.319h-.318v-.319h-.321v-.319h-.318v-.319h-.318v-.319h-.318v-.319H695.6v-.319h-.317v-.319h-.318v-.319h-.318v-.318h-.318v-.319h-.318v-.319h-.318v-.319h-.318v-.319h-.317v-.319h-.318v-.319h-.318v-.319H692.1v-.319h-.318v-.319h-.318v-.318h-.318v-.319h-.317v-.319h-.318v-.319H690.2v-.319h-.318v-.319h-.317v-.319h-.318v-.319h-2.1v2h.318v.318h.321v.319h.318v.323h.318v.315h.318v.319h.318v.323h.318v.315h.318v.322H690v.319h.318v.319h.318v.319h.318v.319h.318v.319h.318v.319h.317v.319h.318v.319h.318v.319h.318v.319h.318v.319h.317v.319h.318v.319h.318v.318h.318v.319h.318v.322h.318v.316h.318v.319h.317v.322h.318v.319h.318v.316h.318v.322H697v.319h.318v.319h.317v.319h.318v.319h.318v.319h.318v.319h.318v.319h.318V2642h.321v.319h.318v.319h.318v.319h.318v.319h.317v.319h.318v.319h.318v.319h.318v.319h.317v.319h.318v.319h.318v.318h.318v.319h.318v.319h.318v.319h.318v.319h.317v.319h.318v.319h.318v.319h.318v.319h.318v.319h.318v.319h.318v.319h.317v.156l-.125-.065h-.317v-.319h-.318v-.319h-.318v-.318h-.318v-.319h-.318v-.319H704.5v-.319h-.318v-.319h-.317v-.319h-.318v-.319h-.318v-.319h-.318v-.319H702.6v-.319h-.318v-.319h-.318v-.319h-.317v-.319h-.318V2644h-.318v-.318h-.318v-.319h-.318v-.319h-.318v-.322h-.317v-.319h-.318v-.319H699.1v-.319h-.318v-.319h-.318v-.319h-.318v-.319h-.318v-.319h-.317v-.319h-.318v-.319h-.321v-.319h-.318v-.319h-.318v-.319h-.318v-.319H695.6v-.318h-.317v-.319h-.318v-.319h-.318v-.319h-.318v-.319h-.318v-.319h-.318v-.319h-.318v-.319h-.317v-.319h-.318v-.319h-.318v-.319H692.1v-.319h-.318v-.319h-.318v-.318h-.318v-.319h-.317v-.319h-.318v-.319H690.2v-.319h-.318v-.319h-.317v-.319h-.318v-.319h-2.1v2.005h.318v.316h.321v.319h.318v.322h.318v.315h.318v.319h.318v.323h.318v.319h.318v.319H690v.319h.318v.319h.318v.318h.318v.319h.318v.319h.318v.319h.317v.319h.318v.319h.318v.319h.318v.319h.318v.319h.317v.319h.318v.224l-.05.027.091.159h-.166v-.319h-.318v-.319h-.317v-.319h-.318v-.319h-.318v-.318H692.1v-.319h-.318v-.319h-.318v-.319h-.318v-.319h-.317v-.319h-.318v-.319H690.2v-.319h-.318v-.319h-.317v-.319h-.318v-.318h-2.1v2h.318v.319h.321v.319h.318v.319h.318v.319h.318v.319h.318v.322h.318v.241a5,5,0,0,0-3.7.536,5.063,5.063,0,0,0-1.842,6.908,4.948,4.948,0,0,0,.98,1.218c.1.112.21.22.322.322s.206.217.314.319c.061.061,23.013,23.094,42.185,42.331a65.252,65.252,0,0,0,56.4-56.594C774.428,2625.452,754.458,2605.415,754.37,2605.336Zm-55.148,32.52-.044.027-.125-.217h.169Zm.321.319-.047.027-.125-.217h.172Zm.318.319-.048.027-.125-.217h.173Zm.318.319-.048.027-.125-.217h.173Zm.318.319-.048.027-.125-.217h.173Zm.317.319-.047.027-.125-.217h.172Zm.318.319-.047.027-.125-.217h.172Zm.318.319-.047.027-.126-.217h.173Zm.318.319-.047.027-.126-.217h.173Zm.317.318-.047.028-.125-.217h.172Zm.318.319-.047.028-.125-.217h.172Zm.318.319-.047.028-.125-.217h.172Zm.318.323-.047.024-.125-.218h.172Zm.318.315-.047.027-.126-.217h.173Zm-.125-7.8v-.315c.047.108.1.21.152.315Zm.443,8.119-.047.027-.126-.217h.173Zm.318.322-.048.024-.125-.217h.173Zm.317.319-.047.024-.125-.217h.172Zm.318.316-.047.027-.125-.217h.172Zm.318.322-.044.027-.128-.22h.172Zm.318.319-.044.027-.128-.22h.172Zm.318.319-.048.027-.125-.22h.173Zm.318.319-.044.027-.129-.22h.173Zm.318.319-.044.027-.129-.221h.173Zm-16.531-4.74a.146.146,0,0,1-.038-.013h.038Zm4.324.855v-.054l.031.054Zm12.48,4.231-.128-.221h.172v.194Zm.362.292-.044.027-.128-.221h.172Zm.318.319-.044.027-.128-.221h.172Zm.318.319-.044.027-.128-.221h.172Zm.318.319-.044.027-.129-.221h.173Zm.321.319-.047.027-.125-.218h.172Zm.318.318-.047.028-.126-.218h.173Zm.314.319-.044.027-.128-.22h.172Zm.321.319-.047.027-.125-.217h.172Zm.318.319-.047.027-.125-.217h.172Zm.318.319-.047.027-.125-.217h.172Zm.318.319-.047.027-.126-.217h.173Zm.318.319-.047.027-.126-.217h.173Zm.318.322-.173-.193h.173Z" fill="#a3c6a8"/>
      <g id="Grupo_43" data-name="Grupo 43">
        <g id="Grupo_41" data-name="Grupo 41">
          <g id="Grupo_40" data-name="Grupo 40">
            <path id="Trazado_84" data-name="Trazado 84" d="M712.8,2660.439l-1.731-1,1.052-1.825,1.731,1Zm-3.459-2.009-1.731-1,1.048-1.825,1.732,1Zm-3.462-2-1.731-1,1.051-1.825,1.728,1Zm-3.463-2.008-1.731-1,1.052-1.825,1.731,1Zm-3.459-2-1.731-1,1.052-1.826,1.727,1.005Zm-3.462-2.008-1.731-1,1.051-1.826,1.731,1Z" fill="#fff"/>
            <path id="Trazado_85" data-name="Trazado 85" d="M689.244,2637.89h-2.1v-2h2.1Zm0-4.007h-2.1v-2.005h2.1Zm0-4.013h-2.1v-2h2.1Zm0-4.01h-2.1v-2h2.1Zm0-4.011h-2.1v-2h2.1Zm0-4.01h-2.1v-2h2.1Z" fill="#fff"/>
            <path id="Trazado_86" data-name="Trazado 86" d="M694.819,2606.144l-1.051-1.825,1.731-1,1.051,1.825Zm3.459-2.005-1.048-1.825,1.731-1,1.048,1.826Zm3.463-2-1.052-1.825,1.731-1,1.052,1.825Zm3.462-2.005-1.051-1.826,1.731-1,1.048,1.825Zm3.459-2-1.048-1.826,1.728-1,1.052,1.825Zm3.463-2.006-1.052-1.825,1.731-1,1.052,1.825Z" fill="#fff"/>
            <path id="Trazado_87" data-name="Trazado 87" d="M744.044,2606.144l-1.731-1,1.051-1.825,1.728,1Zm-3.463-2.005-1.731-1,1.052-1.826,1.731,1Zm-3.459-2-1.731-1,1.052-1.822,1.728,1Zm-3.462-2.005-1.731-1,1.051-1.825,1.732,1Zm-3.459-2-1.731-1.005,1.048-1.825,1.731,1Zm-3.462-2.006-1.732-1,1.052-1.825,1.731,1Z" fill="#fff"/>
            <path id="Trazado_88" data-name="Trazado 88" d="M751.719,2637.894h-2.1v-2.005h2.1Zm0-4.011h-2.1v-2.005h2.1Zm0-4.013h-2.1v-2h2.1Zm0-4.01h-2.1v-2h2.1Zm0-4.011h-2.1v-2h2.1Zm0-4.01h-2.1v-2h2.1Z" fill="#fff"/>
            <path id="Trazado_89" data-name="Trazado 89" d="M726.059,2660.439l-1.052-1.826,1.732-1,1.048,1.825Zm3.459-2.009-1.048-1.822,1.731-1,1.048,1.825Zm3.462-2-1.051-1.825,1.731-1,1.052,1.825Zm3.463-2.008-1.052-1.822,1.731-1,1.049,1.825Zm3.459-2-1.052-1.825,1.731-1.005,1.052,1.826Zm3.462-2.008-1.051-1.826,1.731-1,1.048,1.826Z" fill="#fff"/>
          </g>
        </g>
        <path id="Trazado_90" data-name="Trazado 90" d="M737.079,2626.864a17.647,17.647,0,1,1-17.647-17.707A17.677,17.677,0,0,1,737.079,2626.864Z" fill="#fff"/>
        <g id="Grupo_42" data-name="Grupo 42">
          <path id="Trazado_91" data-name="Trazado 91" d="M692.557,2606.236a5.045,5.045,0,1,1-6.888-1.853A5.07,5.07,0,0,1,692.557,2606.236Z" fill="#343b43"/>
          <path id="Trazado_92" data-name="Trazado 92" d="M723.8,2588.139a5.046,5.046,0,1,1-6.884-1.853A5.068,5.068,0,0,1,723.8,2588.139Z" fill="#fff"/>
          <path id="Trazado_93" data-name="Trazado 93" d="M755.036,2606.236a5.045,5.045,0,1,1-6.887-1.853A5.064,5.064,0,0,1,755.036,2606.236Z" fill="#343b43"/>
          <path id="Trazado_94" data-name="Trazado 94" d="M755.036,2642.43a5.046,5.046,0,1,1-6.887-1.849A5.068,5.068,0,0,1,755.036,2642.43Z" fill="#fff"/>
          <path id="Trazado_95" data-name="Trazado 95" d="M723.8,2660.527a5.046,5.046,0,1,1-6.884-1.846A5.068,5.068,0,0,1,723.8,2660.527Z" fill="#343b43"/>
          <path id="Trazado_96" data-name="Trazado 96" d="M692.557,2642.43a5.046,5.046,0,1,1-6.888-1.846A5.075,5.075,0,0,1,692.557,2642.43Z" fill="#fff"/>
        </g>
      </g>
    </g>
  </g>
</svg>
