<svg xmlns="http://www.w3.org/2000/svg" width="57.144" height="65.307" viewBox="0 0 57.144 65.307">
  <g id="Grupo_106" data-name="Grupo 106" transform="translate(-537.263 -2154.969)">
    <path id="Trazado_33" data-name="Trazado 33" d="M549.508,2154.969a4.094,4.094,0,0,0-4.082,4.081v57.144a4.094,4.094,0,0,0,4.082,4.082h40.817a4.094,4.094,0,0,0,4.082-4.082v-44.9l-16.327-16.327Z" fill="#f2f2f2"/>
    <path id="Rectángulo_22" data-name="Rectángulo 22" d="M2.041,0h44.9a2.041,2.041,0,0,1,2.041,2.041V22.45a2.04,2.04,0,0,1-2.04,2.04H2.04A2.04,2.04,0,0,1,0,22.45V2.041A2.041,2.041,0,0,1,2.041,0Z" transform="translate(537.263 2185.582)" fill="red" opacity="0.9"/>
    <path id="Trazado_34" data-name="Trazado 34" d="M559.286,2194.649v7.311h2.708c4.406,0,4.6-7.311,0-7.311Zm-1.021,9.3a1.02,1.02,0,0,1-1.121-.908c0-.038-.005-.075-.005-.112v-9.27a1.109,1.109,0,0,1,1.126-1.02H562c7.458,0,7.294,11.292.147,11.292Z" fill="#fff"/>
    <path id="Trazado_35" data-name="Trazado 35" d="M571.941,2194.786v2.594H576.1a1.261,1.261,0,0,1,1.176,1.157,1.136,1.136,0,0,1-1.176.98h-4.161v3.426a.966.966,0,0,1-.923,1.009.443.443,0,0,1-.054,0,1.037,1.037,0,0,1-1.151-.909c0-.033-.006-.067-.007-.1v-9.269a1.029,1.029,0,0,1,1.158-1.021h5.728a1.021,1.021,0,0,1,1.136.891,1.115,1.115,0,0,1-1.135,1.24h-4.752Z" fill="#fff"/>
    <path id="Trazado_36" data-name="Trazado 36" d="M582.162,2171.3h12.245l-16.327-16.327v12.245A4.094,4.094,0,0,0,582.162,2171.3Z" fill="#b3b3b3"/>
    <path id="Trazado_37" data-name="Trazado 37" d="M547.579,2194.16v4.066H550.3a2.041,2.041,0,0,0,0-4.066Zm-2.153-.928a1.123,1.123,0,0,1,1.108-1.127h3.77a4.082,4.082,0,0,1,0,8.164h-2.723v2.155a1.019,1.019,0,0,1-.91,1.119.862.862,0,0,1-.135.005,1.1,1.1,0,0,1-1.108-1.091v-.033Z" fill="#fff"/>
    <path id="Trazado_38" data-name="Trazado 38" d="M584.2,2211.072H545.426v2.041H584.2a2.041,2.041,0,0,0,2.041-2.041v-2.041A2.041,2.041,0,0,1,584.2,2211.072Z" fill="#e6e6e6"/>
  </g>
</svg>
