<svg xmlns="http://www.w3.org/2000/svg" width="317.544" height="306.128" viewBox="0 0 317.544 306.128">
  <g id="Grupo_104" data-name="Grupo 104" transform="translate(-1012.332 -79.988)">
    <circle id="Elipse_1" data-name="Elipse 1" cx="141.113" cy="141.113" r="141.113" transform="translate(1029.991 94.067)" fill="#003028"/>
    <g id="Grupo_100" data-name="Grupo 100">
      <path id="Trazado_5" data-name="Trazado 5" d="M1319.388,299.133a147.65,147.65,0,0,0,8.17-80.814,155.694,155.694,0,0,0-39.6-78.246c-.4-.567-.785-1.139-1.2-1.712-36.392-50.1-112.356-64.161-166.19-37.464a137.161,137.161,0,0,0-69.311,57.015c-25.508,41.6-31.042,101.406-10.575,145.347a165.037,165.037,0,0,1-16.814-36.931c-10.519-33.491-10.019-72.46,4.564-104.7,25.158-55.447,97.553-82.5,94.282-81.615-34.923,9.511-64.739,30.756-83.744,57a141.3,141.3,0,0,0-26.034,95.93c6.295,68.041,64.648,135.637,132.392,149.81,33.825,7.055,73.595,3.011,105.114-11.918C1280.368,356.63,1305.993,332.1,1319.388,299.133ZM1064.073,149.277a136.6,136.6,0,0,1,9.482-10.71c-37.109,44.876-43.924,111.178-5.111,160.843.1.117.213,0,.117-.121-43.248-56.572-22.164-140.5,30.76-181.417,59.324-36.531,148.18-19.253,192.985,34.06,18.419,32.357,22.486,73.377,12.672,109.818-11.667,43.22-42.05,84.482-82.9,102.771-37.714,16.854-88.663,15.229-124.912-5.6q-6.612-3.93-12.849-8.471c-29.317-22.06-47.154-56.517-51.069-92.42C1029.184,220.31,1040.442,179.179,1064.073,149.277Zm209.2-22.756A149.152,149.152,0,0,0,1258.8,116.2c-32.914-20.491-73.774-28.663-110.856-22.572,3.008-.8,6.036-1.516,9.1-2.106C1197.863,83.7,1244.173,96.733,1273.271,126.521Zm-47.9,250.507a168.316,168.316,0,0,1-77,1.857c40.351,4.618,85.01-9.185,114.985-38.521,44.181-43.338,62.836-119.414,38.1-176.251a141.22,141.22,0,0,1,10.813,19.048c16.545,35.49,19.5,79.58,4.314,115.757C1300.421,337.3,1265.427,366.49,1225.37,377.028Z" fill="#002820"/>
    </g>
    <g id="Grupo_27" data-name="Grupo 27" opacity="0.8">
      <path id="Trazado_6" data-name="Trazado 6" d="M1236.26,223.449l12.435-34.175,12.43,34.175,12.435,34.17" fill="none" stroke="#fff" stroke-width="4"/>
      <g id="Grupo_18" data-name="Grupo 18">
        <g id="Grupo_17" data-name="Grupo 17">
          <g id="Grupo_16" data-name="Grupo 16">
            <g id="Grupo_14" data-name="Grupo 14">
              <path id="Trazado_7" data-name="Trazado 7" d="M1262.009,218.134a33.418,33.418,0,1,0,17.11,44.057A33.454,33.454,0,0,0,1262.009,218.134Z" fill="#003028" stroke="#fff" stroke-width="4"/>
            </g>
            <g id="Grupo_15" data-name="Grupo 15">
              <path id="Trazado_8" data-name="Trazado 8" d="M1281.617,253l-4.645,3.615-8.381,7.052-.374-6.845-5.437.983-.608-6.3-3.74,2-1.08-.835-3.22-3.218-1.024,4.378,2.462,2.485-10.778,10.479-2.927.46-.017-5.652,2.108-8.542-3.836-1.88-.39-3.678,4.86-5.1,3.6.67,1.443,2.228,5.322.937-4.012-5.23-4.084-2.7.355-1.43,5.339-.6-.585-3.577,6.042-2.02,3.9,3.642,8.7.973s3.865-.288,8.178-.583A33.467,33.467,0,0,1,1281.617,253Z" fill="#fff"/>
              <path id="Trazado_9" data-name="Trazado 9" d="M1239.792,216.511l-3.062,2.235-5.45,4.195a.511.511,0,0,0-.2.48l.629,4.325a.588.588,0,0,0,.307.4.525.525,0,0,0,.5-.053l3.075-2.155,1.68,5.97-9.727,3.17-4.118-1.362a.514.514,0,0,0-.537.135l-1.911,2.047a.519.519,0,0,0-.125.478l1.166,4.527-3.4-3.835-.565-2A33.346,33.346,0,0,1,1239.792,216.511Z" fill="#fff"/>
              <path id="Trazado_10" data-name="Trazado 10" d="M1222.485,253.511l-.393-6.46,5.615-5.117,5,11.16-13.313,11.3,0-3.889,3.042-6.758A.5.5,0,0,0,1222.485,253.511Z" fill="#fff"/>
              <path id="Trazado_11" data-name="Trazado 11" d="M1242.191,227.751l-.28-8.73c6.1-.345,9.7.56,11.044,1l-4.4,6Z" fill="#fff"/>
            </g>
          </g>
        </g>
      </g>
      <path id="Trazado_12" data-name="Trazado 12" d="M1074.33,257.618l12.43-34.17,12.433-34.175,12.432,34.175,12.435,34.17" fill="none" stroke="#fff" stroke-width="4"/>
      <path id="Trazado_13" data-name="Trazado 13" d="M1099.193,284.373a35.742,35.742,0,0,0,34.74-27.412h-69.477a35.717,35.717,0,0,0,8.365,15.767" fill="none" stroke="#fff" stroke-width="4"/>
      <path id="Trazado_14" data-name="Trazado 14" d="M1264.456,256.961h-50.5a35.717,35.717,0,0,0,69.476,0H1262.4" fill="none" stroke="#fff" stroke-width="4"/>
      <g id="Grupo_19" data-name="Grupo 19">
        <path id="Trazado_15" data-name="Trazado 15" d="M1203.955,161.8a8.691,8.691,0,0,0-1.752,0h-7.018v31.565a8.768,8.768,0,1,0,17.537,0V170.567A8.765,8.765,0,0,0,1203.955,161.8Z" fill="none" stroke="#fff" stroke-width="4"/>
        <path id="Trazado_16" data-name="Trazado 16" d="M1186.418,202.131a8.767,8.767,0,0,0,8.767-8.769V161.744h-17.537v18.973" fill="none" stroke="#fff" stroke-width="4"/>
        <path id="Trazado_17" data-name="Trazado 17" d="M1186.418,202.134a8.769,8.769,0,0,1-8.77-8.767V161.744h17.537v18.973" fill="none" stroke="#fff" stroke-width="4"/>
        <path id="Trazado_18" data-name="Trazado 18" d="M1177.648,161.744H1160.11v18.972h0" fill="none" stroke="#fff" stroke-width="4"/>
        <path id="Trazado_19" data-name="Trazado 19" d="M1160.11,183.8v-22.06h-17.537v22.082" fill="none" stroke="#fff" stroke-width="4"/>
      </g>
      <path id="Trazado_20" data-name="Trazado 20" d="M1142.741,183.414,1131.432,201.4c-3.521,5.972-3.521,10.8,0,15.752l17.752,22.2v89.082" fill="none" stroke="#fff" stroke-width="4"/>
      <path id="Trazado_21" data-name="Trazado 21" d="M1153.15,204.679h13.92c6.149,0,10.578-4.985,10.578-11.135v-9.465l-37.986.055" fill="none" stroke="#fff" stroke-width="4"/>
      <path id="Trazado_22" data-name="Trazado 22" d="M1212.722,183.244v30.065c0,6.152-12.987,24.5-12.987,24.5v91.366" fill="none" stroke="#fff" stroke-width="4"/>
      <line id="Línea_3" data-name="Línea 3" x1="50.665" transform="translate(1091.908 173.652)" fill="none" stroke="#fff" stroke-width="4"/>
      <line id="Línea_4" data-name="Línea 4" x1="50.667" transform="translate(1212.723 173.652)" fill="none" stroke="#fff" stroke-width="4"/>
      <path id="Trazado_23" data-name="Trazado 23" d="M1153.153,205.517a26.351,26.351,0,0,1,26.352,26.352" fill="none" stroke="#fff" stroke-width="4"/>
      <path id="Trazado_24" data-name="Trazado 24" d="M1248.695,189.274l12.43,34.175,12.435,34.17" fill="none" stroke="#fff" stroke-width="4"/>
      <g id="Grupo_22" data-name="Grupo 22">
        <g id="Grupo_21" data-name="Grupo 21">
          <path id="Trazado_25" data-name="Trazado 25" d="M1082.12,274.991h30.018c.21-2.84.848-6.533,2.635-8.91,11.076-14.265,11.785-27.852,11.785-28.812a29.4,29.4,0,1,0-58.8,0c0,.96.689,14.542,11.778,28.812C1081.314,268.458,1081.93,272.151,1082.12,274.991Z" fill="#003028" stroke="#fff" stroke-width="4"/>
          <g id="Grupo_20" data-name="Grupo 20">
            <line id="Línea_5" data-name="Línea 5" x1="5.823" y1="32.317" transform="translate(1083.514 242.594)" fill="none" stroke="#fff" stroke-width="4"/>
            <line id="Línea_6" data-name="Línea 6" y1="32.317" x2="5.819" transform="translate(1104.976 242.594)" fill="none" stroke="#fff" stroke-width="4"/>
          </g>
          <path id="Trazado_26" data-name="Trazado 26" d="M1083.7,244.489l4.48,2.56,4.483-2.56,4.485,2.56,4.485-2.56,4.491,2.56,4.492-2.56" fill="none" stroke="#fff" stroke-width="4"/>
          <line id="Línea_7" data-name="Línea 7" x2="33.96" transform="translate(1080.176 275.336)" fill="none" stroke="#fff" stroke-width="4"/>
          <line id="Línea_8" data-name="Línea 8" x2="19.572" transform="translate(1080.176 284.271)" fill="none" stroke="#fff" stroke-width="4"/>
          <line id="Línea_9" data-name="Línea 9" y1="7.8" transform="translate(1088.504 275.731)" fill="none" stroke="#fff" stroke-width="4"/>
        </g>
      </g>
      <path id="Trazado_27" data-name="Trazado 27" d="M1099.193,189.274l12.432,34.175,12.435,34.17" fill="none" stroke="#fff" stroke-width="4"/>
      <g id="Grupo_24" data-name="Grupo 24">
        <g id="Grupo_23" data-name="Grupo 23">
          <line id="Línea_10" data-name="Línea 10" x2="4.883" y2="8.46" transform="translate(1070.672 188.907)" fill="none" stroke="#fff" stroke-width="4"/>
          <line id="Línea_11" data-name="Línea 11" x2="8.461" y2="4.885" transform="translate(1053.928 205.974)" fill="none" stroke="#fff" stroke-width="4"/>
          <line id="Línea_12" data-name="Línea 12" x2="9.77" transform="translate(1047.961 229.126)" fill="none" stroke="#fff" stroke-width="4"/>
        </g>
      </g>
      <g id="Grupo_26" data-name="Grupo 26">
        <g id="Grupo_25" data-name="Grupo 25">
          <line id="Línea_13" data-name="Línea 13" x1="4.883" y2="8.457" transform="translate(1273.384 203.319)" fill="none" stroke="#fff" stroke-width="4"/>
          <line id="Línea_14" data-name="Línea 14" x1="8.46" y2="4.885" transform="translate(1286.552 220.386)" fill="none" stroke="#fff" stroke-width="4"/>
          <line id="Línea_15" data-name="Línea 15" x1="9.772" transform="translate(1291.207 243.539)" fill="none" stroke="#fff" stroke-width="4"/>
        </g>
      </g>
    </g>
  </g>
</svg>
